<svg width="382" height="153" viewBox="0 0 382 153" fill="none" xmlns="http://www.w3.org/2000/svg">
<path d="M156.728 40.2874H156.728V40.2883L156.728 40.2874ZM43.006 48.5894C43.4424 49.0259 44.2629 49.3956 45.3365 49.7137V49.719L45.4016 49.7333C46.2517 49.9809 47.2526 50.1974 48.3703 50.3836C50.104 50.3836 66.7051 51.5729 68.941 51.5729L70.6973 51.5711H70.7067V51.9266C70.7067 53.7065 72.1502 55.1506 73.9309 55.1506H75.7962C75.7962 56.6313 76.9964 57.8312 78.4772 57.8312H81.7726H83.5712V101.858V101.996H81.7013C77.581 101.996 74.241 105.337 74.241 109.457H100.459C100.459 105.337 97.1187 101.996 92.9984 101.996H91.279V57.8312H92.079H103.485C104.041 57.8312 104.557 57.662 104.986 57.3716V91.188H103.191C99.0705 91.188 95.7307 94.5277 95.7307 98.648H121.949C121.949 94.5277 118.608 91.188 114.488 91.188H112.694V54.135H121.862C123.299 54.135 124.461 53.0019 124.53 51.5818L124.738 51.5854C125.069 51.5854 125.958 51.5809 127.196 51.5756C128.431 54.9618 131.67 57.3849 135.484 57.3849C139.331 57.3849 142.593 54.9208 143.804 51.4883C144.86 51.4838 145.611 51.4803 145.879 51.4803C146.761 51.4544 147.617 51.4232 148.445 51.3876H148.452C153.221 51.1872 156.903 50.8353 157.338 50.2348C157.338 50.2348 157.338 49.4945 157.338 48.4477C157.338 47.5533 157.338 46.4362 157.338 45.3636C157.338 43.6691 157.338 42.0905 157.338 41.7003C157.338 41.2763 156.729 40.2883 156.729 40.2883C156.729 40.2883 156.71 38.0424 155.352 36.3204C155.326 35.9747 154.872 34.8763 153.621 33.9471C152.199 32.8896 135.261 28.3017 133.434 27.8081L133.407 27.7689C133.407 27.7689 130.536 27.0812 129.905 26.7925C126.238 25.1097 119.324 21.1079 112.694 18.0549V5.51594H104.986V5.60592V15.0295C104.599 14.9137 104.211 14.797 103.84 14.7026C101.016 13.9827 96.4674 13.8126 91.279 13.9542V9.73331H85.5044H83.5712V14.3409C70.3385 15.2585 56.3902 17.3137 56.3902 17.3137L56.3349 17.3743C54.0653 17.3885 50.8995 17.4536 50.9987 17.7012C51.1365 18.046 52.9858 19.4972 54.0158 19.9115L47.9336 26.5671L47.8003 26.8406C46.9036 26.7809 45.9315 26.7453 44.9391 26.7453C43.0735 26.7453 42.0365 28.4834 41.805 30.7738C41.5809 32.9903 41.6276 36.576 41.9321 38.0023L41.9338 38.0103C41.9568 38.1181 41.9815 38.2117 42.0076 38.2927L42.0166 38.323L42.0929 38.495L42.0991 38.5083L42.0967 38.5137L40.5898 41.3921C40.5898 41.3921 39.8187 45.4019 43.006 48.5894Z" fill="#D3D9E0"/>
<path d="M364.651 12.5352L364.74 12.1922L283.254 2.02024L283.124 2.35699L326.135 12.528L326.305 12.1984L286.316 2.74184L364.651 12.5352Z" fill="#D3D9E0"/>
<path d="M365.905 13.3828H272.603V11.3454H365.905V13.3828Z" fill="#D3D9E0"/>
<path d="M272.603 12.3637H277.524L283.735 11.3454L285.109 12.3637H365.905V13.3828H272.603V12.3637Z" fill="#D3D9E0"/>
<path d="M277.55 89.041H283.735V1.27799H277.55V89.041Z" fill="#D3D9E0"/>
<path d="M279.304 1.27817H277.55V89.041H283.735C283.735 89.041 279.304 75.3315 279.304 71.4768C279.304 55.45 279.304 1.27817 279.304 1.27817Z" fill="#D3D9E0"/>
<path d="M268.802 95.9473H309.513L302.939 90.1407C302.152 89.4446 300.931 89.0375 299.636 89.0375H272.962C270.664 89.0375 268.802 90.2966 268.802 91.8511V95.9473Z" fill="#D3D9E0"/>
<path d="M277.774 2.01953H283.504C284.325 2.01953 284.998 1.56519 284.998 1.00929C284.998 0.453389 284.325 -0.000950575 283.504 -0.000950575H277.774C276.952 -0.000950575 276.281 0.453389 276.281 1.00929C276.281 1.56519 276.952 2.01953 277.774 2.01953Z" fill="#D3D9E0"/>
<path d="M339.914 16.6094H341.286V13.3835H339.914V16.6094Z" fill="#D3D9E0"/>
<path d="M325.514 19.0162C325.514 19.8358 325.626 20.7641 325.832 21.7066C326.366 20.3926 326.661 19.1089 326.661 18.0942C326.661 17.4608 326.537 17.1151 326.436 16.9361C326.364 16.8122 326.276 16.7267 326.219 16.7267C326.031 16.7267 325.514 17.2692 325.514 19.0162ZM311.356 16.9851C311.144 17.385 311.033 17.9793 311.033 18.7044C311.033 19.7913 311.264 21.0358 311.698 22.2625C312.425 20.8407 312.814 19.4225 312.814 18.3249C312.814 17.7182 312.698 17.2309 312.475 16.912C312.228 16.5565 311.955 16.5565 311.838 16.5565C311.603 16.5565 311.41 16.8844 311.356 16.9851ZM296.646 23.0002L296.648 23.0046C297.009 22.3971 297.258 21.8394 297.423 21.4038C298.415 18.7766 297.913 16.7828 297.474 16.6109C296.785 16.7757 295.791 19.6283 296.646 23.0002ZM296.662 26.1574C296.512 25.9418 296.37 25.7147 296.237 25.4777C294.463 27.2648 291.389 29.1472 286.316 29.1472L286.14 29.1463C277.501 29.0715 272.745 25.5677 272.745 19.2781C272.745 13.6853 277.359 12.8995 277.55 12.8719L277.551 13.8474C277.403 13.8715 274.086 14.4675 274.086 19.2781C274.086 23.3191 276.18 28.1539 286.156 28.2394L286.317 28.2403C291.232 28.2403 294.085 26.2866 295.706 24.3392C295.236 23.1267 294.979 21.7548 294.979 20.3668C294.979 18.2162 295.627 15.7058 297.457 15.7058C297.752 15.7058 298.309 15.7806 298.73 16.2786C299.763 17.5018 299.597 21.2764 297.139 24.4523C297.942 26.3 299.593 28.349 302.975 28.349C306.439 28.349 309.178 26.161 310.879 23.6487C310.088 21.9222 309.692 20.1084 309.692 18.7044C309.692 17.8643 309.827 17.1819 310.096 16.6777C310.57 15.7833 311.392 15.6496 311.838 15.6496C312.638 15.6496 313.296 15.9606 313.689 16.5254C313.998 16.9699 314.155 17.5748 314.155 18.3249C314.155 19.8296 313.508 21.826 312.306 23.7013C313.559 26.2269 315.668 28.349 318.313 28.349C321.108 28.349 323.468 26.0835 324.957 23.4955C324.439 21.8875 324.172 20.2456 324.172 19.0162C324.172 16.8951 324.862 15.8189 326.219 15.8189C326.597 15.8189 327.289 15.9214 327.685 16.6073C327.896 16.9726 328.002 17.4724 328.002 18.0942C328.002 19.5998 327.419 21.647 326.353 23.5757C326.542 24.1254 326.757 24.6572 326.994 25.1525C327.941 27.124 329.174 28.349 330.215 28.349C331.897 28.349 332.942 25.973 332.942 22.1476C332.942 17.0937 336.009 14.7392 338.082 14.7392C340.124 14.7392 341.083 15.9962 341.286 16.6073H339.914C339.9 16.5637 339.574 15.647 338.082 15.647C337.001 15.647 334.284 17.5802 334.284 22.1476C334.284 25.3913 333.577 29.2559 330.215 29.2559C328.109 29.2559 326.518 27.2942 325.5 24.9405C323.812 27.3316 321.344 29.2559 318.313 29.2559C315.198 29.2559 312.924 27.263 311.496 24.8345C309.564 27.2737 306.645 29.2559 302.975 29.2559C300.259 29.2559 298.075 28.1842 296.662 26.1574Z" fill="#D3D9E0"/>
<path d="M325.533 16.6094H326.905V13.3835H325.533V16.6094Z" fill="#D3D9E0"/>
<path d="M311.152 16.6094H312.524V13.3835H311.152V16.6094Z" fill="#D3D9E0"/>
<path d="M296.772 16.6094H298.144V13.3835H296.772V16.6094Z" fill="#D3D9E0"/>
<path d="M341.286 69.1211H339.914V16.6098H341.286V69.1211Z" fill="#D3D9E0"/>
<path d="M348.838 121.057C330.715 121.057 316.025 118.203 316.025 114.683C316.025 111.163 330.715 108.997 348.838 108.997C366.96 108.997 381.652 111.163 381.652 114.683C381.652 118.203 366.96 121.057 348.838 121.057Z" fill="#AFB5B9"/>
<path d="M358.101 50.9966C358.764 48.9538 354.439 47.916 352.303 47.516C350.166 47.116 343.827 46.5841 343.827 46.5841L343.272 48.8763C343.272 48.8763 348.479 51.4884 354.31 52.9013C354.908 53.0465 357.427 53.075 358.101 50.9966Z" fill="#FFA47C"/>
<path d="M344.12 46.5987L340.968 46.441C340.968 46.441 339.821 47.8094 339.719 48.1711C339.617 48.5337 339.787 50.1729 339.798 50.4107C339.809 50.6486 339.979 50.9426 340.092 50.9141C340.206 50.8856 340.338 49.976 341.343 49.6704C342.349 49.3649 343.201 49.2295 343.738 48.866C344.931 48.0597 344.12 46.5987 344.12 46.5987Z" fill="#9A9393"/>
<path d="M340.723 47.31L340.773 51.7207L341.409 51.7136L341.406 51.4971C341.406 51.4971 341.317 51.457 341.256 51.2824C341.196 51.1069 341.398 50.7933 341.396 50.6445C341.395 50.4958 341.364 47.8294 341.362 47.6673C341.361 47.5051 341.156 47.3047 340.723 47.31Z" fill="#1C5C92"/>
<path d="M340.092 47.6831C340.094 47.8452 340.124 50.5107 340.126 50.6595C340.127 50.8082 340.337 51.1174 340.28 51.2938C340.223 51.4702 340.136 51.512 340.136 51.512L340.138 51.7285L340.774 51.7214L340.723 47.3107C340.291 47.3151 340.091 47.5209 340.092 47.6831Z" fill="#1C5C92"/>
<path d="M340.819 55.7168L340.959 55.715L340.912 51.7186L340.773 51.7204L340.819 55.7168Z" fill="#596273"/>
<path d="M340.679 55.7188L340.819 55.7179L340.774 51.7214L340.633 51.7232L340.679 55.7188Z" fill="#7E908D"/>
<path d="M340.822 56.0391L340.99 56.0373L341.1 55.2293L340.809 54.8997L340.822 56.0391Z" fill="#596273"/>
<path d="M340.654 56.041L340.823 56.0392L340.809 54.8998L340.527 55.2357L340.654 56.041Z" fill="#7E908D"/>
<path d="M341.131 47.6208L341.022 47.7313L341.053 50.4742L341.165 50.582L341.272 50.4716L341.24 47.7286L341.131 47.6208Z" fill="#00233F"/>
<path d="M340.726 47.6247L340.618 47.7352L340.649 50.4781L340.76 50.5859L340.868 50.4755L340.836 47.7325L340.726 47.6247Z" fill="#00233F"/>
<path d="M340.312 47.6277L340.204 47.7382L340.235 50.482L340.346 50.5898L340.454 50.4794L340.422 47.7355L340.312 47.6277Z" fill="#00233F"/>
<path d="M342.645 47.2945C342.645 47.2945 341.178 47.854 341.156 48.1479C341.133 48.4419 340.72 50.0588 340.669 50.2406C340.618 50.4214 340.548 50.6638 341.095 50.3787C341.642 50.0927 341.763 49.3274 341.974 49.3061C342.185 49.2847 343.099 49.5778 343.784 49.1519C344.469 48.7261 344.483 48.0927 344.442 47.8344C344.402 47.576 343.076 46.8268 342.645 47.2945Z" fill="#9A9393"/>
<path d="M343.784 49.1526L347.142 50.5762L348.106 46.9851L343.956 46.5949L343.784 49.1526Z" fill="#9A9393"/>
<path d="M332.492 82.3691H327.983V78.3059H332.492V82.3691Z" fill="#535353"/>
<path d="M349.739 82.3691H345.23V78.3059H349.739V82.3691Z" fill="#535353"/>
<path d="M350.563 84.2441H325.186V82.3695H350.563V84.2441Z" fill="#A39D9D"/>
<path d="M326.076 84.2453V98.2344H334.161L349.074 84.2453H326.076Z" fill="#303030"/>
<path d="M337.575 114.416H326.076V102.241H337.575V114.416Z" fill="#535353"/>
<path d="M332.981 102.24H326.076V98.232H332.981V102.24Z" fill="#A39D9D"/>
<path d="M327.983 78.3059H332.492V79.858L329.529 82.3691H327.983V78.3059Z" fill="#424242"/>
<path d="M345.23 78.3059H349.739V79.858L346.776 82.3691H345.23V78.3059Z" fill="#424242"/>
<path d="M349.074 84.2441H326.076V86.4434H346.73L349.074 84.2441Z" fill="#1C1C1C"/>
<path d="M332.981 98.232H326.076V102.24H327.6L332.981 98.232Z" fill="#7F7F7F"/>
<path d="M344.455 115.342H323.33V114.416H344.455V115.342Z" fill="#191919"/>
<path d="M352.383 78.3066H325.027V77.3055H352.383V78.3066Z" fill="#191919"/>
<path d="M350.331 77.3066H327.536C326.73 77.3066 326.076 76.6527 326.076 75.8465H351.791C351.791 76.6527 351.138 77.3066 350.331 77.3066Z" fill="#303030"/>
<path d="M352.427 75.8457H324.485V60.1183C324.485 59.2212 325.212 58.4943 326.109 58.4943H350.802C351.699 58.4943 352.427 59.2212 352.427 60.1183V75.8457Z" fill="#B8B3B3"/>
<path d="M324.957 75.8457H352.427V65.2577H323.572V74.4604C323.572 75.2248 324.192 75.8457 324.957 75.8457Z" fill="#303030"/>
<path d="M339.489 55.0757H348.914V58.4922H339.489V55.0757Z" fill="#9A9393"/>
<path d="M346.282 61.1621H349.511C349.735 61.1621 349.919 60.9786 349.919 60.7541C349.919 60.5296 349.735 60.3461 349.511 60.3461H346.282C346.058 60.3461 345.874 60.5296 345.874 60.7541C345.874 60.9786 346.058 61.1621 346.282 61.1621Z" fill="#535353"/>
<path d="M340.676 61.1621H343.904C344.129 61.1621 344.312 60.9786 344.312 60.7541C344.312 60.5296 344.129 60.3461 343.904 60.3461H340.676C340.451 60.3461 340.268 60.5296 340.268 60.7541C340.268 60.9786 340.451 61.1621 340.676 61.1621Z" fill="#535353"/>
<path d="M335.069 61.1621H338.297C338.521 61.1621 338.706 60.9786 338.706 60.7541C338.706 60.5296 338.521 60.3461 338.297 60.3461H335.069C334.845 60.3461 334.66 60.5296 334.66 60.7541C334.66 60.9786 334.845 61.1621 335.069 61.1621Z" fill="#535353"/>
<path d="M329.462 61.1621H332.691C332.915 61.1621 333.1 60.9786 333.1 60.7541C333.1 60.5296 332.915 60.3461 332.691 60.3461H329.462C329.239 60.3461 329.054 60.5296 329.054 60.7541C329.054 60.9786 329.239 61.1621 329.462 61.1621Z" fill="#535353"/>
<path d="M324.485 63.1285H352.427V65.2559H324.485V63.1285Z" fill="#A39D9D"/>
<path d="M352.427 72.4631H323.572V74.423C323.572 75.2087 324.209 75.8457 324.994 75.8457H352.427V72.4631Z" fill="#191919"/>
<path d="M352.427 67.168H323.572V65.633H352.427V67.168Z" fill="#535353"/>
<path d="M344.5 65.4353C344.5 66.5498 343.597 67.4531 342.483 67.4531C341.369 67.4531 340.465 66.5498 340.465 65.4353C340.465 64.3217 341.369 63.4184 342.483 63.4184C343.597 63.4184 344.5 64.3217 344.5 65.4353Z" fill="#A39D9D"/>
<path d="M349.872 65.4353C349.872 66.5498 348.968 67.4531 347.854 67.4531C346.739 67.4531 345.836 66.5498 345.836 65.4353C345.836 64.3217 346.739 63.4184 347.854 63.4184C348.968 63.4184 349.872 64.3217 349.872 65.4353Z" fill="#A39D9D"/>
<path d="M347.854 78.6055C348.764 78.6055 349.51 77.8603 349.51 76.9501V65.3812C349.51 64.4708 348.764 63.7251 347.854 63.7251C346.944 63.7251 346.199 64.4708 346.199 65.3812V76.9501C346.199 77.8603 346.944 78.6055 347.854 78.6055Z" fill="#B8B3B3"/>
<path d="M342.483 78.6055C343.394 78.6055 344.139 77.8603 344.139 76.9501V65.3812C344.139 64.4708 343.394 63.7251 342.483 63.7251C341.572 63.7251 340.827 64.4708 340.827 65.3812V76.9501C340.827 77.8603 341.572 78.6055 342.483 78.6055Z" fill="#B8B3B3"/>
<path d="M333.757 65.4353C333.757 66.5498 332.854 67.4531 331.74 67.4531C330.625 67.4531 329.722 66.5498 329.722 65.4353C329.722 64.3217 330.625 63.4184 331.74 63.4184C332.854 63.4184 333.757 64.3217 333.757 65.4353Z" fill="#A39D9D"/>
<path d="M339.129 65.4353C339.129 66.5498 338.226 67.4531 337.111 67.4531C335.997 67.4531 335.093 66.5498 335.093 65.4353C335.093 64.3217 335.997 63.4184 337.111 63.4184C338.226 63.4184 339.129 64.3217 339.129 65.4353Z" fill="#A39D9D"/>
<path d="M337.111 78.6055C338.022 78.6055 338.767 77.8603 338.767 76.9501V65.3812C338.767 64.4708 338.022 63.7251 337.111 63.7251C336.201 63.7251 335.456 64.4708 335.456 65.3812V76.9501C335.456 77.8603 336.201 78.6055 337.111 78.6055Z" fill="#B8B3B3"/>
<path d="M331.74 78.6055C332.651 78.6055 333.395 77.8603 333.395 76.9501V65.3812C333.395 64.4708 332.651 63.7251 331.74 63.7251C330.829 63.7251 330.084 64.4708 330.084 65.3812V76.9501C330.084 77.8603 330.829 78.6055 331.74 78.6055Z" fill="#B8B3B3"/>
<path d="M351.791 59.7988H325.186V59.4933H351.791V59.7988Z" fill="#A39D9D"/>
<path d="M348.799 56.041H339.744C338.912 56.041 338.237 55.3666 338.237 54.5337V54.1488H350.306V54.5337C350.306 55.3666 349.631 56.041 348.799 56.041Z" fill="#535353"/>
<path d="M342.762 77.6582H342.894C343.295 77.6582 343.624 77.3304 343.624 76.9295V65.8818C343.624 65.4809 343.295 65.1531 342.894 65.1531H342.762C342.361 65.1531 342.033 65.4809 342.033 65.8818V76.9295C342.033 77.3304 342.361 77.6582 342.762 77.6582Z" fill="#D7D4D4"/>
<path d="M348.213 77.6582H348.346C348.747 77.6582 349.075 77.3304 349.075 76.9295V65.8818C349.075 65.4809 348.747 65.1531 348.346 65.1531H348.213C347.812 65.1531 347.484 65.4809 347.484 65.8818V76.9295C347.484 77.3304 347.812 77.6582 348.213 77.6582Z" fill="#D7D4D4"/>
<path d="M337.594 77.6582H337.727C338.128 77.6582 338.455 77.3304 338.455 76.9295V65.8818C338.455 65.4809 338.128 65.1531 337.727 65.1531H337.594C337.193 65.1531 336.865 65.4809 336.865 65.8818V76.9295C336.865 77.3304 337.193 77.6582 337.594 77.6582Z" fill="#D7D4D4"/>
<path d="M332.12 77.6582H332.253C332.653 77.6582 332.981 77.3304 332.981 76.9295V65.8818C332.981 65.4809 332.653 65.1531 332.253 65.1531H332.12C331.719 65.1531 331.391 65.4809 331.391 65.8818V76.9295C331.391 77.3304 331.719 77.6582 332.12 77.6582Z" fill="#D7D4D4"/>
<path d="M321.047 75.4121H323.088V66.5809H321.047V75.4121Z" fill="#191919"/>
<path d="M323.572 74.459H323.089V67.7303H323.572V74.459Z" fill="#191919"/>
<path d="M367.75 42.664C369.232 43.995 368.571 45.6172 367.168 46.9892C365.765 48.3602 357.141 53.8818 356.513 53.8079C355.884 53.733 354.015 51.5513 354.378 50.7156C354.742 49.8791 361.355 44.068 362.705 43.1406C364.054 42.2141 366.012 41.1041 367.75 42.664Z" fill="#FFA47C"/>
<path d="M366.046 42.5021C365.295 42.3935 362.18 43.026 361.149 44.0371C359.689 45.4714 356.688 47.9837 356.688 47.9837C356.688 47.9837 357.061 49.4865 358.304 50.7997C359.747 52.3222 361.194 52.6562 361.194 52.6562C361.194 52.6562 367.398 47.3422 367.981 45.7805C368.156 45.3137 368.129 42.805 366.046 42.5021Z" fill="#9A9393"/>
<path d="M370.07 34.9586C370.07 34.9586 370.317 40.6994 370.651 40.9782C371.689 41.8441 375.459 42.5755 376.165 44.082C377.02 45.9083 372.329 54.106 371.715 56.8161C371.102 59.5252 372.371 63.7239 372.78 66.3822C373.189 69.0406 364.828 72.2539 364.521 72.2539C364.215 72.2539 361.524 69.7381 361.013 68.8695C360.502 68 361.009 61.1867 361.009 59.4486C361.009 57.7105 360.607 51.6196 360.528 51.2214C360.006 48.5613 360.692 46.4624 360.795 45.9003C360.897 45.3381 360.867 44.3974 361.149 44.0375C361.711 43.3221 364.838 42.3778 364.889 42.0205C364.94 41.6624 365.367 36.6789 365.367 36.6789L370.07 34.9586Z" fill="#FFBD95"/>
<path d="M370.651 40.979L365.611 43.9848L364.889 42.0213C364.889 42.0213 361.579 43.3237 361.149 44.0382C360.721 44.7536 360.516 46.3064 360.374 46.8828C360.233 47.4591 360.149 50.1193 360.374 52.4257C360.506 53.7754 360.471 55.5589 360.676 57.8573C360.851 59.8253 360.634 64.7224 360.634 64.7224C360.634 64.7224 362.512 64.8008 365.425 64.66C368.795 64.497 372.198 63.9812 372.349 63.8573C373 63.3246 372.103 58.1014 372.22 57.5251C372.339 56.9487 376.484 46.9469 376.551 45.6364C376.618 44.326 375.947 43.4618 374.954 42.9683C373.962 42.4747 370.651 40.979 370.651 40.979Z" fill="#B8B3B3"/>
<path d="M374.46 42.7288C374.46 42.7288 377.743 44.5489 374.484 47.0647C373.077 48.1506 366.35 49.8344 365.083 50.2201C360.557 51.5974 367.528 61.633 368.064 62.3912C368.598 63.1484 368.59 64.1836 368.59 64.1836L372.032 63.9555C373.383 64.2228 372.239 57.4789 372.753 56.0803C373.268 54.6807 376.551 46.6905 376.551 45.6357C376.551 43.2945 374.46 42.7288 374.46 42.7288Z" fill="#A39D9D"/>
<path d="M365.179 38.8367L370.277 37.0077L370.399 40.0233L368.826 40.9766L365.179 38.8367Z" fill="#FFA47C"/>
<path d="M363.283 29.9243C364.392 28.5863 367.983 27.0041 370.153 29.2108C372.324 31.4166 371.855 33.9546 371.07 35.5929C370.459 36.8713 369.798 37.6232 368.402 38.4963C368.117 38.6744 365.434 39.5279 364.858 39.4156C364.464 39.3399 363.799 36.6415 363.69 36.6673C363.582 36.6932 363.255 36.572 363.208 36.352C363.141 36.0312 363.22 34.0152 363.112 33.8183C363.004 33.6214 362.013 31.4575 363.283 29.9243Z" fill="#FFBD95"/>
<path d="M362.689 31.249C362.689 31.249 364.621 29.7817 367.555 31.7987C368.187 32.2325 367.427 34.5532 367.594 34.7269C367.774 34.9131 369.443 32.8508 369.403 33.1082C368.993 35.7292 370.009 37.0022 370.24 36.9862C370.944 36.9372 372.603 33.0895 371.143 30.3644C369.683 27.6383 366.565 27.7737 365.849 28.0285C365.133 28.2842 362.932 28.7528 362.689 31.249Z" fill="#8D3B26"/>
<path d="M368.254 33.8357C368.119 34.6705 368.153 35.7671 368.605 35.8366C369.056 35.9052 369.532 35.2843 369.668 34.4487C369.802 33.6139 369.546 32.8807 369.094 32.8121C368.642 32.7426 368.389 33.001 368.254 33.8357Z" fill="#FFBD95"/>
<path d="M364.894 113.293H368.154V112.685H364.894V113.293Z" fill="#191919"/>
<path d="M368.026 108.399C368.453 108.997 368.741 110.155 368.784 110.688C368.835 111.331 368.452 112.685 368.029 112.685C366.796 112.685 365.323 112.734 364.052 112.906C362.78 113.078 362.306 113.809 359.054 113.801C358.105 113.799 356.431 113.742 356.431 113.353C356.431 111.67 359.55 112.268 360.54 111.355C363.044 109.047 364.712 108.49 364.712 108.49C364.712 108.49 367.938 108.277 368.026 108.399Z" fill="#191919"/>
<path d="M369.267 114.416L372.52 114.212L372.479 113.585L369.226 113.789L369.267 114.416Z" fill="#191919"/>
<path d="M372.068 109.177C372.533 109.767 372.898 110.941 372.976 111.488C373.069 112.147 372.777 113.566 372.356 113.593C371.125 113.669 369.658 113.814 368.401 114.07C367.143 114.326 366.717 115.108 363.473 115.304C362.526 115.361 360.826 115.408 360.826 115.007C360.826 112.989 363.867 113.693 364.793 112.691C367.139 110.157 368.766 109.478 368.766 109.478C368.766 109.478 371.972 109.056 372.068 109.177Z" fill="#191919"/>
<path d="M366.535 64.3223C366.535 64.3223 370.821 68.3223 371.019 70.2145C371.218 72.1067 369.389 78.1627 368.742 82.9261C368.096 87.6897 367.695 88.6527 367.857 89.7778C368.018 90.9021 369.432 95.4598 369.251 98.4915C369.07 101.523 368.462 109.451 368.462 109.451C368.462 109.451 367.566 109.857 366.005 110.008C364.443 110.158 363.359 108.813 363.359 108.813C363.359 108.813 362.103 91.1009 361.904 89.2328C361.776 88.0228 360.787 79.6783 360.484 72.8755C360.387 70.6866 360.635 65.6265 360.634 64.7214L366.535 64.3223Z" fill="#EDA006"/>
<path d="M372.629 63.9161C372.629 63.9161 373.709 66.7455 373.677 69.0929C373.651 70.9958 373.104 74.4871 372.457 79.2506C371.811 84.0139 371.748 88.4415 371.91 89.5669C372.071 90.6909 373.412 95.4546 373.395 98.4915C373.373 102.06 373.678 110.273 373.678 110.273C373.678 110.273 372.265 110.737 370.702 110.888C369.141 111.038 367.058 110.581 367.058 110.581C367.058 110.581 365.575 91.728 364.872 89.9828C363.747 87.1963 363.577 78.4185 362.8 72.4345C362.485 70.0203 361.903 64.6314 361.903 64.6314L372.629 63.9161Z" fill="#F4B80F"/>
<path d="M370.702 63.4082L372.91 55.6728C372.91 55.6728 373.671 62.561 372.723 63.2728C371.774 63.9855 370.702 63.4082 370.702 63.4082Z" fill="#EDA006"/>
<path d="M365.834 42.7915L365.611 43.9844L368.267 42.4173L365.834 42.7915Z" fill="#A39D9D"/>
<path d="M371.344 41.2866L370.399 40.0242L365.834 42.7904L366.556 44.418L371.344 41.2866Z" fill="#D7D4D4"/>
<path d="M365.611 43.9844L365.193 42.5029L364.554 43.0009L365.611 43.9844Z" fill="#A39D9D"/>
<path d="M365.193 42.5032L364.107 43.7441L363.941 42.4176L364.849 41.549L365.193 42.5032Z" fill="#CFCCCC"/>
<path d="M360.666 63.9173C359.046 62.2434 360.235 48.7797 360.235 48.7797L367.184 49.3116L368.657 63.5049C368.657 63.5049 362.306 65.6109 360.666 63.9173Z" fill="#EDA006"/>
<path d="M360.41 63.5028L360.622 65.3228C360.622 65.3228 364.906 65.6248 368.951 65.3228C372.995 65.0217 372.91 64.742 372.91 64.742L372.723 63.2729C372.723 63.2729 371.488 63.3914 368.657 63.5028C365.906 63.6114 360.41 63.5028 360.41 63.5028Z" fill="#004877"/>
<path d="M368.657 63.5021L369.628 69.5137L370.702 63.4077L368.657 63.5021Z" fill="#EDA006"/>
<path d="M367.184 49.3096C367.354 47.9938 369.398 42.4161 373.198 42.5016C373.592 42.5105 374.46 42.7279 374.46 42.7279L372.278 41.7167C372.278 41.7167 371.418 41.3791 369.703 42.645C367.988 43.91 365.937 46.8713 365.682 49.1947C365.428 51.5172 366.981 50.8864 367.184 49.3096Z" fill="#EDA006"/>
<path d="M360.236 48.778C360.236 48.778 360.568 43.9834 362.225 43.2431C362.934 42.9259 363.25 42.7281 363.25 42.7281C363.25 42.7281 362.018 45.0346 361.743 46.9535C361.468 48.8725 361.382 50.2373 360.753 50.2186C360.124 50.2007 360.236 48.778 360.236 48.778Z" fill="#EDA006"/>
<path d="M375.058 44.5558C376.448 45.9812 375.725 47.5322 374.287 48.7803C372.848 50.0275 362.867 55.713 362.255 55.5918C361.643 55.4707 359.914 53.1776 360.308 52.3794C360.704 51.5812 368.728 45.4582 370.093 44.6458C371.459 43.8324 373.429 42.8854 375.058 44.5558Z" fill="#FFBD95"/>
<path d="M374.966 43.5537C374.247 43.3122 371.596 43.4842 370.402 44.2966C368.71 45.4485 364.056 48.1452 364.056 48.1452C364.056 48.1452 364.155 49.6909 365.146 51.2027C366.295 52.9577 367.66 53.543 367.66 53.543C367.66 53.543 374.709 49.4165 375.561 47.9831C375.815 47.5546 376.962 44.2209 374.966 43.5537Z" fill="#CFCCCC"/>
<path d="M363.564 53.9276C363.903 56.0675 359.424 56.3864 357.229 56.4327C355.034 56.4781 348.625 55.9632 348.625 55.9632L348.433 53.5926C348.433 53.5926 354.041 51.8536 360.082 51.4091C360.702 51.3637 363.22 51.7503 363.564 53.9276Z" fill="#FFBD95"/>
<path d="M344.469 56.751L344.469 56.7492C344.411 56.5265 344.544 56.2957 344.767 56.236L346.504 55.7719C346.729 55.7113 346.96 55.8458 347.019 56.0703L347.02 56.073C347.078 56.2957 346.944 56.5265 346.722 56.5861L344.984 57.0503C344.76 57.11 344.528 56.9754 344.469 56.751Z" fill="#B8B3B3"/>
<path d="M344.195 56.0088V56.007C344.136 55.7843 344.269 55.5535 344.492 55.4938L346.229 55.0297C346.454 54.9691 346.685 55.1037 346.744 55.3281L346.745 55.3308C346.804 55.5535 346.669 55.7843 346.447 55.844L344.709 56.3081C344.486 56.3678 344.254 56.2333 344.195 56.0088Z" fill="#B8B3B3"/>
<path d="M343.971 55.273L343.97 55.2703C343.912 55.0476 344.046 54.8169 344.268 54.7572L346.006 54.293C346.23 54.2333 346.462 54.3678 346.521 54.5923L346.522 54.5941C346.579 54.8168 346.446 55.0476 346.223 55.1073L344.486 55.5714C344.261 55.632 344.03 55.4975 343.971 55.273Z" fill="#B8B3B3"/>
<path d="M343.822 54.54V54.5382C343.763 54.3155 343.897 54.0848 344.12 54.0251L345.857 53.561C346.081 53.5004 346.313 53.6349 346.372 53.8594L346.373 53.8621C346.431 54.0848 346.297 54.3155 346.074 54.3752L344.337 54.8394C344.113 54.899 343.881 54.7645 343.822 54.54Z" fill="#B8B3B3"/>
<path d="M350.088 53.4294C350.088 53.4294 347.148 52.9653 346.574 53.0445C345.998 53.1247 343.956 54.1154 343.956 54.1154C343.956 54.1154 344.816 54.6695 344.878 55.1862C344.942 55.702 344.982 57.0508 344.982 57.0508C344.982 57.0508 346.954 57.049 347.825 56.7586C348.695 56.4673 349.485 55.9808 349.485 55.9808L350.088 53.4294Z" fill="#B8B3B3"/>
<path d="M348.873 53.2521L352.279 52.6053L352.427 56.2383L349.175 56.0423L348.873 53.2521Z" fill="#B8B3B3"/>
<path d="M371.468 30.9068C371.468 30.9068 370.538 27.0485 366.463 27.5625C362.387 28.0774 362.455 32.3108 362.455 32.3108C362.455 32.3108 364.699 32.4872 367.725 32.1059C370.751 31.7237 371.468 30.9068 371.468 30.9068Z" fill="#EDA006"/>
<path d="M369.051 31.8848C369.051 31.8848 361.202 34.0852 361.084 34.0282C360.966 33.9703 360.438 33.6238 360.196 33.5427C359.955 33.4616 359.646 33.7387 359.559 33.5988C359.474 33.4589 362.473 31.948 362.473 31.948C362.473 31.948 364.172 32.128 365.011 32.193C365.85 32.2581 369.004 31.6166 369.051 31.8848Z" fill="#004877"/>
<path d="M195.909 135.92C127.788 135.92 72.5645 131.017 72.5645 124.97C72.5645 118.921 127.788 114.019 195.909 114.019C197.081 114.019 198.244 114.021 199.409 114.023C199.947 118.325 201.571 129.76 202.451 135.919C200.284 135.92 198.104 135.92 195.909 135.92ZM209.959 135.915C209.738 132.186 209.375 126.338 209.077 122.765C208.817 119.671 208.481 116.551 208.2 114.073C208.358 114.074 208.525 114.076 208.684 114.077L208.72 114.376C208.823 115.206 209.274 115.91 209.909 116.361C210.338 116.691 210.85 116.888 211.389 116.907L211.393 116.937L211.748 116.892C211.755 116.891 211.762 116.891 211.769 116.89L215.335 116.45L215.665 116.41L218.678 116.039C218.702 116.036 218.725 116.032 218.748 116.029V116.03L219.121 115.983L219.116 115.943C219.658 115.771 220.121 115.417 220.456 114.948C220.619 114.733 220.753 114.496 220.852 114.243C277.017 115.267 319.253 119.68 319.253 124.97C319.253 135.156 271.462 135.867 209.959 135.915Z" fill="#AFB5B9"/>
<path d="M197.148 152.098C177.11 152.098 160.867 148.403 160.867 143.845C160.867 139.287 177.11 136.482 197.148 136.482C198.982 136.482 200.782 136.506 202.542 136.552C202.842 138.644 203.034 139.984 203.034 139.984L210.162 139.413C210.162 139.413 210.107 138.43 210.017 136.901C223.703 137.841 233.431 140.318 233.431 143.845C233.431 148.403 217.186 152.098 197.148 152.098Z" fill="#AFB5B9"/>
<path d="M36.2823 109.91C16.2441 109.91 0 107.762 0 105.112C0 102.463 16.2441 100.315 36.2823 100.315C37.4697 100.315 38.6455 100.322 39.8037 100.337V105.14H46.0021V102.506V100.489C61.3203 101.051 72.5643 102.908 72.5643 105.112C72.5643 107.762 56.3203 109.91 36.2823 109.91Z" fill="#AFB5B9"/>
<path d="M87.8026 41.6907C86.1037 43.2168 86.8601 45.0769 88.469 46.6493C90.0779 48.2217 100.674 54.9878 101.586 55.386C102.252 55.6765 104.188 52.0016 103.647 51.1081C103.044 50.1121 95.1336 43.3005 93.5861 42.2377C92.0396 41.1749 89.7937 39.9028 87.8026 41.6907Z" fill="#FFA47C"/>
<path d="M89.7554 41.5075C90.6169 41.3827 94.1883 42.107 95.3696 43.2678C97.0436 44.9115 100.484 47.7917 100.484 47.7917C100.484 47.7917 100.057 49.5155 98.6311 51.0202C96.9777 52.7654 95.3189 53.1484 95.3189 53.1484C95.3189 53.1484 88.2062 47.0567 87.5371 45.266C87.3376 44.7306 87.3679 41.8549 89.7554 41.5075Z" fill="#9A9393"/>
<path d="M85.1435 32.8582C85.1435 32.8582 84.8593 39.4408 84.4762 39.7598C83.286 40.7522 78.9635 41.5914 78.1547 43.3188C77.1741 45.4123 82.5528 54.811 83.2566 57.9174C83.9595 61.0239 82.5056 65.8364 82.0361 68.884C81.5675 71.9326 91.1524 75.6172 91.5043 75.6172C91.8553 75.6172 94.9394 72.7326 95.5256 71.7366C96.1118 70.7397 95.531 62.9286 95.531 60.9357C95.531 58.9428 95.9916 51.9602 96.0815 51.5032C96.6802 48.4529 95.8936 46.0475 95.7769 45.4034C95.6593 44.7584 95.694 43.6796 95.3697 43.268C94.7247 42.4475 91.1408 41.3651 91.082 40.9544C91.0232 40.5437 90.535 34.8315 90.535 34.8315L85.1435 32.8582Z" fill="#FFBD95"/>
<path d="M84.4761 39.7596L90.2552 43.2064L91.0819 40.9543C91.0819 40.9543 94.8779 42.4474 95.3696 43.2678C95.8614 44.0874 96.0966 45.8674 96.2587 46.5275C96.4209 47.1886 96.5162 50.2389 96.2587 52.883C96.1073 54.4304 96.1465 56.475 95.9122 59.1102C95.7117 61.3667 95.9603 66.981 95.9603 66.981C95.9603 66.981 93.8071 67.0709 90.469 66.9088C86.6044 66.7217 82.7033 66.1311 82.5296 65.9885C81.7839 65.3783 82.8129 59.3899 82.6774 58.7289C82.542 58.0678 77.7893 46.6024 77.7124 45.0995C77.635 43.5966 78.4048 42.6068 79.5425 42.0402C80.6804 41.4745 84.4761 39.7596 84.4761 39.7596Z" fill="#B8B3B3"/>
<path d="M80.1092 41.7664C80.1092 41.7664 76.3453 43.8528 80.0817 46.7375C81.6953 47.9829 89.4084 49.9125 90.8605 50.3544C96.0489 51.9339 88.056 63.4403 87.4431 64.3081C86.8293 65.1767 86.8391 66.3633 86.8391 66.3633L82.8935 66.1023C81.3443 66.4087 82.6556 58.6769 82.0659 57.0733C81.4761 55.4689 77.7119 46.3081 77.7119 45.0992C77.7119 42.415 80.1092 41.7664 80.1092 41.7664Z" fill="#A39D9D"/>
<path d="M90.7486 37.3063L84.9045 35.2101L84.7646 38.6667L86.5678 39.7598L90.7486 37.3063Z" fill="#FFA47C"/>
<path d="M92.9235 27.0891C91.6522 25.555 87.5356 23.7412 85.0474 26.2704C82.5592 28.7995 83.0964 31.7091 83.9952 33.588C84.6972 35.0534 85.4554 35.9149 87.0554 36.9162C87.3814 37.1202 90.4585 38.0984 91.1186 37.971C91.5694 37.8837 92.3329 34.7897 92.4567 34.82C92.5805 34.8494 92.9556 34.7104 93.009 34.4583C93.0874 34.0913 92.9966 31.7795 93.1204 31.5541C93.2433 31.3278 94.3801 28.8468 92.9235 27.0891Z" fill="#FFBD95"/>
<path d="M93.6041 28.6061C93.6041 28.6061 91.3903 26.9233 88.0255 29.236C87.3012 29.734 88.1725 32.3941 87.981 32.5937C87.7752 32.8075 85.8616 30.4422 85.9079 30.7371C86.3765 33.742 85.213 35.2021 84.9467 35.1834C84.1396 35.1273 82.2384 30.7166 83.9124 27.5914C85.5863 24.4663 89.1614 24.6222 89.9819 24.9144C90.8023 25.2066 93.3262 25.7447 93.6041 28.6061Z" fill="#8D3B26"/>
<path d="M87.2244 31.5732C87.3785 32.5308 87.3393 33.7879 86.8217 33.8671C86.3041 33.9455 85.7589 33.2337 85.6039 32.2761C85.4489 31.3184 85.7428 30.4783 86.2613 30.399C86.7789 30.3206 87.0693 30.6155 87.2244 31.5732Z" fill="#FFBD95"/>
<path d="M91.077 122.668H87.3398V121.971H91.077V122.668Z" fill="#191919"/>
<path d="M87.4864 117.057C86.9974 117.743 86.666 119.07 86.617 119.681C86.5591 120.418 86.9983 121.971 87.482 121.971C88.8949 121.971 90.5849 122.028 92.0423 122.224C93.4998 122.42 94.0441 123.259 97.7715 123.25C98.8593 123.247 100.778 123.182 100.778 122.737C100.778 120.806 97.2031 121.492 96.0682 120.446C93.1978 117.8 91.2851 117.161 91.2851 117.161C91.2851 117.161 87.5871 116.917 87.4864 117.057Z" fill="#191919"/>
<path d="M86.0636 123.955L82.3335 123.721L82.3798 123.003L86.1099 123.236L86.0636 123.955Z" fill="#191919"/>
<path d="M82.8524 117.948C82.3188 118.624 81.9001 119.971 81.811 120.597C81.7041 121.353 82.039 122.98 82.5228 123.011C83.933 123.099 85.615 123.264 87.0564 123.557C88.4978 123.851 88.986 124.749 92.7063 124.972C93.7922 125.038 95.7415 125.092 95.7415 124.631C95.7415 122.318 92.2555 123.126 91.1927 121.976C88.5032 119.071 86.6377 118.293 86.6377 118.293C86.6377 118.293 82.9629 117.809 82.8524 117.948Z" fill="#191919"/>
<path d="M89.196 66.5246C89.196 66.5246 84.282 71.1099 84.0548 73.2792C83.8268 75.4485 85.923 82.3921 86.6651 87.8528C87.4063 93.3138 87.866 94.4188 87.6807 95.7077C87.4954 96.9967 85.8749 102.222 86.0816 105.698C86.2891 109.173 86.9858 118.263 86.9858 118.263C86.9858 118.263 88.013 118.729 89.8036 118.901C91.5942 119.074 92.837 117.531 92.837 117.531C92.837 117.531 94.2775 97.225 94.5047 95.0824C94.6517 93.6959 95.7858 84.1292 96.1332 76.3304C96.2446 73.8208 95.9595 68.0195 95.9604 66.9817L89.196 66.5246Z" fill="#EDA006"/>
<path d="M82.2082 66.0588C82.2082 66.0588 80.9717 69.3034 81.0082 71.9947C81.0376 74.1755 81.6648 78.1792 82.406 83.6403C83.1481 89.1003 83.2193 94.1772 83.034 95.4665C82.8487 96.7562 81.3111 102.217 81.3316 105.699C81.3556 109.79 81.0073 119.206 81.0073 119.206C81.0073 119.206 82.6269 119.738 84.4176 119.911C86.2082 120.083 88.5966 119.558 88.5966 119.558C88.5966 119.558 90.2955 97.9446 91.1035 95.9439C92.3917 92.7483 92.5868 82.6861 93.4786 75.8254C93.8385 73.0575 94.5057 66.8793 94.5057 66.8793L82.2082 66.0588Z" fill="#F4B80F"/>
<path d="M84.4172 65.4779L81.8871 56.6094C81.8871 56.6094 81.0141 64.5051 82.1018 65.322C83.1887 66.139 84.4172 65.4779 84.4172 65.4779Z" fill="#F4B80F"/>
<path d="M89.9989 41.8406L90.2554 43.209L87.2104 41.4112L89.9989 41.8406Z" fill="#A39D9D"/>
<path d="M83.6816 40.1149L84.7649 38.6672L89.9988 41.8387L89.1712 43.7051L83.6816 40.1149Z" fill="#D7D4D4"/>
<path d="M90.2549 43.209L90.7333 41.5101L91.4656 42.0811L90.2549 43.209Z" fill="#A39D9D"/>
<path d="M90.7334 41.507L91.9788 42.9297L92.1695 41.4081L91.128 40.413L90.7334 41.507Z" fill="#CFCCCC"/>
<path d="M95.9235 66.0587C97.781 64.1398 96.4179 48.7037 96.4179 48.7037L88.4509 49.314L86.7627 65.5866C86.7627 65.5866 94.0438 68.0008 95.9235 66.0587Z" fill="#EDA006"/>
<path d="M96.2183 65.5861L95.9751 67.6725C95.9751 67.6725 91.0629 68.0182 86.4259 67.6725C81.7899 67.3269 81.8879 67.0071 81.8879 67.0071L82.1026 65.3224C82.1026 65.3224 83.5172 65.4587 86.7636 65.5861C89.9172 65.71 96.2183 65.5861 96.2183 65.5861Z" fill="#004877"/>
<path d="M86.7631 65.5848L85.6495 72.4766L84.4175 65.477L86.7631 65.5848Z" fill="#EDA006"/>
<path d="M88.4513 49.3136C88.2562 47.8054 85.9123 41.4098 81.556 41.5087C81.1052 41.5194 80.1099 41.768 80.1099 41.768L82.6108 40.6089C82.6108 40.6089 83.597 40.2214 85.5631 41.6726C87.5284 43.1239 89.8821 46.519 90.1725 49.1818C90.4638 51.8446 88.6838 51.1221 88.4513 49.3136Z" fill="#EDA006"/>
<path d="M96.4179 48.7027C96.4179 48.7027 96.0366 43.2069 94.1373 42.357C93.3239 41.9936 92.9604 41.7673 92.9604 41.7673C92.9604 41.7673 94.3734 44.4123 94.6896 46.6118C95.005 48.8114 95.103 50.3766 95.8237 50.3553C96.5453 50.3339 96.4179 48.7027 96.4179 48.7027Z" fill="#EDA006"/>
<path d="M79.5519 43.7877C77.3446 44.3703 77.1413 46.3213 77.8213 48.3961C78.5009 50.4709 84.967 61.9427 85.6414 62.1841C86.3149 62.4264 89.3661 61.189 89.4481 60.1716C89.5292 59.1542 85.245 48.405 84.3817 46.8006C83.5176 45.197 82.1376 43.1044 79.5519 43.7877Z" fill="#FFBD95"/>
<path d="M80.2327 42.5306C81.0821 42.7177 83.5881 44.4478 84.2839 45.9507C85.2683 48.0807 88.2571 53.4749 88.2571 53.4749C88.2571 53.4749 87.2487 54.936 85.3841 55.8402C83.2193 56.8887 81.532 56.6607 81.532 56.6607C81.532 56.6607 77.0311 48.4487 77.0381 46.5369C77.0402 45.9658 77.8761 42.0113 80.2327 42.5306Z" fill="#B8B3B3"/>
<path d="M85.3458 60.6169C84.1984 62.8191 89.0304 64.836 91.4393 65.7046C93.8473 66.5723 101.113 68.4004 101.113 68.4004L102.183 65.8926C102.183 65.8926 96.617 61.9095 90.1039 59.1746C89.4358 58.8939 86.5146 58.3755 85.3458 60.6169Z" fill="#FFBD95"/>
<path d="M101.83 65.3613L98.3637 63.4183L96.8804 67.3141L100.487 68.2852L101.83 65.3613Z" fill="#B8B3B3"/>
<path d="M100.06 52.772C99.1043 54.642 103.819 56.8166 106.219 57.5765C108.619 58.3373 115.834 59.8438 115.834 59.8438L116.812 57.2976C116.812 57.2976 110.982 53.7823 104.374 51.0375C103.424 50.6429 101.473 50.0095 100.06 52.772Z" fill="#FFA47C"/>
<path d="M120.15 62.0512L120.151 62.0485C120.289 61.8222 120.215 61.5256 119.99 61.3875L118.23 60.3149C118.002 60.1768 117.703 60.2499 117.566 60.4779L117.564 60.4797C117.428 60.706 117.501 61.0026 117.726 61.1407L119.487 62.2133C119.714 62.3514 120.012 62.2784 120.15 62.0512Z" fill="#A39D9D"/>
<path d="M120.693 61.3238L120.694 61.322C120.83 61.0957 120.758 60.7991 120.532 60.661L118.771 59.5884C118.544 59.4503 118.246 59.5233 118.109 59.7505L118.107 59.7532C117.97 59.9795 118.043 60.2761 118.269 60.4133L120.029 61.4868C120.256 61.6249 120.555 61.5518 120.693 61.3238Z" fill="#A39D9D"/>
<path d="M121.177 60.5855L121.178 60.5837C121.315 60.3574 121.241 60.0608 121.016 59.9227L119.256 58.8501C119.029 58.712 118.73 58.7851 118.593 59.0122L118.591 59.0149C118.455 59.2403 118.528 59.5378 118.753 59.675L120.514 60.7485C120.741 60.8866 121.039 60.8136 121.177 60.5855Z" fill="#A39D9D"/>
<path d="M121.577 59.8299L121.578 59.8281C121.714 59.6018 121.642 59.3043 121.416 59.1671L119.656 58.0945C119.428 57.9555 119.13 58.0286 118.993 58.2566L118.991 58.2584C118.855 58.4847 118.928 58.7822 119.153 58.9194L120.914 59.992C121.141 60.131 121.439 60.058 121.577 59.8299Z" fill="#A39D9D"/>
<path d="M115.045 56.5801C115.045 56.5801 118.427 57.0202 119.035 57.2937C119.642 57.5672 121.568 59.3177 121.568 59.3177C121.568 59.3177 120.443 59.6491 120.207 60.197C119.97 60.7449 119.489 62.2148 119.489 62.2148C119.489 62.2148 117.321 61.5752 116.457 60.9739C115.594 60.3725 114.882 59.5814 114.882 59.5814L115.045 56.5801Z" fill="#A39D9D"/>
<path d="M116.438 56.777L112.901 54.9641L111.564 58.9124L115.204 59.748L116.438 56.777Z" fill="#A39D9D"/>
<path d="M83.541 28.2127C83.541 28.2127 84.6065 23.7895 89.2791 24.3793C93.9508 24.969 93.8733 29.8225 93.8733 29.8225C93.8733 29.8225 91.3014 30.0247 87.8314 29.5873C84.3624 29.1499 83.541 28.2127 83.541 28.2127Z" fill="#EDA006"/>
<path d="M86.3115 29.3347C86.3115 29.3347 95.3102 31.8576 95.4447 31.7917C95.5801 31.7258 96.1859 31.3284 96.463 31.2358C96.74 31.1431 97.0946 31.4603 97.1926 31.2999C97.2915 31.1396 93.8527 29.4077 93.8527 29.4077C93.8527 29.4077 91.9044 29.6135 90.9431 29.6884C89.9819 29.7632 86.365 29.0273 86.3115 29.3347Z" fill="#004877"/>
<path d="M99.9131 68.097C99.9131 68.097 101.42 69.4083 102.604 68.5914C103.787 67.7745 104.39 66.2208 104.595 65.8546C105.439 64.3455 107.289 63.4725 107.931 62.6377C108.572 61.803 108.216 61.3771 107.91 61.6052C106.188 62.8845 104.844 63.1696 104.138 63.8226C103.432 64.4747 100.325 66.2083 100.325 66.2083L99.9131 68.097Z" fill="#B8B3B3"/>
<path d="M141.653 48.9748H148.504V57.0479L133.632 61.627L141.653 48.9748Z" fill="#807D79"/>
<path d="M150.773 62.041H148.337V33.4691H150.773V62.041Z" fill="#00233F"/>
<path d="M148.337 41.3418H147.501L148.047 33.4692H148.337V41.3418Z" fill="#65635E"/>
<path d="M147.243 47.707L145.907 47.6304L147.364 23.0781L148.7 23.1583L147.243 47.707Z" fill="#807D79"/>
<path d="M146.466 47.6055L146.008 47.5761L147.46 23.12L147.92 23.1485L146.466 47.6055Z" fill="url(#paint0_linear)"/>
<path d="M144.2 48.9723H148.503V57.0454L137.245 60.5117L144.2 48.9723Z" fill="#002D56"/>
<path d="M113.685 125.014H148.504V57.0441L113.685 67.7648V125.014Z" fill="#002D56"/>
<path d="M148.504 48.9735V101.426L113.685 114.484V108.762C113.685 108.762 131.432 104.483 137.856 90.1157C144.281 75.7477 145.996 48.9735 145.996 48.9735H148.504Z" fill="#00233F"/>
<path d="M144.215 80.7202C144.215 91.5177 135.463 100.27 124.665 100.27C113.868 100.27 105.115 91.5177 105.115 80.7202C105.115 69.923 113.868 61.1702 124.665 61.1702C135.463 61.1702 144.215 69.923 144.215 80.7202Z" fill="#191919"/>
<path d="M139.429 80.4866C139.429 88.6398 132.82 95.25 124.666 95.25C116.512 95.25 109.902 88.6398 109.902 80.4866C109.902 72.3324 116.512 65.7222 124.666 65.7222C132.82 65.7222 139.429 72.3324 139.429 80.4866Z" fill="black"/>
<path d="M138.282 80.7258C138.282 88.2456 132.186 94.3418 124.666 94.3418C117.146 94.3418 111.05 88.2456 111.05 80.7258C111.05 73.206 117.146 67.1098 124.666 67.1098C132.186 67.1098 138.282 73.206 138.282 80.7258Z" fill="#46676C"/>
<path d="M124.666 91.0525C118.867 91.0525 114.165 86.3507 114.165 80.551C114.165 74.7515 118.867 70.0504 124.666 70.0504C130.466 70.0504 135.168 74.7515 135.168 80.551C135.168 86.3507 130.466 91.0525 124.666 91.0525ZM124.666 66.8397C116.996 66.8397 110.778 73.057 110.778 80.7274C110.778 88.398 116.996 94.6152 124.666 94.6152C132.336 94.6152 138.554 88.398 138.554 80.7274C138.554 73.057 132.336 66.8397 124.666 66.8397Z" fill="url(#paint1_linear)"/>
<path d="M124.667 66.8224C127.655 66.8562 126.457 78.6415 126.457 78.6415C126.457 78.6415 136.864 73.6286 137.801 76.3654C138.746 79.1297 127.336 81.5643 127.336 81.5643C127.336 81.5643 135.099 90.0589 132.783 91.8058C130.454 93.5635 124.38 83.7007 124.38 83.7007C124.38 83.7007 118.846 93.4372 116.549 91.8058C114.258 90.1783 121.609 81.7658 121.609 81.7658C121.609 81.7658 110.595 79.0657 111.532 76.3654C112.458 73.6963 122.659 78.3412 122.659 78.3412C122.659 78.3412 121.744 66.7903 124.667 66.8224Z" fill="url(#paint2_linear)"/>
<path d="M129.419 80.7279C129.419 83.3525 127.291 85.4805 124.666 85.4805C122.042 85.4805 119.914 83.3525 119.914 80.7279C119.914 78.1033 122.042 75.9751 124.666 75.9751C127.291 75.9751 129.419 78.1033 129.419 80.7279Z" fill="url(#paint3_linear)"/>
<path d="M123.464 78.0362C123.464 78.4754 123.109 78.8301 122.67 78.8301C122.232 78.8301 121.876 78.4754 121.876 78.0362C121.876 77.598 122.232 77.2426 122.67 77.2426C123.109 77.2426 123.464 77.598 123.464 78.0362Z" fill="#46676C"/>
<path d="M127.563 78.0362C127.563 78.4754 127.208 78.8301 126.769 78.8301C126.33 78.8301 125.976 78.4754 125.976 78.0362C125.976 77.598 126.33 77.2426 126.769 77.2426C127.208 77.2426 127.563 77.598 127.563 78.0362Z" fill="#46676C"/>
<path d="M128.701 81.5968C128.701 82.0353 128.345 82.3906 127.907 82.3906C127.469 82.3906 127.113 82.0353 127.113 81.5968C127.113 81.1586 127.469 80.803 127.907 80.803C128.345 80.803 128.701 81.1586 128.701 81.5968Z" fill="#46676C"/>
<path d="M122.218 81.5968C122.218 82.0353 121.863 82.3906 121.425 82.3906C120.986 82.3906 120.631 82.0353 120.631 81.5968C120.631 81.1586 120.986 80.803 121.425 80.803C121.863 80.803 122.218 81.1586 122.218 81.5968Z" fill="#46676C"/>
<path d="M125.338 84.0147C125.338 84.4529 124.983 84.8086 124.544 84.8086C124.106 84.8086 123.75 84.4529 123.75 84.0147C123.75 83.5763 124.106 83.221 124.544 83.221C124.983 83.221 125.338 83.5763 125.338 84.0147Z" fill="#46676C"/>
<path d="M140.99 106.905C148.811 102.277 154.059 93.7615 154.059 84.0155C154.059 69.3349 142.157 57.4329 127.476 57.4329C113.992 57.4329 102.861 67.4747 101.133 80.4868H98.4849C100.229 66.02 112.539 54.8048 127.476 54.8048C143.608 54.8048 156.686 67.8837 156.686 84.0155C156.686 95.2707 150.317 105.033 140.99 109.91V106.905Z" fill="#3D3D3D"/>
<path d="M106.504 125.014H150.898V96.6583L106.504 117.921V125.014Z" fill="#AFB5B9"/>
<path d="M156.19 81.6543H98.0371V79.7828H156.19V81.6543Z" fill="#CFCCCC"/>
<path d="M128.675 83.2037L155.306 88.5215L155.925 85.4281L129.292 80.1108L128.675 83.2037Z" fill="#9A9393"/>
<path d="M124.666 80.487L129.292 80.1102L128.675 83.2031L124.544 81.0714L124.666 80.487Z" fill="#191919"/>
<path d="M126.919 80.7276C126.919 81.972 125.91 82.9805 124.666 82.9805C123.422 82.9805 122.413 81.972 122.413 80.7276C122.413 79.4832 123.422 78.4746 124.666 78.4746C125.91 78.4746 126.919 79.4832 126.919 80.7276Z" fill="#191919"/>
<path d="M157.202 87.0615C157.202 88.3059 156.194 89.3145 154.95 89.3145C153.706 89.3145 152.697 88.3059 152.697 87.0615C152.697 85.8178 153.706 84.8086 154.95 84.8086C156.194 84.8086 157.202 85.8178 157.202 87.0615Z" fill="#191919"/>
<path d="M101.786 82.9805H98.0371V78.83H101.786V82.9805Z" fill="#191919"/>
<path d="M157.202 83.7568L153.571 84.2715L152.463 76.4587L156.095 75.9437L157.202 83.7568Z" fill="#191919"/>
<path d="M275.889 55.9956C274.675 53.7132 270.315 56.6717 268.18 58.1862C266.046 59.7007 259.561 64.8125 259.561 64.8125L261.33 66.6602C261.33 66.6602 268.215 64.6566 274.365 60.8704C275.81 59.9804 277.124 58.3181 275.889 55.9956Z" fill="#FFA47C"/>
<path d="M286.913 45.6099C288.845 47.0317 288.243 49.0531 286.723 50.8607C285.202 52.6674 275.515 60.2905 274.753 60.2754C273.991 60.2593 271.498 57.8638 271.835 56.8197C272.173 55.7747 279.417 48.0402 280.925 46.7716C282.433 45.503 284.651 43.9449 286.913 45.6099Z" fill="#FFA47C"/>
<path d="M283.355 43.7927C282.442 43.749 281.488 45.4051 280.372 46.7379C278.79 48.6265 274.284 53.2768 274.284 53.2768C274.284 53.2768 274.905 55.0336 276.548 56.4608C278.455 58.1169 280.228 58.3477 280.228 58.3477C280.228 58.3477 287.039 51.2564 287.556 49.3169C287.71 48.737 285.885 43.912 283.355 43.7927Z" fill="#9A9393"/>
<path d="M284.79 33.1391C284.79 33.1391 288.286 38.9261 288.618 39.3306C289.85 40.8388 290.677 40.5769 292.241 41.8286C294.135 43.3466 298.593 51.482 300.699 56.813C301.927 59.923 303.57 67.3395 303.332 70.5689C303.015 74.886 296.016 75.9159 295.685 76.0789C295.354 76.2419 292.664 74.1457 291.649 73.4784C290.636 72.8121 291.134 65.5568 290.21 63.6798C289.286 61.8018 283.426 56.1644 283.13 55.776C281.151 53.1791 280.777 50.5484 280.588 49.8865C280.4 49.2255 279.868 48.225 279.982 47.6869C280.209 46.6143 283.084 43.9328 282.948 43.5195C282.814 43.1052 280.625 37.4972 280.625 37.4972L284.79 33.1391Z" fill="#FFBD95"/>
<path d="M288.617 39.3306L283.921 45.1373L282.948 43.5195C282.948 43.5195 280.064 46.6856 279.981 47.6869C279.899 48.6874 280.502 50.4727 280.656 51.1702C280.809 51.8678 282.133 54.7854 283.602 57.1569C284.462 58.5448 286.822 59.8722 288.266 62.2464C289.501 64.2793 289.071 67.6905 289.071 67.6905C289.071 67.6905 292.1 67.1025 295.56 67.6869C299.733 68.3907 303.115 66.7987 303.213 66.5849C303.632 65.6637 300.622 55.7439 300.443 55.0589C300.265 54.3729 296.327 45.9488 295.434 44.6455C294.139 42.7551 292.569 40.797 290.432 40.1288C289.159 39.7306 288.617 39.3306 288.617 39.3306Z" fill="#B8B3B3"/>
<path d="M289.026 39.7834C289.026 39.7834 291.342 42.5353 289.159 46.9852C288.216 48.9068 288.679 51.1838 287.515 52.2734C283.359 56.1665 292.256 67.4725 293.236 68.0061C294.216 68.5397 297.361 67.9455 297.361 67.9455L303.212 66.5852C304.813 66.1558 300.541 56.4257 300.353 54.6404C300.165 52.856 296.33 46.211 295.711 45.1028C292.821 39.9233 289.026 39.7834 289.026 39.7834Z" fill="#A39D9D"/>
<path d="M281.571 39.9303L286.104 35.2453L287.839 38.4373L286.647 40.3027L281.571 39.9303Z" fill="#FFA47C"/>
<path d="M275.998 31.3744C276.748 29.4216 280.234 26.2332 283.558 27.9125C286.884 29.5926 287.328 32.667 287.064 34.839C286.859 36.5325 286.395 37.6443 285.14 39.1775C284.883 39.4902 282.152 41.4982 281.452 41.5926C280.974 41.6577 279.174 38.8363 279.061 38.9076C278.948 38.9788 278.529 38.9672 278.39 38.7338C278.189 38.3944 277.502 36.0648 277.304 35.8813C277.105 35.6987 275.141 33.6131 275.998 31.3744Z" fill="#FFBD95"/>
<path d="M275.833 33.1116C275.833 33.1116 277.469 30.6938 281.593 31.8635C282.481 32.1147 282.508 35.0537 282.767 35.1873C283.043 35.3317 284.152 32.3357 284.205 32.6448C284.748 35.7914 286.397 36.8524 286.655 36.7446C287.439 36.4176 287.848 31.3905 285.133 28.8444C282.416 26.2983 278.913 27.6551 278.195 28.2217C277.477 28.7882 275.147 30.1709 275.833 33.1116Z" fill="#8D3B26"/>
<path d="M283.175 33.9199C283.344 34.9239 283.805 36.1604 284.347 36.0651C284.888 35.9698 285.191 35.0789 285.024 34.074C284.855 33.07 284.281 32.3324 283.739 32.4277C283.197 32.523 283.008 32.915 283.175 33.9199Z" fill="#FFBD95"/>
<path d="M308.458 125.252L312.111 123.816L311.842 123.134L308.19 124.571L308.458 125.252Z" fill="black"/>
<path d="M309.811 118.391C310.552 118.873 311.386 120.042 311.669 120.621C312.008 121.318 312.176 123.004 311.703 123.191C310.322 123.733 308.693 124.438 307.344 125.189C305.996 125.941 306.873 126.512 303.228 127.935C302.164 128.35 299.079 128.407 298.908 127.972C298.166 126.086 302.02 126.457 302.727 124.999C304.515 121.311 306.138 119.951 306.138 119.951C306.138 119.951 309.659 118.291 309.811 118.391Z" fill="black"/>
<path d="M295.96 129.045L299.882 129.164L299.904 128.408L295.981 128.289L295.96 129.045Z" fill="#191919"/>
<path d="M299.902 123.079C300.394 123.837 300.701 125.287 300.733 125.951C300.772 126.751 300.263 128.419 299.754 128.404C298.272 128.36 296.497 128.368 294.961 128.534C293.426 128.701 292.828 129.592 288.916 129.464C287.775 129.427 285.732 129.293 285.777 128.812C286.002 126.394 289.567 127.577 290.791 126.48C293.885 123.704 295.912 123.072 295.912 123.072C295.912 123.072 299.801 122.924 299.902 123.079Z" fill="#191919"/>
<path d="M294.789 67.8663C294.789 67.8663 300.967 71.2775 301.755 73.4289C302.541 75.5794 302.743 81.9884 303.386 87.7397C304.028 93.4903 304.262 95.2453 304.78 96.5113C305.299 97.7773 308.169 103.323 308.848 106.916C309.527 110.508 312.11 119.556 312.11 119.556C312.11 119.556 309.782 120.569 308.003 121.203C306.223 121.837 304.141 120.74 304.141 120.74C304.141 120.74 297.475 100.43 296.695 98.3073C296.19 96.9327 292.586 87.4815 290.236 79.6276C289.48 77.1011 288.285 71.1198 288.019 70.0641L294.789 67.8663Z" fill="#EDA006"/>
<path d="M303.558 68.1146C303.558 68.1146 304.614 71.6041 304.376 74.4201C304.183 76.7025 303.23 80.8487 302.05 86.5138C300.868 92.1788 300.418 97.4909 300.516 98.8548C300.614 100.219 301.822 106.053 301.542 109.698C301.214 113.981 300.882 123.87 300.882 123.87C300.882 123.87 299.146 124.307 297.258 124.355C295.369 124.403 292.907 123.676 292.907 123.676C292.907 123.676 292.727 100.913 292.029 98.757C290.916 95.3153 291.457 84.7612 291.031 77.5088C290.859 74.5832 290.617 68.0638 290.617 68.0638L303.558 68.1146Z" fill="#F4B80F"/>
<path d="M301.22 67.2266L300.353 54.6404C300.353 54.6404 302.496 59.6916 303.508 64.7232C303.592 65.1419 303.924 66.2849 303.213 66.5851C302.333 66.9557 301.22 67.2266 301.22 67.2266Z" fill="#EDA006"/>
<path d="M284.379 43.8514L283.921 45.1387L286.807 42.1534L284.379 43.8514Z" fill="#A39D9D"/>
<path d="M283.921 45.1387L282.948 43.5209L282.678 44.4634L283.921 45.1387Z" fill="#A39D9D"/>
<path d="M283.093 43.7605L282.871 45.3418L282.135 44.4527L282.774 43.0487L283.093 43.7605Z" fill="#CFCCCC"/>
<path d="M287.906 67.8647C287.166 67.7248 287.579 65.2732 286.806 63.6901C284.703 59.3854 281.514 53.2928 281.514 53.2928L289.303 50.173L298.872 67.3685C298.872 67.3685 294.238 69.0576 287.906 67.8647Z" fill="#EDA006"/>
<path d="M287.906 67.8675L288.027 70.1009C288.027 70.1009 294.212 70.5285 299.002 69.5824C303.792 68.6372 303.649 68.3156 303.649 68.3156L303.213 66.5873C303.213 66.5873 301.755 66.9071 298.388 67.4505C295.116 67.9779 287.906 67.8675 287.906 67.8675Z" fill="#004877"/>
<path d="M298.872 67.3692L300.159 76.2832L301.257 66.9042L298.872 67.3692Z" fill="#EDA006"/>
<path d="M288.157 50.7969C287.64 49.286 287.552 40.4771 293.12 41.7617L291.316 40.4726C291.316 40.4726 289.137 39.7893 287.33 42.8717C285.651 45.735 285.513 48.8272 286.473 51.4713C287.434 54.1145 288.775 52.608 288.157 50.7969Z" fill="#EDA006"/>
<path d="M281.514 53.2951C281.514 53.2951 279.324 47.9401 280.72 46.259C281.318 45.5401 281.555 45.157 281.555 45.157C281.555 45.157 281.449 48.3044 282.172 50.5227C282.894 52.7418 283.529 54.2617 282.839 54.5761C282.15 54.8906 281.514 53.2951 281.514 53.2951Z" fill="#EDA006"/>
<path d="M291.249 43.8138C293.613 44.2129 294.012 46.2343 293.499 48.4686C292.986 50.702 286.901 64.3323 286.22 64.6494C285.538 64.9666 282.229 63.9635 282.047 62.9078C281.865 61.8512 285.737 49.1849 286.487 47.4254C287.237 45.6659 288.481 43.3461 291.249 43.8138Z" fill="#FFBD95"/>
<path d="M290.449 42.9022C289.258 43.084 287.123 45.2274 286.539 46.8648C285.713 49.1855 283.102 55.1116 283.102 55.1116C283.102 55.1116 284.295 56.5432 286.332 57.3102C288.694 58.2011 290.437 57.8011 290.437 57.8011C290.437 57.8011 293.975 48.7846 294.171 46.7873C294.306 45.4145 293.332 42.4621 290.449 42.9022Z" fill="#CFCCCC"/>
<path d="M286.589 63.4859C287.034 66.0561 281.346 67.0904 278.716 67.3496C276.085 67.6088 268.346 67.5875 268.346 67.5875L267.951 65.1144C267.951 65.1144 274.865 62.9184 281.954 61.2917C282.683 61.1242 285.9 59.5144 286.589 63.4859Z" fill="#FFBD95"/>
<path d="M262.107 65.2939C262.107 65.2939 262.127 67.3055 260.675 67.7572C259.223 68.208 257.5 67.5256 257.062 67.457C255.254 67.1746 253.434 68.5438 252.32 68.5331C251.207 68.5216 251.171 67.9416 251.561 67.8356C253.749 67.2387 254.788 66.1804 255.792 66.0191C256.796 65.857 260.266 64.404 260.266 64.404L262.107 65.2939Z" fill="#9A9393"/>
<path d="M261.695 66.5948C261.695 66.5948 261.701 67.6273 260.034 68.2785C259.121 68.6349 257.91 68.1993 257.104 68.4371C256.299 68.6759 256.445 68.2429 256.493 68.1253C256.542 68.0068 257.536 67.7244 257.963 67.5391C258.391 67.3538 259.805 65.8233 261.695 66.5948Z" fill="#9A9393"/>
<path d="M289.531 39.2979L287.839 38.4365L284.379 43.8511L286.002 45.5625L289.531 39.2979Z" fill="#D7D4D4"/>
<path d="M268.222 65.0206L264.641 66.3658C264.641 66.3658 264.025 68.4424 264.087 68.8941C264.148 69.3458 265.129 71.0874 265.256 71.3458C265.383 71.605 265.714 71.85 265.826 71.7636C265.938 71.678 265.647 70.6019 266.617 69.7769C267.587 68.9511 268.469 68.3899 268.891 67.7262C269.828 66.2536 268.222 65.0206 268.222 65.0206Z" fill="#B8B3B3"/>
<path d="M266.917 66.5062C266.917 66.5062 265.556 67.8363 265.673 68.1739C265.79 68.5116 266.112 70.5098 266.143 70.736C266.173 70.9614 266.212 71.2652 266.683 70.6844C267.153 70.1026 266.919 69.1931 267.142 69.0674C267.366 68.9409 268.524 68.8269 269.08 68.0225C269.637 67.2171 269.346 66.5062 269.177 66.2389C269.007 65.9717 267.172 65.7775 266.917 66.5062Z" fill="#B8B3B3"/>
<path d="M269.08 68.0234L273.503 67.9842L272.841 63.5254L268.037 65.0952L269.08 68.0234Z" fill="#B8B3B3"/>
<path d="M265.666 65.1354L263.403 61.8071L259.561 64.8111L261.695 66.5938L265.666 65.1354Z" fill="#9A9393"/>
<path d="M285.877 29.6962C285.877 29.6962 283.538 25.4913 278.945 27.4165C274.351 29.3416 275.806 34.2637 275.806 34.2637C275.806 34.2637 278.484 33.7416 281.894 32.3127C285.305 30.8837 285.877 29.6962 285.877 29.6962Z" fill="#EDA006"/>
<path d="M283.371 31.6239C283.371 31.6239 274.919 36.7446 274.763 36.7152C274.607 36.6867 273.876 36.4533 273.568 36.4373C273.26 36.4212 272.988 36.8444 272.843 36.7099C272.697 36.5745 275.709 33.835 275.709 33.835C275.709 33.835 277.753 33.493 278.753 33.2961C279.754 33.1001 283.231 31.3255 283.371 31.6239Z" fill="#004877"/>
<path d="M242.971 78.7207V71.3621C242.971 69.7817 244.264 68.4891 245.844 68.4891H276.393C277.973 68.4891 279.266 69.7817 279.266 71.3621V78.7207C279.266 80.301 277.973 81.5938 276.393 81.5938H245.844C244.264 81.5938 242.971 80.301 242.971 78.7207Z" fill="#191919"/>
<path d="M242.971 75.5117H279.266V74.5728H242.971V75.5117Z" fill="black"/>
<path d="M242.971 77.6641H279.266V77.2667H242.971V77.6641Z" fill="black"/>
<path d="M242.971 79.1953H279.266V78.7979H242.971V79.1953Z" fill="black"/>
<path d="M242.971 71.3613H279.266V70.9639H242.971V71.3613Z" fill="black"/>
<path d="M242.971 72.8926H279.266V72.4941H242.971V72.8926Z" fill="black"/>
<path d="M276.393 81.5938H245.845C244.425 81.5938 243.238 80.5505 243.011 79.1929C243.238 80.5505 244.425 81.5938 245.845 81.5938H276.393C276.397 81.5938 276.4 81.5938 276.402 81.5938C276.4 81.5938 276.397 81.5938 276.393 81.5938ZM276.407 81.5938C276.408 81.5938 276.409 81.5938 276.411 81.5938C276.409 81.5938 276.408 81.5938 276.407 81.5938ZM276.416 81.5938C276.417 81.5938 276.419 81.5938 276.42 81.5938C276.419 81.5938 276.417 81.5938 276.416 81.5938ZM276.425 81.5938C276.427 81.5938 276.428 81.5938 276.429 81.5938C276.428 81.5938 276.427 81.5938 276.425 81.5938ZM276.434 81.5938C276.436 81.5938 276.437 81.5938 276.438 81.5938C276.437 81.5938 276.436 81.5938 276.434 81.5938ZM276.444 81.5938C276.445 81.5938 276.446 81.5938 276.447 81.5938C276.446 81.5938 276.445 81.5938 276.444 81.5938ZM276.453 81.5938C276.454 81.5938 276.455 81.5928 276.456 81.5928C276.455 81.5928 276.454 81.5938 276.453 81.5938ZM276.463 81.5928C276.463 81.5928 276.463 81.5928 276.464 81.5928C276.463 81.5928 276.463 81.5928 276.463 81.5928Z" fill="#8F8F8F"/>
<path d="M276.393 81.5938H245.844C244.425 81.5938 243.238 80.5505 243.01 79.1929H279.213C278.989 80.5265 277.85 81.559 276.463 81.5928C276.462 81.5928 276.462 81.5928 276.462 81.5928C276.46 81.5928 276.457 81.5928 276.455 81.5928C276.454 81.5928 276.454 81.5938 276.453 81.5938C276.451 81.5938 276.448 81.5938 276.446 81.5938C276.446 81.5938 276.445 81.5938 276.444 81.5938C276.442 81.5938 276.439 81.5938 276.438 81.5938C276.437 81.5938 276.436 81.5938 276.434 81.5938C276.432 81.5938 276.43 81.5938 276.429 81.5938C276.428 81.5938 276.427 81.5938 276.425 81.5938C276.423 81.5938 276.421 81.5938 276.42 81.5938C276.419 81.5938 276.417 81.5938 276.416 81.5938C276.414 81.5938 276.413 81.5938 276.411 81.5938C276.409 81.5938 276.408 81.5938 276.406 81.5938C276.405 81.5938 276.404 81.5938 276.402 81.5938C276.399 81.5938 276.397 81.5938 276.393 81.5938ZM247.102 78.7955H242.971C242.971 78.7705 242.971 78.7458 242.971 78.7207V77.6632H245.816C246.12 78.1587 246.569 78.5568 247.102 78.7955ZM245.613 77.2659H242.971V75.5109H245.395V76.171C245.395 76.5586 245.473 76.9283 245.613 77.2659ZM245.395 74.5719H242.971V72.89H245.395V74.5719Z" fill="#0F0F0F"/>
<path d="M242.971 75.5117H245.395V74.5728H242.971V75.5117Z" fill="black"/>
<path d="M245.816 77.6641H242.971V77.2667H245.613C245.671 77.4048 245.739 77.5376 245.816 77.6641Z" fill="black"/>
<path d="M279.213 79.1953H243.01C242.988 79.0659 242.976 78.9333 242.972 78.7979H242.971H247.102C247.459 78.9573 247.854 79.0464 248.268 79.0464H278.818C278.961 79.0464 279.099 79.0252 279.238 79.0036C279.231 79.0686 279.223 79.1327 279.213 79.1953Z" fill="black"/>
<path d="M245.395 72.4922H242.971V71.3626C242.971 71.3617 242.971 71.3608 242.971 71.3599H245.395V72.4922ZM245.395 70.9626H243C243.177 69.71 244.174 68.7194 245.424 68.5323C245.415 68.6258 245.395 68.7167 245.395 68.8129V70.9626Z" fill="#0F0F0F"/>
<path d="M245.395 71.3613H242.971C242.971 71.2268 242.981 71.0941 243 70.964H245.395V71.3613Z" fill="black"/>
<path d="M242.971 72.8926H245.395V72.4941H242.971V72.8926Z" fill="black"/>
<path d="M273.233 83.3906H249.006V81.5956H273.233V83.3906Z" fill="#625757"/>
<path d="M268.726 87.3887H253.482V83.3902H268.726V87.3887Z" fill="#3D3D3D"/>
<path d="M268.726 83.3902H253.482V87.3887H268.726L255.581 86.2722V85.1409L268.726 83.3902Z" fill="#2C2C2C"/>
<path d="M283.572 129.602H228.454V122.025L225.868 119.516V87.2923H286.158V119.516L283.572 122.025V129.602Z" fill="#BD0000"/>
<path d="M286.158 122.023H225.868V119.514H286.158V122.023Z" fill="#3D3D3D"/>
<path d="M261.119 44.5703H242.023V41.4879H261.119V44.5703Z" fill="#3D3D3D"/>
<path d="M238.335 100.512H230.201V41.7537H238.335V100.512Z" fill="#BD0000"/>
<path d="M227.64 46.1016H247.446V40.1978H227.64V46.1016Z" fill="#BD0000"/>
<path d="M262.661 30.827V61.0996H259.578V30.827H262.661Z" fill="#3D3D3D"/>
<path d="M261.999 38.2118V68.4844H260.209V38.2118H261.999Z" fill="#3D3D3D"/>
<path d="M264.082 51.1797H258.156V36.9606H264.082V51.1797Z" fill="#BD0000"/>
<path d="M256.013 68.4844L260.21 66.398H261.999V68.4844H256.013Z" fill="#3D3D3D"/>
<path d="M263.193 32.4766H259.048V29.6017H263.193V32.4766Z" fill="#9A9393"/>
<path d="M256.013 45.6973H258.156V40.1971H256.013V45.6973Z" fill="#625757"/>
<path d="M238.335 46.1012L232.254 48.2358V84.9252L238.335 87.3887H230.201V46.1012H238.335Z" fill="#A10000"/>
<path d="M283.572 122.025H228.454V129.602H283.572V122.025Z" fill="#A10000"/>
<path d="M283.572 122.023H228.454V126.242L283.572 123.331V122.023Z" fill="#740000"/>
<path d="M171.565 86.1776L168.595 89.8775C168.595 89.8775 169.182 92.437 169.515 92.8681C169.848 93.2993 171.917 94.4867 172.205 94.6746C172.493 94.8629 172.987 94.9053 173.054 94.7442C173.12 94.582 172.174 93.6476 172.704 92.1652C173.234 90.6828 173.829 89.5309 173.879 88.568C173.991 86.4323 171.565 86.1776 171.565 86.1776Z" fill="#FFBD95"/>
<path d="M203.638 62.434C205.362 57.16 209.821 48.1186 207.221 46.5409C203.832 44.4839 194.076 43.2099 194.076 43.2099L194.075 43.3774C194.075 43.3774 184.232 44.1863 180.837 46.2335C178.232 47.8041 182.747 57.2936 184.456 62.5729C184.866 63.8397 184.813 69.5172 184.647 74.5515C184.607 75.7934 183.59 81.5021 183.758 83.8639C183.809 84.5685 191.773 88.9418 194.007 89.0566V88.8892C196.241 88.7804 204.219 84.4311 204.272 83.7264C204.447 81.3656 203.447 75.6544 203.411 74.4126C203.26 69.3774 203.223 63.6999 203.638 62.434Z" fill="#FFBD95"/>
<path d="M204.773 46.0852C202.977 46.9574 202.706 50.2126 204.471 53.4848C206.236 56.7569 207.798 58.7943 208.278 59.6335C208.775 60.4995 211.273 65.7297 212.163 67.017C213.054 68.3043 214.997 69.4482 216.392 68.6954C217.559 68.0665 218.856 67.5293 218.056 64.9511C217.255 62.3729 210.445 43.3289 204.773 46.0852Z" fill="#FFBD95"/>
<path d="M198.155 41.6526C197.933 40.6469 197.381 35.6767 197.381 35.6767L194.087 35.6714V35.8388L190.793 35.8344C190.793 35.8344 190.227 40.8028 190.001 41.8077C189.777 42.8126 187.062 44.3252 187.062 44.3252L194.075 44.3359V44.1685L201.086 44.1791C201.086 44.1791 198.377 42.6584 198.155 41.6526Z" fill="#FFBD95"/>
<path d="M197.935 40.2496C197.728 38.7271 197.481 36.5596 197.405 35.8861L197.193 35.6758L194.087 35.6714V35.8389L190.793 35.8344C190.793 35.8344 190.227 40.8028 190.001 41.8077C189.777 42.8126 187.062 44.3253 187.062 44.3253L187.394 44.3262C190.524 43.4968 193.637 42.6701 194.056 42.5498C194.932 42.3003 197.935 40.2505 197.935 40.2505V40.2496Z" fill="#FFA47C"/>
<path d="M188.773 78.3256C184.753 78.3079 183.186 81.1096 183.285 89.7092C183.383 98.3095 184.651 107.637 185.208 108.978C185.764 110.319 191.462 110.356 192.021 109.574C192.581 108.793 194.004 90.9536 194.008 88.1617C194.012 85.3697 193.154 78.3461 188.773 78.3256Z" fill="#FFBD95"/>
<path d="M189.021 115.864L187.96 115.837C186.364 115.796 185.091 114.457 185.132 112.86L185.223 109.287C185.264 107.691 186.604 106.418 188.2 106.458L189.26 106.485C190.857 106.526 192.13 107.866 192.09 109.463L191.998 113.035C191.958 114.631 190.618 115.904 189.021 115.864Z" fill="#FFBD95"/>
<path d="M188.447 110.6C187.218 110.598 184.202 111 184.358 119.018C184.513 127.036 187.904 138.021 187.904 138.021L190.807 138.025C190.807 138.025 192.246 123.184 192.257 120.337C192.283 113.859 192.328 110.605 188.447 110.6Z" fill="#FFBD95"/>
<path d="M199.381 78.3995C203.378 77.9673 205.226 80.5926 206.013 89.1574C206.8 97.7213 207.17 107.13 206.755 108.521C206.339 109.912 200.676 110.536 200.039 109.816C199.402 109.097 195.478 91.4987 195.187 88.7218C194.895 85.9452 195.027 78.8697 199.381 78.3995Z" fill="#FFBD95"/>
<path d="M203.661 115.761L204.726 115.623C206.309 115.419 207.435 113.951 207.229 112.362L206.772 108.83C206.567 107.245 205.108 106.115 203.53 106.319L202.464 106.456C200.882 106.661 199.756 108.129 199.961 109.719L200.418 113.25C200.623 114.836 202.082 115.965 203.661 115.761Z" fill="#FFBD95"/>
<path d="M203.7 110.466C204.923 110.338 207.964 110.427 208.635 118.418C209.305 126.41 207.99 137.685 207.99 137.685L205.103 137.988C205.103 137.988 201.217 123.375 200.913 120.543C200.221 114.102 199.841 110.871 203.7 110.466Z" fill="#FFBD95"/>
<path d="M182.47 46.1133C184.395 46.6389 185.263 49.7882 184.131 53.3302C183.001 56.8714 181.841 59.1628 181.524 60.075C181.196 61.0175 179.706 66.6193 179.068 68.0492C178.431 69.479 176.732 70.9614 175.222 70.4795C173.958 70.0768 172.585 69.7881 172.896 67.1057C173.207 64.4242 176.385 44.451 182.47 46.1133Z" fill="#FFBD95"/>
<path d="M184.415 76.5979C184.415 76.5979 182.959 83.6795 182.729 87.5325C182.501 91.3855 184.361 108.23 184.365 110.084C184.369 111.938 184.235 117.634 184.345 123.218C184.455 128.803 185.88 139.797 185.88 139.797L193.028 139.631C193.028 139.631 193.073 116.021 193.08 112.311C193.085 108.6 194.008 89.0567 194.008 89.0567L194.026 76.9115L184.415 76.5979Z" fill="#EDA006"/>
<path d="M208.072 46.6438C207.63 45.9089 205.258 45.2995 203.071 44.6189C201.143 44.0184 199.591 43.2086 199.591 43.2086L198.377 43.8527C195.703 45.3788 192.421 45.3743 189.752 43.8403L188.712 43.2425C188.712 43.2425 186.984 43.997 185.055 44.5913C182.866 45.2656 180.423 45.8296 180.047 46.6011C179.666 47.3841 183.566 62.4193 184.004 63.6977C184.443 64.977 183.302 73.9204 184.414 76.5966L194.004 76.9093V76.9102L194.022 76.9093L194.025 76.9102V76.9093L203.616 76.626C204.497 73.5596 203.61 64.838 204.052 63.5605C204.494 62.283 208.811 47.8714 208.072 46.6438Z" fill="#CFCCCC"/>
<path d="M203.536 76.3978C203.536 76.3978 205.713 83.2921 206.338 87.1006C206.962 90.9091 207.517 107.856 207.705 109.701C207.892 111.545 208.611 117.197 209.076 122.763C209.541 128.329 210.162 139.414 210.162 139.414L203.034 139.984C203.034 139.984 199.653 116.504 199.265 112.813C198.878 109.123 193.978 89.6653 193.978 89.6653L194.025 76.9101L203.536 76.3978Z" fill="#EDA006"/>
<path d="M186.629 139.778C186.629 139.778 184.186 142.632 184.314 143.385C184.388 143.814 185.417 145.369 187.289 145.484C188.712 145.571 191.034 144.273 191.395 144.237C192.233 144.152 192.23 139.647 192.23 139.647L186.629 139.778Z" fill="#191919"/>
<path d="M209.162 139.501C209.162 139.501 211.886 142.088 211.835 142.852C211.807 143.286 210.943 144.938 209.093 145.245C207.687 145.479 205.244 144.427 204.88 144.428C204.038 144.429 203.577 139.948 203.577 139.948L209.162 139.501Z" fill="#191919"/>
<path d="M202.7 90.8382C203.101 93.3619 204.229 110.326 204.297 111.289C204.364 112.229 207.704 138.395 207.815 139.604L210.161 139.415C210.161 139.415 209.541 128.33 209.076 122.764C208.61 117.198 207.891 111.546 207.704 109.702C207.517 107.857 206.962 90.9103 206.338 87.1018C205.713 83.2934 203.536 76.399 203.536 76.399L197.87 76.7964C197.87 76.7964 202.297 88.3142 202.7 90.8382Z" fill="#F4B80F"/>
<path d="M192.889 84.3606C191.564 82.0221 188.017 82.8102 187.786 85.4881C187.549 88.2393 187.49 90.1432 187.73 91.4116C188.335 94.601 189.201 110.193 189.085 110.602C188.969 111.01 189.05 139.644 189.05 139.644L189.176 139.721L193.027 139.631C193.027 139.631 193.073 116.022 193.079 112.312C193.084 108.601 194.007 89.0571 194.007 89.0571L194.008 87.996L194.083 86.4655L192.889 84.3606Z" fill="#F4B80F"/>
<path d="M215.899 64.8772C217.505 64.6376 218.952 65.2817 219.861 69.7387C220.769 74.1957 221.533 84.7972 221.533 84.7972L218.936 85.1855C218.936 85.1855 215.071 76.7694 214.47 74.3721C213.871 71.9739 211.696 65.5062 215.899 64.8772Z" fill="#FFBD95"/>
<path d="M218.527 82.7573C218.527 82.7573 217.543 85.1462 217.453 85.9035C217.364 86.66 217.792 89.3943 217.794 90.0035C217.797 91.018 215.839 93.3068 216.516 93.3975C217.193 93.4884 219.91 91.3701 219.91 91.3701C219.91 91.3701 222.029 88.448 221.947 87.246C221.866 86.0444 221.46 83.8333 221.46 83.8333L218.527 82.7573Z" fill="#FFBD95"/>
<path d="M199.793 31.4521C199.787 35.6072 196.641 39.7399 193.976 39.7363C191.429 39.7328 188.177 35.5893 188.183 31.4343C188.189 27.2793 190.793 23.9154 194 23.9199C197.206 23.9252 199.799 27.2971 199.793 31.4521Z" fill="#FFBD95"/>
<path d="M188.182 32.2684C187.925 31.8158 187.061 29.8924 187.251 29.0256C187.441 28.1597 188.461 26.2764 188.801 25.7116C189.142 25.1468 192.158 23.6439 192.611 23.6074C193.063 23.57 194.269 23.4586 195.211 23.6109C196.153 23.7633 197.81 24.4065 198.186 25.161C198.562 25.9147 199.495 26.7833 199.799 27.3864C200.104 27.9904 200.628 29.5361 200.554 29.7624C200.478 29.9878 200.06 31.8719 200.022 32.0225C199.984 32.1731 199.713 32.6016 199.713 32.6016C199.713 32.6016 198.152 28.631 198.115 28.2541C198.078 27.8773 190.164 27.7526 189.673 28.0154C189.183 28.2782 188.182 32.2684 188.182 32.2684Z" fill="#8D3B26"/>
<path d="M190.458 94.9082H182.71L182.494 94.5393L181.93 94.2881L182.694 83.211L189.872 83.0363L190.458 94.9082Z" fill="#1C5C92"/>
<path d="M189.678 94.2891H181.93L182.348 83.014H189.678V94.2891Z" fill="#EDA006"/>
<path d="M182.71 94.9082L182.494 94.5393H189.937L189.872 83.0363L190.458 94.9082H182.71Z" fill="#004877"/>
<path d="M199.34 94.9668L207.05 94.2113L207.229 93.823L207.767 93.5185L205.928 82.5688L198.766 83.0943L199.34 94.9668Z" fill="#1C5C92"/>
<path d="M200.056 94.2715L207.767 93.5171L206.252 82.3367L198.958 83.0511L200.056 94.2715Z" fill="#EDA006"/>
<path d="M207.05 94.2113L207.229 93.823L199.822 94.5482L198.766 83.0943L199.34 94.9668L207.05 94.2113Z" fill="#004877"/>
<path d="M175.415 67.0066C173.798 66.8632 172.39 67.5928 171.751 72.0961C171.11 76.5986 170.98 87.2266 170.98 87.2266L173.596 87.459C173.596 87.459 176.951 78.8284 177.408 76.399C177.863 73.9696 179.647 67.3835 175.415 67.0066Z" fill="#FFBD95"/>
<path d="M194.025 76.9075L203.572 76.5966L203.338 74.5502L201.642 53.7129H186.416L184.647 74.5502L184.415 76.5966L193.96 76.9075V76.9102L193.993 76.9084L194.025 76.9102V76.9075Z" fill="#F4B80F"/>
<path d="M189.123 53.714C189.123 53.714 190.531 70.1051 192.247 73.224C193.961 76.3429 203.484 75.828 203.484 75.828L203.572 76.9113C203.572 76.9113 198.914 78.0195 194.547 78.0195C190.18 78.0195 184.373 76.9113 184.373 76.9113L186.417 53.714H189.123Z" fill="#EDA006"/>
<path d="M201.165 54.91L202.602 44.4681L200.434 43.6129L198.809 54.91L199.849 56.6543L201.165 54.91Z" fill="#EDA006"/>
<path d="M186.939 54.91L185.501 44.4681L187.669 43.6129L189.295 54.91L188.255 56.6543L186.939 54.91Z" fill="#EDA006"/>
<path d="M184.216 77.5922L184.177 75.782C184.177 75.782 189.304 76.5989 194.03 76.5989C198.757 76.5989 203.795 75.782 203.795 75.782L203.902 77.5922C203.902 77.5922 197.816 78.6836 193.978 78.6836C190.141 78.6836 184.216 77.5922 184.216 77.5922Z" fill="#004877"/>
<path d="M188.568 54.7046C188.568 55.0271 188.306 55.2891 187.982 55.2891C187.66 55.2891 187.398 55.0271 187.398 54.7046C187.398 54.3813 187.66 54.1194 187.982 54.1194C188.306 54.1194 188.568 54.3813 188.568 54.7046Z" fill="#303030"/>
<path d="M200.706 54.7046C200.706 55.0271 200.444 55.2891 200.121 55.2891C199.798 55.2891 199.536 55.0271 199.536 54.7046C199.536 54.3813 199.798 54.1194 200.121 54.1194C200.444 54.1194 200.706 54.3813 200.706 54.7046Z" fill="#303030"/>
<path d="M180.594 46.1102C180.594 46.1102 178.119 46.8292 176.195 51.4038C174.272 55.9784 172.851 65.3129 172.851 65.3129C172.851 65.3129 174.203 66.3686 176.723 66.9922C179.241 67.6158 180.302 67.3637 180.302 67.3637L183.058 57.6942C183.058 57.6942 183.692 46.275 180.594 46.1102Z" fill="#CFCCCC"/>
<path d="M206.466 45.6965C206.466 45.6965 209.022 46.0243 211.63 50.247C214.237 54.4697 217.875 63.3481 217.875 63.3481C217.875 63.3481 216.718 64.5971 214.326 65.6029C211.933 66.6078 210.782 66.582 210.782 66.582L205.822 57.5218C205.822 57.5218 203.431 46.3379 206.466 45.6965Z" fill="#CFCCCC"/>
<path d="M171.571 90.556C171.571 90.556 171.911 92.002 172.112 92.3207C172.313 92.6381 172.695 93.0112 172.959 93.2927C173.222 93.5735 173.363 94.1647 173.297 94.2622C173.107 94.541 172.646 94.2023 172.435 93.9681C172.224 93.7328 171.726 93.2047 171.504 92.8162C171.283 92.4286 170.694 91.504 170.667 91.1706C170.64 90.8365 171.571 90.556 171.571 90.556Z" fill="#FFA47C"/>
<path d="M171.354 90.1423C171.354 90.1423 172.049 91.3377 172.315 91.5667C172.579 91.7957 172.817 91.7574 173.227 91.8883C173.568 91.9961 173.993 92.2634 174.024 92.5787C174.055 92.8915 173.514 92.7826 173.223 92.7373C172.851 92.6796 172.21 92.4586 171.908 92.1732C171.606 91.8875 170.831 91.2229 170.717 90.9333C170.602 90.6438 171.354 90.1423 171.354 90.1423Z" fill="#FFA47C"/>
<path d="M171.345 89.9313C171.345 89.9313 172.097 90.8187 172.35 90.9683C172.604 91.1179 172.796 91.0511 173.157 91.0956C173.457 91.1339 173.847 91.2916 173.918 91.5481C173.99 91.8039 173.525 91.7959 173.276 91.8021C172.959 91.8112 172.393 91.7245 172.1 91.5338C171.807 91.3424 171.068 90.9085 170.93 90.685C170.792 90.4623 171.345 89.9313 171.345 89.9313Z" fill="#FFA47C"/>
<path d="M178.306 83.1799L166.586 100.555L165.671 99.9373L177.391 82.5626L178.306 83.1799Z" fill="#7F7F7F"/>
<path d="M178.822 96.9668L163.932 85.7722L164.594 84.8893L179.486 96.0849L178.822 96.9668Z" fill="#7F7F7F"/>
<path d="M163.639 86.1828L161.729 84.6147L163.063 82.9881L164.974 84.5559C165.423 84.9248 165.488 85.5877 165.119 86.0373C164.75 86.4866 164.088 86.5516 163.639 86.1828Z" fill="#7F7F7F"/>
<path d="M179.68 95.5789L181.59 97.1469L180.256 98.7734L178.345 97.2057C177.896 96.8378 177.831 96.1739 178.2 95.725C178.568 95.2761 179.231 95.21 179.68 95.5789Z" fill="#7F7F7F"/>
<path d="M166.998 100.999L165.684 103.092L163.902 101.973L165.215 99.8801C165.524 99.3877 166.174 99.2388 166.666 99.5482C167.158 99.8571 167.307 100.506 166.998 100.999Z" fill="#7F7F7F"/>
<path d="M176.943 82.4392L178.264 80.3513L180.042 81.4762L178.721 83.5653C178.41 84.0563 177.76 84.2021 177.269 83.8914C176.778 83.5813 176.632 82.9309 176.943 82.4392Z" fill="#7F7F7F"/>
<path d="M171.076 88.566C171.076 88.566 170.433 90.8242 170.757 91.1022C171.082 91.3792 172.609 93.2556 172.775 93.471C172.943 93.6868 173.165 93.9787 173.313 93.0712C173.463 92.1632 172.675 91.366 172.836 91.0907C172.997 90.8155 174.147 89.9538 174.254 88.7584C174.362 87.5621 173.633 87.007 173.296 86.8379C172.958 86.6678 170.91 87.6421 171.076 88.566Z" fill="#FFBD95"/>
<path d="M218.529 116.054L211.917 116.869C210.351 117.062 208.913 115.939 208.72 114.374L204.748 82.1386C204.554 80.5734 205.677 79.1345 207.242 78.942L213.855 78.127C215.42 77.9335 216.859 79.0572 217.052 80.6221L221.025 112.858C221.217 114.423 220.095 115.861 218.529 116.054Z" fill="#191919"/>
<path d="M215.665 116.409L214.782 116.518L210.107 78.59L210.99 78.4814L215.665 116.409Z" fill="black"/>
<path d="M217.685 116.159L217.311 116.205L212.637 78.2775L213.01 78.2318L217.685 116.159Z" fill="black"/>
<path d="M219.121 115.983L218.748 116.029L214.074 78.1023L214.447 78.0561L219.121 115.983Z" fill="black"/>
<path d="M211.766 116.889L211.393 116.936L206.718 79.0078L207.092 78.9616L211.766 116.889Z" fill="black"/>
<path d="M213.203 116.712L212.83 116.758L208.155 78.8298L208.529 78.7846L213.203 116.712Z" fill="black"/>
<path d="M211.389 116.906C210.849 116.887 210.338 116.69 209.908 116.36C210.335 116.664 210.845 116.852 211.386 116.886L211.389 116.906Z" fill="#686B6E"/>
<path d="M211.386 116.887C210.845 116.852 210.335 116.664 209.909 116.36C209.384 115.959 208.98 115.36 208.795 114.653C208.8 114.653 208.806 114.653 208.812 114.653C208.836 114.653 208.861 114.653 208.886 114.654C208.912 114.655 208.937 114.656 208.962 114.656C208.995 114.656 209.028 114.655 209.062 114.651L211.08 114.402L211.386 116.887Z" fill="#0F0F0F"/>
<path d="M211.748 116.891L211.766 116.889V116.884C211.816 116.881 211.866 116.876 211.917 116.87L212.829 116.758H212.83L213.203 116.712L214.782 116.517L215.335 116.449L211.769 116.889C211.762 116.89 211.755 116.89 211.748 116.891ZM215.665 116.409L217.311 116.205L217.49 116.183L218.53 116.055C218.603 116.046 218.676 116.034 218.747 116.02L218.748 116.028C218.725 116.031 218.702 116.034 218.678 116.037L215.665 116.409Z" fill="#686B6E"/>
<path d="M211.766 116.887L211.454 114.358L212.517 114.227L212.83 116.76L211.916 116.872C211.866 116.879 211.816 116.883 211.766 116.887ZM213.203 116.714L212.89 114.18L214.47 113.986L214.782 116.52L213.203 116.714ZM215.664 116.411L215.352 113.877L215.972 113.801C216.334 113.756 216.672 113.632 216.971 113.447L217.311 116.208L215.664 116.411ZM217.49 116.186L217.685 116.162L217.318 113.189C217.745 112.814 218.06 112.3 218.216 111.713L218.747 116.023C218.675 116.037 218.602 116.048 218.529 116.058L217.49 116.186Z" fill="#0F0F0F"/>
<path d="M214.782 116.518L214.47 113.984L215.352 113.875L215.664 116.409L215.335 116.449L214.782 116.518Z" fill="black"/>
<path d="M219.115 115.943L219.113 115.921C219.655 115.734 220.119 115.389 220.455 114.948C220.12 115.417 219.658 115.771 219.115 115.943Z" fill="#686B6E"/>
<path d="M215.748 78.5605C215.365 78.3156 214.923 78.1586 214.455 78.1175L214.454 78.1113C214.919 78.1409 215.362 78.3002 215.748 78.5605Z" fill="#8F8F8F"/>
<path d="M219.113 115.92L214.455 78.1176C214.923 78.1586 215.365 78.3156 215.748 78.5606C216.444 79.03 216.953 79.8272 217.071 80.7794L221.005 112.703C221.108 113.54 220.889 114.339 220.455 114.947C220.119 115.388 219.655 115.733 219.113 115.92Z" fill="#0F0F0F"/>
<path d="M217.311 116.205L216.971 113.444C217.093 113.368 217.209 113.282 217.318 113.186L217.685 116.159L217.49 116.183L217.311 116.205Z" fill="black"/>
<path d="M218.748 116.029L218.747 116.021L218.216 111.712C218.32 111.321 218.352 110.898 218.299 110.465L214.365 78.5426C214.347 78.3918 214.308 78.2503 214.271 78.1076C214.281 78.1076 214.291 78.1076 214.3 78.1076C214.352 78.1076 214.403 78.1096 214.454 78.1121L214.454 78.1183L219.113 115.921L219.116 115.943C218.997 115.98 218.874 116.009 218.748 116.028" fill="black"/>
<path d="M211.471 116.908C211.444 116.908 211.416 116.908 211.389 116.907L211.387 116.888L211.08 114.403L211.454 114.357L211.766 116.886V116.89L211.747 116.892C211.655 116.903 211.563 116.908 211.471 116.908Z" fill="black"/>
<path d="M212.83 116.758L212.517 114.224L212.89 114.178L213.203 116.712L212.83 116.758Z" fill="black"/>
<path d="M17.1344 43.9637C17.4557 45.7757 19.0509 46.0492 20.8118 45.6181C22.5722 45.186 31.1121 41.1147 31.3602 40.5847C31.6083 40.0555 30.8086 37.5245 29.9751 37.4025C29.1417 37.2795 21.3563 39.6323 19.9702 40.2381C18.5846 40.8448 16.7583 41.8399 17.1344 43.9637Z" fill="#FFA47C"/>
<path d="M17.8395 42.5501C18.12 41.9078 18.6858 40.4387 21.4329 39.457C23.2133 38.8209 26.7057 37.8828 26.7057 37.8828C26.7057 37.8828 27.7031 38.9082 28.1262 40.5243C28.6169 42.3986 28.1729 43.6966 28.1729 43.6966C28.1729 43.6966 20.9774 45.9719 19.4671 45.6672C19.016 45.5764 17.0607 44.3318 17.8395 42.5501Z" fill="#9A9393"/>
<path d="M14.9003 32.0949C14.9003 32.0949 14.671 37.3991 14.363 37.6566C13.4035 38.4566 9.92016 39.1327 9.26831 40.5243C8.47803 42.2116 12.8126 49.7857 13.3796 52.2891C13.9461 54.7924 12.7744 58.6712 12.3965 61.1273C12.0185 63.5835 19.7427 66.5527 20.0259 66.5527C20.3095 66.5527 22.7949 64.2285 23.2671 63.4258C23.7394 62.6222 23.2713 56.3274 23.2713 54.722C23.2713 53.1158 23.6426 47.4891 23.715 47.1202C24.1973 44.6623 23.5636 42.7238 23.4694 42.2044C23.3747 41.6851 23.4026 40.8156 23.1415 40.4833C22.622 39.8222 19.7332 38.9501 19.6863 38.6196C19.6389 38.2891 19.2454 33.6851 19.2454 33.6851L14.9003 32.0949Z" fill="#FFBD95"/>
<path d="M14.3634 37.6566L19.0198 40.4343L19.6867 38.6196C19.6867 38.6196 22.7455 39.8232 23.1419 40.4833C23.5379 41.1443 23.7272 42.5786 23.8581 43.1114C23.9889 43.6441 24.0658 46.1011 23.8581 48.2321C23.7363 49.4793 23.7679 51.1274 23.5789 53.2512C23.4172 55.0695 23.6176 59.5933 23.6176 59.5933C23.6176 59.5933 21.8821 59.6655 19.1921 59.5354C16.0783 59.3849 12.9341 58.9082 12.7943 58.7942C12.1936 58.3025 13.0225 53.4766 12.9132 52.9439C12.8043 52.4111 8.97433 43.1711 8.91196 41.9604C8.85005 40.7488 9.47054 39.9506 10.3872 39.4945C11.3041 39.0383 14.3634 37.6566 14.3634 37.6566Z" fill="#B8B3B3"/>
<path d="M10.8442 39.273C10.8442 39.273 7.81109 40.955 10.8223 43.2801C12.1221 44.2832 18.3379 45.8387 19.5083 46.195C23.6894 47.4672 17.2488 56.7394 16.7542 57.4396C16.2601 58.1398 16.2681 59.0957 16.2681 59.0957L13.0878 58.8855C11.8395 59.1322 12.8963 52.9015 12.421 51.6088C11.9456 50.3162 8.91211 42.9336 8.91211 41.9599C8.91211 39.7959 10.8442 39.273 10.8442 39.273Z" fill="#A39D9D"/>
<path d="M19.4179 35.6814L14.7081 33.9914L14.5957 36.778L16.0486 37.6582L19.4179 35.6814Z" fill="#FFA47C"/>
<path d="M21.1702 27.4465C20.146 26.21 16.8283 24.7481 14.8231 26.7864C12.8179 28.8247 13.2509 31.1694 13.9757 32.6839C14.5409 33.8643 15.1515 34.5592 16.4413 35.3654C16.7043 35.5302 19.1838 36.3186 19.7156 36.2153C20.0792 36.1449 20.6944 33.6523 20.794 33.6763C20.8939 33.7004 21.1966 33.5881 21.2394 33.385C21.3024 33.0884 21.2293 31.2256 21.3288 31.0438C21.4284 30.8621 22.344 28.863 21.1702 27.4465Z" fill="#FFBD95"/>
<path d="M21.7187 28.6699C21.7187 28.6699 19.9345 27.3131 17.2236 29.1768C16.6401 29.5786 17.3419 31.722 17.1875 31.8824C17.0219 32.0552 15.4795 30.1488 15.5164 30.3866C15.8946 32.8089 14.9565 33.9848 14.7421 33.9706C14.0921 33.9251 12.5595 30.3706 13.9086 27.8512C15.2575 25.3327 18.1386 25.4583 18.7998 25.6944C19.461 25.9296 21.4946 26.3635 21.7187 28.6699Z" fill="#8D3B26"/>
<path d="M16.578 31.0607C16.7026 31.8322 16.6709 32.8452 16.2533 32.9093C15.836 32.9725 15.3968 32.3988 15.2719 31.6273C15.1474 30.8558 15.3844 30.1788 15.8016 30.1146C16.2192 30.0514 16.4531 30.2893 16.578 31.0607Z" fill="#FFBD95"/>
<path d="M19.6822 104.469H16.6699V103.907H19.6822V104.469Z" fill="#191919"/>
<path d="M16.7892 99.9488C16.395 100.501 16.1277 101.571 16.0887 102.064C16.0417 102.657 16.3956 103.908 16.7857 103.908C17.9244 103.908 19.2857 103.954 20.4602 104.113C21.635 104.271 22.0742 104.947 25.0777 104.939C25.9543 104.938 27.5009 104.885 27.5009 104.526C27.5009 102.97 24.6194 103.523 23.7049 102.68C21.3917 100.547 19.8505 100.033 19.8505 100.033C19.8505 100.033 16.87 99.8357 16.7892 99.9488Z" fill="#191919"/>
<path d="M15.6422 105.508L12.6362 105.319L12.6735 104.74L15.6794 104.929L15.6422 105.508Z" fill="#191919"/>
<path d="M13.0541 100.668C12.624 101.212 12.2865 102.298 12.2149 102.803C12.1285 103.412 12.3986 104.723 12.788 104.747C13.9245 104.818 15.28 104.951 16.4419 105.188C17.6035 105.424 17.9968 106.148 20.9951 106.328C21.8699 106.382 23.4404 106.425 23.4404 106.054C23.4404 104.189 20.6314 104.841 19.7747 103.914C17.6077 101.573 16.104 100.946 16.104 100.946C16.104 100.946 13.1426 100.555 13.0541 100.668Z" fill="#191919"/>
<path d="M18.1666 59.228C18.1666 59.228 14.2064 62.9225 14.0231 64.6712C13.84 66.4191 15.5292 72.0146 16.1267 76.4155C16.7245 80.8163 17.0944 81.7065 16.9451 82.746C16.7959 83.7847 15.4898 87.9958 15.6568 90.7968C15.8235 93.5968 16.3856 100.921 16.3856 100.921C16.3856 100.921 17.2131 101.298 18.6562 101.436C20.0991 101.575 21.1006 100.333 21.1006 100.333C21.1006 100.333 22.2611 83.9684 22.4445 82.2417C22.5632 81.1247 23.477 73.4151 23.7568 67.13C23.8469 65.1078 23.6169 60.4325 23.6176 59.596L18.1666 59.228Z" fill="#EDA006"/>
<path d="M12.5355 58.8485C12.5355 58.8485 11.5385 61.4632 11.5681 63.6316C11.5918 65.3892 12.0974 68.6151 12.6949 73.016C13.2924 77.4169 13.3502 81.5076 13.2009 82.5475C13.0516 83.5862 11.812 87.987 11.8288 90.7932C11.8485 94.0894 11.5674 101.678 11.5674 101.678C11.5674 101.678 12.8727 102.106 14.3159 102.245C15.759 102.384 17.6837 101.962 17.6837 101.962C17.6837 101.962 19.0528 84.5446 19.7035 82.9313C20.7423 80.3568 20.8989 72.248 21.6179 66.7184C21.9077 64.4877 22.4454 59.5095 22.4454 59.5095L12.5355 58.8485Z" fill="#F4B80F"/>
<path d="M14.3158 58.3824L12.2766 51.235C12.2766 51.235 11.5736 57.5984 12.4498 58.2568C13.3257 58.9152 14.3158 58.3824 14.3158 58.3824Z" fill="#EDA006"/>
<path d="M18.8133 39.3335L19.02 40.4355L16.5659 38.987L18.8133 39.3335Z" fill="#A39D9D"/>
<path d="M13.7227 37.9443L14.5958 36.7782L18.8132 39.3341L18.1461 40.8379L13.7227 37.9443Z" fill="#D7D4D4"/>
<path d="M19.02 40.4355L19.4056 39.0663L19.9961 39.5269L19.02 40.4355Z" fill="#A39D9D"/>
<path d="M19.4053 39.0644L20.4093 40.2109L20.5628 38.9851L19.7241 38.1824L19.4053 39.0644Z" fill="#CFCCCC"/>
<path d="M23.5883 58.8503C25.0849 57.3037 23.9863 44.8645 23.9863 44.8645L17.5662 45.3563L16.2056 58.4699C16.2056 58.4699 22.0738 60.4146 23.5883 58.8503Z" fill="#EDA006"/>
<path d="M23.8252 58.4704L23.6297 60.1515C23.6297 60.1515 19.6708 60.4303 15.9344 60.1515C12.1976 59.8726 12.277 59.6152 12.277 59.6152L12.4499 58.2575C12.4499 58.2575 13.5899 58.3671 16.2059 58.4704C18.7476 58.5702 23.8252 58.4704 23.8252 58.4704Z" fill="#004877"/>
<path d="M16.2054 58.4698L15.3082 64.0234L14.3154 58.3825L16.2054 58.4698Z" fill="#EDA006"/>
<path d="M17.5665 45.3568C17.4095 44.1408 15.5202 38.9871 12.0097 39.0664C11.646 39.0753 10.8442 39.2748 10.8442 39.2748L12.8598 38.3412C12.8598 38.3412 13.6543 38.0294 15.2387 39.1991C16.8228 40.3679 18.719 43.1038 18.9539 45.2499C19.1885 47.396 17.754 46.8134 17.5665 45.3568Z" fill="#EDA006"/>
<path d="M23.9863 44.8642C23.9863 44.8642 23.6794 40.4348 22.1486 39.7506C21.4933 39.4575 21.2007 39.274 21.2007 39.274C21.2007 39.274 22.3389 41.4058 22.5937 43.1786C22.8481 44.9515 22.9267 46.2129 23.5079 46.1951C24.0894 46.1782 23.9863 44.8642 23.9863 44.8642Z" fill="#EDA006"/>
<path d="M10.6905 40.3635C9.03308 41.1617 9.17054 42.7368 10.0252 44.2744C10.8799 45.812 17.7486 53.902 18.3182 53.9902C18.8883 54.0793 21.114 52.6343 21.0233 51.8165C20.9324 50.9987 15.9008 43.1475 14.9723 42.0107C14.0439 40.8731 12.6324 39.4281 10.6905 40.3635Z" fill="#FFBD95"/>
<path d="M11.0869 39.5241C11.7879 39.542 14.0348 40.529 14.8143 41.6114C15.9193 43.1464 19.1079 46.9584 19.1079 46.9584C19.1079 46.9584 18.5333 48.268 17.1953 49.2684C15.6429 50.4284 14.2732 50.5059 14.2732 50.5059C14.2732 50.5059 9.45735 44.6956 9.17094 43.182C9.08533 42.7295 9.14305 39.4734 11.0869 39.5241Z" fill="#CFCCCC"/>
<path d="M17.7071 52.1329C16.7369 53.8835 20.5248 55.5761 22.4161 56.3093C24.3079 57.0425 30.0341 58.6211 30.0341 58.6211L30.95 56.6229C30.95 56.6229 26.6307 53.3409 21.5263 51.0469C21.0022 50.8118 18.6944 50.3512 17.7071 52.1329Z" fill="#FFBD95"/>
<path d="M33.3931 60.619L33.3942 60.6173C33.5156 60.4426 33.4721 60.1994 33.2978 60.0774L31.9365 59.1251C31.7603 59.0021 31.5168 59.0458 31.3946 59.2222L31.3936 59.2239C31.2721 59.3985 31.3156 59.6418 31.49 59.7638L32.8513 60.7153C33.0271 60.8382 33.271 60.7945 33.3931 60.619Z" fill="#FFBD95"/>
<path d="M33.8659 60.0616L33.8669 60.0598C33.9884 59.8852 33.9449 59.642 33.7705 59.5199L32.4091 58.5676C32.2334 58.4455 31.9894 58.4883 31.8673 58.6647L31.8662 58.6665C31.7448 58.8411 31.7883 59.0843 31.9627 59.2063L33.324 60.1587C33.4997 60.2816 33.7437 60.238 33.8659 60.0616Z" fill="#FFBD95"/>
<path d="M34.2936 59.4932L34.2946 59.4914C34.4161 59.3168 34.3725 59.0736 34.1982 58.9516L32.8369 57.9992C32.6611 57.8763 32.4172 57.9199 32.295 58.0963L32.294 58.0981C32.1725 58.2727 32.216 58.5159 32.3904 58.638L33.7518 59.5903C33.9275 59.7133 34.1715 59.6696 34.2936 59.4932Z" fill="#FFBD95"/>
<path d="M34.654 58.9034L34.6549 58.9025C34.7764 58.727 34.7329 58.4847 34.5585 58.3626L33.1972 57.4103C33.0214 57.2873 32.7775 57.331 32.6554 57.5074L32.6543 57.5092C32.5329 57.6838 32.5764 57.927 32.7507 58.0481L34.1121 59.0005C34.2878 59.1234 34.5318 59.0798 34.654 58.9034Z" fill="#FFBD95"/>
<path d="M29.565 55.9596C29.565 55.9596 32.2634 56.4852 32.7377 56.7364C33.2116 56.9867 34.6722 58.4932 34.6722 58.4932C34.6722 58.4932 33.7507 58.7017 33.5325 59.1302C33.3146 59.5587 32.8536 60.7168 32.8536 60.7168C32.8536 60.7168 31.1418 60.0923 30.4778 59.5649C29.8141 59.0375 29.2817 58.3649 29.2817 58.3649L29.565 55.9596Z" fill="#FFBD95"/>
<path d="M28.9435 40.5628C29.8587 42.3437 33.3725 40.1379 35.0341 38.9735C36.6961 37.8101 41.1933 33.9303 41.1933 33.9303L40.0428 32.0577C40.0428 32.0577 34.9127 33.8208 30.1663 36.7856C29.6788 37.0902 28.0123 38.7517 28.9435 40.5628Z" fill="#FFA47C"/>
<path d="M44.7203 32.2485L44.7196 32.2467C44.6416 32.0489 44.4158 31.95 44.2174 32.0266L42.6688 32.6289C42.4687 32.7064 42.3692 32.9335 42.4478 33.1331L42.4486 33.1349C42.5262 33.3326 42.7523 33.4315 42.9507 33.3549L44.4992 32.7527C44.699 32.6752 44.7986 32.4489 44.7203 32.2485Z" fill="#FFA47C"/>
<path d="M44.5208 31.5462L44.5202 31.5444C44.4422 31.3458 44.2163 31.2469 44.018 31.3244L42.4694 31.9257C42.2693 32.0032 42.1702 32.2304 42.2485 32.43L42.2491 32.4317C42.3271 32.6295 42.553 32.7284 42.7513 32.6518L44.2999 32.0505C44.5 31.9729 44.5991 31.7458 44.5208 31.5462Z" fill="#FFA47C"/>
<path d="M44.2857 30.8763L44.285 30.8745C44.207 30.6759 43.9812 30.577 43.7825 30.6545L42.2339 31.2558C42.0341 31.3333 41.9346 31.5605 42.0133 31.76L42.014 31.7618C42.0916 31.9596 42.3178 32.0585 42.5161 31.9819L44.0647 31.3805C44.2644 31.3021 44.364 31.0759 44.2857 30.8763Z" fill="#FFA47C"/>
<path d="M43.997 30.2469L43.9964 30.2451C43.9185 30.0474 43.6925 29.9485 43.4942 30.0251L41.9453 30.6264C41.7456 30.7048 41.646 30.9311 41.7247 31.1307L41.7253 31.1324C41.803 31.3311 42.0292 31.43 42.2275 31.3525L43.7761 30.7512C43.9758 30.6736 44.0754 30.4465 43.997 30.2469Z" fill="#FFA47C"/>
<path d="M38.7188 32.8388C38.7188 32.8388 40.6575 30.8887 41.1293 30.6348C41.6016 30.3801 43.6656 30.0041 43.6656 30.0041C43.6656 30.0041 43.3262 30.8861 43.5612 31.3057C43.7961 31.7253 44.5018 32.7524 44.5018 32.7524C44.5018 32.7524 43.0305 33.8277 42.2227 34.0861C41.415 34.3444 40.5604 34.4121 40.5604 34.4121L38.7188 32.8388Z" fill="#FFA47C"/>
<path d="M13.6094 28.3519C13.6094 28.3519 14.4679 24.7875 18.2332 25.2633C21.9985 25.7381 21.9359 29.6499 21.9359 29.6499C21.9359 29.6499 19.8632 29.8129 17.067 29.4601C14.2709 29.1074 13.6094 28.3519 13.6094 28.3519Z" fill="#EDA006"/>
<path d="M15.8418 29.2549C15.8418 29.2549 23.0937 31.2879 23.2023 31.2353C23.3108 31.1819 23.7991 30.8612 24.0225 30.7872C24.2456 30.7124 24.5313 30.9681 24.6106 30.8389C24.6903 30.7097 21.9192 29.3137 21.9192 29.3137C21.9192 29.3137 20.3491 29.4794 19.5744 29.54C18.7995 29.6006 15.8846 29.0073 15.8418 29.2549Z" fill="#004877"/>
<path d="M47.6452 46.5898C45.9459 46.5898 45.2996 44.972 45.1953 44.1159L45.6842 44.0562C45.6943 44.14 45.9599 46.0972 47.6452 46.0972C49.2898 46.0972 51.0652 43.6954 51.0652 39.8166C51.0652 39.0531 51.0503 38.2585 51.0353 37.4745C50.98 34.5115 50.9316 31.9529 51.6248 31.2464C51.764 31.1048 51.9356 31.0291 52.1207 31.0291H58.2381C60.3662 31.0291 62.0974 32.7609 62.0974 34.8892V41.5404H61.6047V34.8892C61.6047 33.0326 60.0947 31.5226 58.2381 31.5226H52.1207L51.9767 31.5903C51.4285 32.1498 51.4815 34.9738 51.5284 37.4656C51.543 38.2522 51.558 39.0504 51.558 39.8166C51.558 43.6143 49.839 46.5898 47.6452 46.5898Z" fill="black"/>
<path d="M44.9154 57.8613H39.8037V47.5442C39.8037 46.6774 40.5071 45.9736 41.3742 45.9736H44.9154V57.8613Z" fill="#9A9393"/>
<path d="M45.9006 43.8184H44.915V22.5988H45.9006V43.8184Z" fill="#3D3D3D"/>
<path d="M46.5939 37.5977H44.2227V33.0266H46.5939V37.5977Z" fill="#9A9393"/>
<path d="M39.8037 105.139H46.0022V60.3607H39.8037V105.139Z" fill="#BD0000"/>
<path d="M60.9014 105.139H63.8419V37.0237H60.9014V105.139Z" fill="#BD0000"/>
<path d="M36.7065 61.0234H60.9013V56.5246H36.7065V61.0234Z" fill="#BD0000"/>
<path d="M41.3213 33.0273H56.79V30.0064H41.3213V33.0273Z" fill="#BD0000"/>
<path d="M54.6514 32.1375L61.7056 39.1914L63.8419 37.0551L56.7878 30.0012L54.6514 32.1375Z" fill="#BD0000"/>
<path d="M68.996 106.062H34.1377V102.506H68.996V106.062Z" fill="#BD0000"/>
<path d="M62.4721 84.0898H42.7373V81.087H62.4721V84.0898Z" fill="#BD0000"/>
<path d="M48.6723 31.563C48.6723 32.8726 47.6105 33.9336 46.301 33.9336C44.9916 33.9336 43.9302 32.8726 43.9302 31.563C43.9302 30.2534 44.9916 29.1915 46.301 29.1915C47.6105 29.1915 48.6723 30.2534 48.6723 31.563Z" fill="#191919"/>
<path d="M47.1733 43.8184H43.7451V42.9061H47.1733V43.8184Z" fill="#9A9393"/>
<path d="M47.9152 44.3516H42.9653V43.8179H47.9152V44.3516Z" fill="#3D3D3D"/>
<path d="M48.467 56.5559L42.3598 63.2998V101.446L46.0022 102.506H39.8037V56.5229L48.467 56.5559Z" fill="#A10000"/>
<path d="M31.499 68.3163L27.5337 64.3511C26.6821 63.4994 26.6821 62.1061 27.5337 61.2544L43.9956 44.793C44.8472 43.9413 46.2405 43.9413 47.0921 44.793L51.0574 48.7582C51.909 49.6099 51.909 51.0032 51.0574 51.8549L34.5955 68.3163C33.744 69.168 32.3506 69.168 31.499 68.3163Z" fill="#191919"/>
<path d="M29.7695 66.5859L29.2632 66.0799L48.8216 46.5209L49.3278 47.0278L29.7695 66.5859Z" fill="black"/>
<path d="M30.9288 67.7461L30.7148 67.5323L50.2729 47.9742L50.4872 48.188L30.9288 67.7461Z" fill="black"/>
<path d="M31.7534 68.5723L31.5391 68.3576L51.0974 48.7995L51.3114 49.0142L31.7534 68.5723Z" fill="black"/>
<path d="M27.5323 64.3496L27.3184 64.1349L46.8767 44.5768L47.0907 44.7906L27.5323 64.3496Z" fill="black"/>
<path d="M28.3569 65.1738L28.1426 64.96L47.701 45.401L47.9149 45.6157L28.3569 65.1738Z" fill="black"/>
<path d="M46.3901 56.5215H51.1302V51.7776H46.3901V56.5215Z" fill="#8F8F8F"/>
<path d="M33.047 68.9551C32.6002 68.9551 32.153 68.8197 31.7744 68.5497L51.2827 49.0424C51.8708 49.8674 51.8253 51.0121 51.1303 51.7783C51.1299 51.7783 51.1299 51.7783 51.1296 51.7792C51.1268 51.7818 51.1243 51.7845 51.1216 51.7872C51.1212 51.7881 51.1205 51.7881 51.1201 51.789C51.1177 51.7916 51.1153 51.7943 51.1128 51.797C51.1122 51.7979 51.1111 51.7988 51.1104 51.7996C51.1084 51.8014 51.1062 51.8041 51.1042 51.8059C51.1028 51.8077 51.1017 51.8086 51.1007 51.8094C51.0986 51.8121 51.0969 51.8139 51.0948 51.8157C51.0934 51.8175 51.092 51.8192 51.0906 51.8201C51.0892 51.8219 51.0874 51.8237 51.0858 51.8255C51.084 51.8273 51.0823 51.829 51.0805 51.8308C51.0792 51.8326 51.0777 51.8335 51.0763 51.8353C51.0743 51.8371 51.0721 51.8397 51.0704 51.8415C51.069 51.8424 51.068 51.8442 51.067 51.8451C51.0635 51.8486 51.0604 51.8513 51.0572 51.8549L46.3903 56.5221L46.3651 56.5471L39.8034 63.1083L34.5953 68.3163C34.1697 68.7422 33.6084 68.9551 33.047 68.9551Z" fill="#0F0F0F"/>
<path d="M31.4987 68.3164L27.5334 64.3512C27.5302 64.3485 27.527 64.3449 27.5239 64.3414C27.527 64.3449 27.5302 64.3485 27.5334 64.3512L28.1424 64.9605L29.2629 66.0812L29.7692 66.5872L30.7147 67.5324L30.9287 67.7462L31.4987 68.3164Z" fill="#8F8F8F"/>
<path d="M31.5397 68.3574C31.5261 68.3441 31.5126 68.3307 31.4989 68.3173L30.929 67.7472L32.4622 66.2149C32.632 66.255 32.806 66.2755 32.9797 66.2755C33.2466 66.2755 33.5135 66.2274 33.7655 66.132L31.5394 68.3574H31.5397ZM30.715 67.5334L29.7694 66.5882L31.0758 65.2813L31.4319 65.6376C31.64 65.8461 31.8811 66.0029 32.1386 66.1098L30.715 67.5334ZM29.2631 66.0822L28.1426 64.9614L28.3569 65.1752L29.6633 63.8692L30.5699 64.7752L29.2631 66.0822ZM28.1426 64.9614L27.5336 64.3521C27.5305 64.3494 27.5273 64.3458 27.5242 64.3423C27.5234 64.3423 27.5228 64.3414 27.5225 64.3405L27.5322 64.3512L28.8385 63.0443L29.449 63.6545L28.1426 64.9614Z" fill="#0F0F0F"/>
<path d="M29.7695 66.5859L29.2632 66.0799L30.5699 64.773L31.0758 65.279L29.7695 66.5859Z" fill="black"/>
<path d="M27.3329 64.1211C26.7538 63.3505 26.7569 62.2797 27.3301 61.5046L27.4662 61.6712L28.6243 62.8302L27.3329 64.1211Z" fill="#0F0F0F"/>
<path d="M30.9288 67.7461L30.7148 67.5323L32.1385 66.1087C32.2439 66.1523 32.3522 66.1871 32.4621 66.2138L30.9288 67.7461Z" fill="black"/>
<path d="M31.7744 68.5508C31.6926 68.4929 31.6143 68.4278 31.5396 68.3575L33.7653 66.1321C34.0437 66.0252 34.3044 65.8604 34.5281 65.6376L50.9897 49.1753C51.0673 49.0978 51.1299 49.0114 51.1933 48.9259C51.2242 48.9642 51.2541 49.0034 51.2827 49.0435L31.7744 68.5508Z" fill="black"/>
<path d="M27.5325 64.3496L27.5228 64.3389C27.4539 64.2694 27.3909 64.1964 27.3335 64.1198L28.6249 62.8289L28.8389 63.0427L27.5325 64.3496Z" fill="black"/>
<path d="M28.3569 65.1738L28.1426 64.96L29.4489 63.6531L29.6633 63.8678L28.3569 65.1738Z" fill="black"/>
<path d="M60.9014 38.3867V102.506H61.8517V37.8833L60.9014 38.3867Z" fill="#A10000"/>
<defs>
<linearGradient id="paint0_linear" x1="146.008" y1="35.3623" x2="147.92" y2="35.3623" gradientUnits="userSpaceOnUse">
<stop stop-color="#403D39"/>
<stop offset="0.67094" stop-color="#B5B3B0"/>
<stop offset="1" stop-color="#B5B3B0"/>
</linearGradient>
<linearGradient id="paint1_linear" x1="124.666" y1="92.7506" x2="124.666" y2="73.5349" gradientUnits="userSpaceOnUse">
<stop stop-color="#9FB2B2"/>
<stop offset="0.52838" stop-color="#9FB2B2"/>
<stop offset="1" stop-color="#C6C6C6"/>
</linearGradient>
<linearGradient id="paint2_linear" x1="124.666" y1="90.3235" x2="124.666" y2="72.8949" gradientUnits="userSpaceOnUse">
<stop stop-color="#9FB2B2"/>
<stop offset="0.52838" stop-color="#9FB2B2"/>
<stop offset="1" stop-color="#C6C6C6"/>
</linearGradient>
<linearGradient id="paint3_linear" x1="124.666" y1="84.8419" x2="124.666" y2="78.2661" gradientUnits="userSpaceOnUse">
<stop stop-color="#9FB2B2"/>
<stop offset="0.52838" stop-color="#9FB2B2"/>
<stop offset="1" stop-color="#C6C6C6"/>
</linearGradient>
</defs>
</svg>
