<svg width="21" height="21" viewBox="0 0 21 21" fill="none" xmlns="http://www.w3.org/2000/svg">
<path d="M8.75153 1.26764H12.2612V1.8582H13.5287V1.18497C13.5289 0.531601 12.9976 0 12.3446 0H8.66821C8.01517 0 7.48389 0.531601 7.48389 1.18497V1.8582H8.75153V1.26764Z" fill="#F95555"/>
<path d="M16.4558 6.88086H4.55682C4.23078 6.88086 3.97411 7.159 4.00039 7.48408L4.99518 19.7849C5.05061 20.4716 5.62339 21.0005 6.31152 21.0005H14.701C15.3891 21.0005 15.9619 20.4716 16.0173 19.7848L17.0121 7.48408C17.0385 7.159 16.7819 6.88086 16.4558 6.88086ZM7.43801 19.6885C7.42471 19.6893 7.41141 19.6898 7.39828 19.6898C7.06598 19.6898 6.78705 19.431 6.76638 19.0949L6.14297 8.99653C6.1215 8.64709 6.3873 8.34637 6.73658 8.3249C7.08473 8.30375 7.38674 8.56891 7.40821 8.9185L8.03145 19.0168C8.05308 19.3663 7.78728 19.6668 7.43801 19.6885ZM11.1472 19.0559C11.1472 19.4058 10.8635 19.6896 10.5134 19.6896C10.1633 19.6896 9.87956 19.4058 9.87956 19.0559V8.95744C9.87956 8.60736 10.1633 8.32362 10.5134 8.32362C10.8633 8.32362 11.1472 8.60736 11.1472 8.95744V19.0559ZM14.8697 8.99477L14.2745 19.0931C14.2548 19.4299 13.9754 19.6896 13.6424 19.6896C13.6299 19.6896 13.6173 19.6893 13.6046 19.6886C13.2552 19.668 12.9886 19.368 13.0092 19.0186L13.6043 8.9201C13.6248 8.57067 13.9238 8.30407 14.2742 8.32474C14.6236 8.34525 14.8902 8.64533 14.8697 8.99477Z" fill="#F95555"/>
<path d="M18.6477 4.9236L18.2314 3.67583C18.1217 3.3469 17.8137 3.125 17.4669 3.125H3.54575C3.19904 3.125 2.89094 3.3469 2.78135 3.67583L2.36511 4.9236C2.28484 5.16425 2.3893 5.4097 2.58428 5.5321C2.66375 5.58193 2.7578 5.61189 2.86114 5.61189H18.1516C18.255 5.61189 18.3492 5.58193 18.4285 5.53194C18.6235 5.40954 18.7279 5.16409 18.6477 4.9236Z" fill="#F95555"/>
</svg>
