<svg width="24" height="24" viewBox="0 0 24 24" fill="none" xmlns="http://www.w3.org/2000/svg">
<path d="M12 9C10.3457 9 9 10.3457 9 12C9 13.6543 10.3457 15 12 15C13.6543 15 15 13.6543 15 12C15 10.3457 13.6543 9 12 9ZM12 14C10.8975 14 9.99998 13.1031 9.99998 12C9.99998 10.8969 10.8975 9.99998 12 9.99998C13.1025 9.99998 14 10.8969 14 12C14 13.1031 13.1025 14 12 14Z" fill="black"/>
<path d="M12 18C10.3457 18 9 19.3457 9 21C9 22.6543 10.3457 24 12 24C13.6543 24 15 22.6543 15 21C15 19.3457 13.6543 18 12 18ZM12 23C10.8975 23 9.99998 22.1031 9.99998 21C9.99998 19.8969 10.8975 19 12 19C13.1025 19 14 19.8969 14 21C14 22.1031 13.1025 23 12 23Z" fill="black"/>
<path d="M12 6C13.6543 6 15 4.65431 15 3C15 1.34569 13.6543 0 12 0C10.3457 0 9 1.34569 9 3C9 4.65431 10.3457 6 12 6ZM12 0.999984C13.1025 0.999984 14 1.89694 14 3C14 4.10306 13.1025 5.00002 12 5.00002C10.8975 5.00002 9.99998 4.10302 9.99998 3C9.99998 1.89698 10.8975 0.999984 12 0.999984Z" fill="black"/>
</svg>
