<svg width="29" height="29" viewBox="0 0 29 29" fill="none" xmlns="http://www.w3.org/2000/svg">
<path fill-rule="evenodd" clip-rule="evenodd" d="M14.5 29C22.5081 29 29 22.5081 29 14.5C29 6.49187 22.5081 0 14.5 0C6.49187 0 0 6.49187 0 14.5C0 22.5081 6.49187 29 14.5 29Z" fill="#FF7437"/>
<path fill-rule="evenodd" clip-rule="evenodd" d="M10.1495 14.4996C10.9503 14.4996 11.5995 13.8504 11.5995 13.0496C11.5995 12.2488 10.9503 11.5996 10.1495 11.5996C9.34865 11.5996 8.69946 12.2488 8.69946 13.0496C8.69946 13.8504 9.34865 14.4996 10.1495 14.4996Z" fill="#0A1A2E"/>
<rect x="9.1936" y="9.79492" width="3.625" height="1.45" rx="0.725" transform="rotate(25 9.1936 9.79492)" fill="#FFB18E"/>
<path fill-rule="evenodd" clip-rule="evenodd" d="M18.8488 14.4996C18.048 14.4996 17.3988 13.8504 17.3988 13.0496C17.3988 12.2488 18.048 11.5996 18.8488 11.5996C19.6496 11.5996 20.2988 12.2488 20.2988 13.0496C20.2988 13.8504 19.6496 14.4996 18.8488 14.4996Z" fill="#0A1A2E"/>
<rect width="3.625" height="1.45" rx="0.725" transform="matrix(-0.906308 0.422618 0.422618 0.906308 19.8047 9.79492)" fill="#FFB18E"/>
<path fill-rule="evenodd" clip-rule="evenodd" d="M10.4311 19.7317C9.29122 20.753 10.3015 22.2501 11.8213 22.0688L14.5004 21.7493L17.1795 22.0688C18.6993 22.2501 19.7096 20.753 18.5697 19.7317C17.6002 18.863 16.2588 18.1243 14.5004 18.1243C12.742 18.1243 11.4006 18.863 10.4311 19.7317Z" fill="#0A1A2E"/>
<mask id="mask0" mask-type="alpha" maskUnits="userSpaceOnUse" x="9" y="18" width="11" height="5">
<path fill-rule="evenodd" clip-rule="evenodd" d="M10.4311 19.7317C9.29122 20.753 10.3015 22.2501 11.8213 22.0688L14.5004 21.7493L17.1795 22.0688C18.6993 22.2501 19.7096 20.753 18.5697 19.7317C17.6002 18.863 16.2588 18.1243 14.5004 18.1243C12.742 18.1243 11.4006 18.863 10.4311 19.7317Z" fill="white"/>
</mask>
<g mask="url(#mask0)">
<rect x="11.6001" y="21.0254" width="5.8" height="5.075" rx="2.5375" fill="#FFB18E"/>
</g>
</svg>
