<svg width="40" height="18" viewBox="0 0 40 18" fill="none" xmlns="http://www.w3.org/2000/svg">
<path d="M23.3335 6.73438H20.6669V8.23114H23.3335V6.73438Z" fill="#99A3B4"/>
<path fill-rule="evenodd" clip-rule="evenodd" d="M0.572102 4.49701L5.10064 3.77116C5.92638 3.2018 6.78331 2.69212 7.66683 2.24486C10.5846 0.761489 13.7514 -0.00394287 16.9548 1.52729e-05H17.7414C21.5218 0.00305991 25.2417 1.06778 28.562 3.09706L30.8474 4.4964C33.5227 4.53019 36.1464 5.32881 38.4706 6.81583C39.4151 7.42386 39.9984 8.55191 40 9.77374V14.2168C40 14.6303 39.7016 14.9652 39.3332 14.9652H37.0947C36.3666 17.2965 34.0926 18.5241 32.0155 17.707C30.8721 17.2573 29.9734 16.2483 29.5728 14.9652H11.7613C11.0333 17.2965 8.75922 18.5241 6.68213 17.707C5.53901 17.2573 4.64003 16.2483 4.23936 14.9652H4.00011C3.9152 14.9652 3.83111 14.9473 3.75217 14.9119L1.59288 13.9395C0.628254 13.5108 -0.00352478 12.4628 0 11.2988V5.23778C0 4.86572 0.24387 4.54998 0.572102 4.49701ZM30.7205 14.0676C31.0154 15.687 32.4241 16.7317 33.867 16.4007C35.3101 16.0697 36.2408 14.4886 35.946 12.8689C35.6508 11.2494 34.2421 10.2048 32.7993 10.5357C31.5577 10.8204 30.6663 12.0465 30.6666 13.469C30.6666 13.6699 30.6847 13.8706 30.7205 14.0676ZM29.3333 13.4685H18.6665V5.98592H30.6666C33.1714 5.98683 35.6329 6.7206 37.8085 8.11476C38.3385 8.45516 38.6657 9.08814 38.6665 9.7735V13.4685H37.3332C37.3332 10.9889 35.5423 8.97884 33.3331 8.97884C31.1239 8.97884 29.3333 10.9889 29.3333 13.4685ZM18.6669 4.48952H28.0522L27.9237 4.41066C25.0735 2.67215 21.9075 1.68658 18.6669 1.52917V4.48952ZM16.9562 1.49622H17.3335V4.48944H10.2759L9.11193 3.18297C11.6073 2.06527 14.2695 1.49287 16.9562 1.49622ZM5.38754 14.0676C5.68241 15.687 7.09109 16.7317 8.53424 16.4007C9.97711 16.0697 10.9078 14.4886 10.613 12.8689C10.3181 11.2494 8.90913 10.2048 7.46626 10.5357C6.22467 10.8204 5.33329 12.0465 5.33356 13.469C5.33356 13.6699 5.35173 13.8706 5.38754 14.0676ZM3.33317 6.73448H1.33311V5.88654L5.4279 5.23041C5.51986 5.21549 5.60775 5.17926 5.68642 5.12415C6.36865 4.64735 7.07422 4.21409 7.79986 3.82651L9.52865 5.76688C9.65343 5.90724 9.82297 5.9861 9.99984 5.9861H17.333V13.4681H11.9977C11.9956 10.9894 10.206 8.98084 7.99761 8.97841C7.85764 8.97841 7.72445 8.98663 7.59098 9.00155C7.56216 9.00457 7.53408 9.00998 7.50587 9.01541C7.48576 9.01928 7.46559 9.02317 7.44504 9.02621C7.42159 9.03007 7.39806 9.03366 7.37454 9.03726C7.31456 9.04642 7.25459 9.05558 7.19575 9.06914C7.16655 9.0759 7.13824 9.08464 7.1099 9.09338C7.08847 9.09999 7.06704 9.10661 7.04519 9.11237C7.02467 9.11809 7.00412 9.12362 6.9836 9.12914C6.92655 9.14449 6.86966 9.15979 6.8138 9.17905C6.77812 9.1917 6.74771 9.20471 6.71343 9.21936C6.69324 9.228 6.67171 9.23721 6.64697 9.24725C6.6287 9.25462 6.60966 9.2621 6.59046 9.26964C6.53983 9.28952 6.48816 9.30981 6.44705 9.32946C6.40965 9.34713 6.37603 9.36587 6.33987 9.38601C6.32122 9.39641 6.3019 9.40717 6.28103 9.41836C6.2633 9.42788 6.24506 9.43747 6.2268 9.44707C6.18192 9.47067 6.13683 9.49438 6.09847 9.51732C6.04449 9.54928 5.99783 9.58217 5.94032 9.62418C5.9118 9.64512 5.88261 9.66432 5.85389 9.6832C5.82496 9.70223 5.79651 9.72094 5.7697 9.7408C5.73135 9.76956 5.69427 9.80134 5.65755 9.83281C5.64335 9.84497 5.62921 9.85709 5.61507 9.86898C5.598 9.8834 5.58081 9.89723 5.56357 9.91109C5.52987 9.9382 5.49601 9.96543 5.46262 9.99746C5.43243 10.0264 5.40273 10.0576 5.37391 10.0878C5.35429 10.1084 5.33508 10.1285 5.31641 10.1473C5.30269 10.1611 5.28902 10.1745 5.27537 10.1879C5.24338 10.2193 5.21146 10.2506 5.17915 10.2873C5.15585 10.3139 5.13249 10.3434 5.10973 10.3722C5.0877 10.4 5.06623 10.4271 5.04595 10.4502L5.04236 10.4543C5.00214 10.5 4.96334 10.5441 4.92198 10.6C4.88785 10.6461 4.85442 10.6971 4.82363 10.7441C4.81601 10.7557 4.80854 10.7671 4.80127 10.7781C4.7879 10.7983 4.77471 10.8176 4.76149 10.837C4.7385 10.8706 4.71542 10.9044 4.69114 10.9434C4.65316 11.0046 4.61654 11.0728 4.5867 11.1328C4.57273 11.1605 4.55764 11.1872 4.54235 11.2142C4.52468 11.2454 4.50672 11.2771 4.48985 11.3115C4.46918 11.3541 4.45018 11.3991 4.43159 11.4431C4.42212 11.4655 4.41275 11.4877 4.40332 11.5091C4.39499 11.5281 4.38634 11.5469 4.37769 11.5657C4.35733 11.6098 4.33696 11.654 4.32058 11.7013C4.30777 11.7384 4.29578 11.7763 4.28379 11.8142C4.27396 11.8454 4.26413 11.8765 4.25385 11.9071C4.24734 11.9268 4.24069 11.9464 4.23405 11.966C4.21773 12.0141 4.20147 12.062 4.18739 12.1114C4.17476 12.1553 4.16481 12.2 4.15484 12.2448C4.14897 12.2712 4.1431 12.2976 4.13667 12.3239C4.13317 12.3383 4.12958 12.3528 4.12598 12.3674C4.11169 12.4253 4.0971 12.4844 4.08648 12.5389C4.07743 12.5851 4.0709 12.6345 4.06423 12.685C4.0611 12.7087 4.05794 12.7326 4.05447 12.7565C4.0514 12.7782 4.04809 12.7999 4.04478 12.8217C4.03672 12.8747 4.02863 12.9278 4.02382 12.9809C4.01973 13.0279 4.01768 13.0772 4.01571 13.1244C4.01454 13.1524 4.0134 13.1797 4.01188 13.2053C4.01055 13.2278 4.00882 13.2503 4.00708 13.2727C4.00351 13.3188 3.99995 13.3648 3.99995 13.4112L2.08778 12.5492C1.63097 12.3467 1.33149 11.8505 1.33311 11.2991V8.23124H3.33317V6.73448Z" fill="#99A3B4"/>
</svg>
