<svg width="36" height="24" viewBox="0 0 36 24" fill="none" xmlns="http://www.w3.org/2000/svg">
<path d="M0.947241 22.0697C1.10057 22.3617 1.4028 22.5382 1.73552 22.5382L1.75748 22.538L1.75806 22.5379C3.13979 22.5048 4.72924 22.4534 6.2228 22.1736C7.71515 21.8941 9.1302 21.3833 10.1511 20.4178L10.1511 20.4177C10.182 20.3885 10.2293 20.3742 10.2803 20.3858L10.2805 20.3859C11.5089 20.6662 12.7873 20.8082 14.0801 20.8082C17.3672 20.8081 20.6481 19.8231 23.111 18.0863C25.5752 16.3487 27.2301 13.85 27.2301 10.829C27.2301 7.79955 25.569 5.30083 23.1019 3.56534C20.636 1.83074 17.3551 0.85 14.0801 0.85C10.7919 0.85 7.51104 1.83535 5.04837 3.57231C2.58446 5.31013 0.930065 7.80883 0.930065 10.829C0.930065 13.1155 1.97105 15.3433 3.84793 17.1044M0.947241 22.0697L1.08004 22L0.947249 22.0697C0.947247 22.0697 0.947244 22.0697 0.947241 22.0697ZM0.947241 22.0697C0.78988 21.7701 0.825715 21.4175 1.03865 21.1534C1.17828 20.9802 1.38308 20.778 1.61305 20.5509C1.62675 20.5374 1.64054 20.5237 1.65441 20.51C1.90408 20.2634 2.18675 19.982 2.46946 19.6597C3.03493 19.0149 3.59474 18.2122 3.87701 17.2174C3.8894 17.1737 3.87654 17.1313 3.84793 17.1044M3.84793 17.1044L3.95057 16.995L3.84791 17.1044C3.84791 17.1044 3.84792 17.1044 3.84793 17.1044ZM2.59129 21.2465C2.71877 21.0982 2.86251 20.943 3.01737 20.7773C3.03819 20.755 3.0592 20.7326 3.08037 20.7099C3.30789 20.4668 3.55479 20.2029 3.79739 19.9137C4.3285 19.2805 4.84608 18.5182 5.12075 17.55C5.25812 17.0658 5.11322 16.5498 4.74446 16.2037L4.74445 16.2037C3.08736 14.6488 2.2201 12.7903 2.2201 10.829C2.2201 8.44066 3.53431 6.26245 5.68086 4.67594C7.8273 3.0895 10.7978 2.10249 14.0801 2.10249C17.3623 2.10249 20.3328 3.08949 22.4793 4.67592C24.6258 6.26242 25.94 8.44063 25.94 10.829C25.94 13.2174 24.6258 15.3956 22.4793 16.9821C20.3328 18.5685 17.3623 19.5555 14.0801 19.5555C12.886 19.5555 11.707 19.4245 10.5757 19.1665C10.0977 19.0573 9.60179 19.1885 9.25082 19.5205C8.29346 20.4261 6.94051 20.8418 5.61799 21.0398C4.667 21.1822 3.75224 21.2101 3.02223 21.2323C2.87011 21.237 2.72602 21.2414 2.59129 21.2465Z" fill="#99A3B4" stroke="#99A3B4" stroke-width="0.3"/>
<path d="M28.1592 6.48438L28.1593 6.48438C30.5692 6.78251 32.3024 7.61912 33.4334 8.81873C34.5652 10.0192 35.0801 11.5684 35.0801 13.2637C35.0801 15.6992 33.2967 17.9059 30.3734 19.1898C30.3542 19.1982 30.3437 19.2098 30.3389 19.2185C30.3343 19.2267 30.3339 19.2334 30.3354 19.2392C30.6021 20.3285 31.2676 21.3412 31.6452 21.8523L31.6452 21.8524C31.8356 22.1101 31.8381 22.4377 31.6514 22.6977L31.6513 22.6978C31.4673 22.9539 31.146 23.0826 30.8198 23.0496L30.8198 23.0496C30.1808 22.9849 29.0793 22.822 27.9655 22.4183C26.8539 22.0153 25.7118 21.3659 25.0149 20.3164L28.1592 6.48438ZM28.1592 6.48438C27.8271 6.44335 27.4865 6.64257 27.4321 6.97486M28.1592 6.48438L27.9827 7.63531M27.9827 7.63531L27.9827 7.63531C27.6478 7.59385 27.3766 7.31373 27.4321 6.97486M27.9827 7.63531C30.0971 7.89687 31.5447 8.60669 32.4638 9.59024C33.3821 10.5729 33.7884 11.8454 33.7884 13.2637C33.7884 15.2046 32.3254 17.0392 29.8054 18.146L29.8054 18.146M27.9827 7.63531L29.8054 18.146M27.4321 6.97486L27.5801 6.99911L27.4321 6.9749C27.4321 6.97489 27.4321 6.97487 27.4321 6.97486ZM29.8054 18.146C29.2541 18.3881 28.9384 18.9362 29.074 19.49L29.2197 19.4543M29.8054 18.146L29.2197 19.4543M29.2197 19.4543L29.074 19.49C29.2866 20.3583 29.7038 21.1672 30.0807 21.775C27.4388 21.3172 26.4371 20.1914 26.1238 19.7196L25.9988 19.8026M29.2197 19.4543L25.9988 19.8026M25.9988 19.8026L26.1238 19.7196C25.8758 19.3461 25.4204 19.1241 24.9398 19.1241L24.936 19.1241L24.9358 19.1241M25.9988 19.8026L24.9358 19.1241M24.9358 19.1241L24.8996 19.1242C24.8996 19.1242 24.8995 19.1242 24.8994 19.1242C24.3556 19.1242 23.8111 19.0914 23.2815 19.0267C22.9496 18.9861 22.609 19.186 22.5553 19.5184C22.5005 19.8574 22.7722 20.137 23.1073 20.1779C23.6948 20.2496 24.2978 20.2859 24.8996 20.2859L24.8999 20.2859M24.9358 19.1241L24.8999 20.2859M24.8999 20.2859L24.94 20.2859M24.8999 20.2859L24.94 20.2859M24.94 20.2859C24.94 20.2859 24.9401 20.2859 24.9401 20.2859M24.94 20.2859H24.9401M24.9401 20.2859C24.9818 20.2859 25.0073 20.305 25.0149 20.3163L24.9401 20.2859Z" fill="#99A3B4" stroke="#99A3B4" stroke-width="0.3"/>
</svg>
