<svg width="24" height="23" viewBox="0 0 24 23" fill="none" xmlns="http://www.w3.org/2000/svg">
<path id="Combined Shape" fill-rule="evenodd" clip-rule="evenodd" d="M13.827 18.4676C11.6072 18.4676 9.56092 17.7632 7.92314 16.5772L1.91393 21.732C1.44475 22.1344 0.720369 22.1 0.295982 21.655C-0.128406 21.2101 -0.0920951 20.5231 0.377083 20.1207L6.27434 15.0619C4.90893 13.4725 4.09027 11.4438 4.09027 9.23382C4.09027 4.13412 8.44954 0 13.827 0C19.2044 0 23.5637 4.13412 23.5637 9.23382C23.5637 14.3335 19.2044 18.4676 13.827 18.4676ZM21.2726 9.23273C21.2726 13.1325 17.939 16.2939 13.8268 16.2939C9.71469 16.2939 6.38112 13.1325 6.38112 9.23273C6.38112 5.33296 9.71469 2.17157 13.8268 2.17157C17.939 2.17157 21.2726 5.33296 21.2726 9.23273Z" fill="#99A3B4"/>
</svg>
