<svg width="239" height="312" viewBox="0 0 239 312" fill="none" xmlns="http://www.w3.org/2000/svg">
<path d="M119.02 311.869C88.4638 311.869 57.9438 305.117 34.7038 291.613C-11.7802 264.602 -11.5362 220.809 35.2505 193.8C58.6465 180.293 89.2465 173.54 119.809 173.54C150.365 173.54 180.883 180.292 204.12 193.794C250.605 220.807 250.35 264.602 203.564 291.613C180.172 305.117 149.577 311.869 119.02 311.869Z" fill="#DFDFDF"/>
<path d="M188.995 210.17C185.555 212.173 182.113 214.169 178.674 216.169C178.015 216.553 177.149 216.516 176.206 215.968L186.53 209.97C187.474 210.519 188.339 210.555 188.995 210.17Z" fill="#1D374F"/>
<path d="M188.995 210.17C185.555 212.173 182.113 214.169 178.674 216.169C178.015 216.553 177.149 216.516 176.206 215.968L186.53 209.97C187.474 210.519 188.339 210.555 188.995 210.17Z" fill="#1D374F"/>
<path d="M176.206 215.968L186.53 209.971L186.635 210.027L176.311 216.031L176.206 215.968Z" fill="#1D374F"/>
<path d="M176.312 216.031L186.635 210.027L186.766 210.099L176.444 216.098L176.312 216.031Z" fill="#1D374F"/>
<path d="M176.443 216.099L186.766 210.1L186.899 210.162L176.578 216.162L176.443 216.099Z" fill="#1D374F"/>
<path d="M176.578 216.161L186.899 210.161L187.033 210.22L176.707 216.215L176.578 216.161Z" fill="#1D374F"/>
<path d="M176.708 216.216L187.033 210.221L187.164 210.269L176.842 216.268L176.708 216.216Z" fill="#1D374F"/>
<path d="M176.842 216.268L187.164 210.269L187.301 210.313L176.977 216.311L176.842 216.268Z" fill="#1D374F"/>
<path d="M176.977 216.311L187.301 210.313L187.434 210.35L177.11 216.348L176.977 216.311Z" fill="#1D374F"/>
<path d="M177.11 216.347L187.434 210.349L187.577 210.382L177.254 216.379L177.11 216.347Z" fill="#1D374F"/>
<path d="M177.254 216.38L187.577 210.382L187.721 210.405L177.396 216.406L177.254 216.382V216.38Z" fill="#1D374F"/>
<path d="M177.396 216.405L187.721 210.404L187.877 210.422L177.55 216.42L177.396 216.405Z" fill="#1D374F"/>
<path d="M177.55 216.42L187.877 210.422L188.038 210.424L177.718 216.422L177.55 216.42Z" fill="#1D374F"/>
<path d="M177.718 216.422L188.038 210.424L188.217 210.416L177.894 216.418L177.718 216.422Z" fill="#1D374F"/>
<path d="M177.894 216.418L188.217 210.417L188.426 210.387L178.103 216.385L177.894 216.418Z" fill="#1D374F"/>
<path d="M178.104 216.385L188.426 210.387L188.682 210.317L178.36 216.318L178.104 216.385Z" fill="#1D374F"/>
<path d="M178.359 216.318L188.682 210.317L188.995 210.172L178.674 216.17L178.359 216.318Z" fill="#1D374F"/>
<path d="M188.995 210.17C185.555 212.173 182.113 214.169 178.674 216.169C178.015 216.553 177.149 216.516 176.206 215.968L186.53 209.97C187.474 210.519 188.339 210.555 188.995 210.17Z" fill="#1D374F"/>
<path d="M128.93 176.716C128.809 176.644 128.69 176.566 128.568 176.483L128.537 176.463L128.194 176.194L128.188 176.188L128.181 176.179L127.845 175.876L127.816 175.847L127.5 175.514L127.488 175.5C127.382 175.38 127.28 175.255 127.181 175.128L127.15 175.088L126.922 174.782L126.84 174.662L126.72 174.471L126.541 174.187C126.374 173.912 126.224 173.624 126.085 173.332L126.068 173.29C125.998 173.14 125.936 172.992 125.876 172.842L125.86 172.802C125.729 172.475 125.618 172.144 125.529 171.814L125.522 171.784C125.478 171.626 125.437 171.468 125.408 171.312L125.398 171.264C125.366 171.108 125.34 170.958 125.316 170.803L125.31 170.751C125.288 170.594 125.27 170.44 125.258 170.287V170.252C125.245 170.088 125.238 169.924 125.238 169.764L125.472 87.5591L115.149 93.5577L114.917 175.762L114.92 175.974L114.928 176.202L114.933 176.252L114.938 176.284L114.949 176.43L114.973 176.66L114.986 176.747L114.992 176.8L115.006 176.888L115.048 177.126L115.076 177.272L115.084 177.3L115.096 177.364L115.15 177.606L115.198 177.784L115.205 177.812L115.214 177.846L115.282 178.08L115.356 178.311L115.434 178.531L115.514 178.743L115.536 178.8L115.552 178.842L115.597 178.95L115.684 179.154L115.75 179.299L115.758 179.318L115.777 179.352L115.878 179.571L115.994 179.792L116.186 180.136L116.222 180.192L116.393 180.464L116.49 180.626L116.492 180.623L116.49 180.626L116.524 180.669L116.594 180.772L116.72 180.951L116.832 181.097L116.856 181.126L116.874 181.152L117.012 181.321L117.149 181.48L117.165 181.499L117.177 181.515L117.285 181.633L117.424 181.78L117.494 181.847L117.522 181.875L117.569 181.921L117.717 182.059L117.864 182.187L118.013 182.31L118.154 182.418L118.217 182.463L118.246 182.481L118.3 182.521L118.438 182.61L118.577 182.693L118.605 182.717L176.206 215.967L186.53 209.969L128.93 176.716Z" fill="#1D374F"/>
<path d="M128.568 176.485L128.537 176.465L128.194 176.195L128.188 176.19L128.181 176.181L127.845 175.878L127.816 175.849L127.5 175.515L127.488 175.502C127.382 175.382 127.28 175.257 127.181 175.13L127.15 175.09L126.922 174.783L126.84 174.663L126.72 174.473L126.541 174.189C126.374 173.914 126.224 173.626 126.085 173.334L126.068 173.291C125.998 173.142 125.936 172.994 125.876 172.843L125.86 172.803C125.729 172.477 125.618 172.146 125.529 171.815L125.522 171.786C125.478 171.627 125.437 171.47 125.408 171.314L125.398 171.266C125.366 171.11 125.34 170.959 125.316 170.805L125.31 170.753C125.288 170.595 125.27 170.442 125.258 170.289V170.254C125.245 170.09 125.238 169.926 125.238 169.766L125.472 87.5607L119.354 91.1167L119.121 172.989L119.125 173.201L119.134 173.429L119.14 173.479L119.142 173.514L119.15 173.659L119.18 173.887L119.192 173.977L119.2 174.027L119.213 174.118L119.254 174.353L119.281 174.502L119.288 174.529L119.301 174.591L119.357 174.831L119.404 175.011L119.413 175.042L119.42 175.073L119.489 175.31L119.564 175.541L119.641 175.761L119.72 175.973L119.74 176.026L119.757 176.069L119.802 176.181L119.888 176.383L119.956 176.529L119.964 176.547L119.981 176.582L120.086 176.799L120.2 177.022L120.392 177.366L120.426 177.422L120.596 177.695L120.697 177.851L120.725 177.897L120.8 177.998L120.925 178.178L121.037 178.321L121.06 178.351L121.081 178.379L121.217 178.551L121.354 178.71L121.368 178.728L121.38 178.742L121.489 178.858L121.629 179.01L121.7 179.078L121.726 179.107L121.774 179.147L121.922 179.289L122.068 179.414L122.218 179.537L122.361 179.646L122.422 179.69L122.449 179.711L122.506 179.749L122.644 179.839L122.781 179.926L122.816 179.946L180.41 213.199L186.248 209.81L128.93 176.718C128.809 176.646 128.69 176.567 128.568 176.485Z" fill="#00091C"/>
<path d="M180.41 131.239L180.18 213.442C180.169 216.278 178.386 217.563 176.205 216.303L118.605 183.05C116.424 181.791 114.656 178.452 114.664 175.616L114.897 93.4137L115.149 93.5577L114.917 175.762C114.909 178.416 116.566 181.539 118.605 182.717L176.206 215.967C178.249 217.148 179.916 215.948 179.922 213.292L180.16 131.094L180.41 131.239Z" fill="#1D374F"/>
<path d="M180.41 131.24L180.179 213.443C180.179 213.627 180.168 213.805 180.154 213.974L180.149 214.017C180.137 214.18 180.116 214.331 180.088 214.476L180.076 214.527C180.049 214.672 180.016 214.812 179.976 214.939L179.954 215.004L179.837 215.313L179.8 215.401L179.669 215.655L179.613 215.748L179.412 216.031L179.354 216.092L179.174 216.27L179.105 216.336L178.841 216.516C182.285 214.516 185.725 212.516 189.163 210.519L189.428 210.332L189.497 210.276L189.677 210.091L189.733 210.027L189.928 209.767L189.941 209.748L189.984 209.664L190.102 209.449L190.121 209.401L190.158 209.321L190.222 209.17L190.279 208.993L190.297 208.945L190.31 208.908L190.37 208.66L190.4 208.527L190.407 208.479L190.422 208.42L190.454 208.18L190.474 208.016L190.477 207.979L190.482 207.939L190.497 207.7L190.5 207.457V207.445L190.734 125.239L180.41 131.24Z" fill="#1D374F"/>
<path d="M189.428 210.332L189.497 210.276L189.677 210.09L189.733 210.026L189.928 209.766L189.941 209.748L189.983 209.664L190.102 209.449L190.121 209.401L190.158 209.321L190.222 209.17L190.279 208.993L190.297 208.945L190.31 208.908L190.37 208.66L190.4 208.526L190.407 208.478L190.422 208.42L190.454 208.179L190.474 208.015L190.477 207.978L190.482 207.938L190.497 207.7L190.5 207.457V207.445L190.729 127.689L184.62 131.24L184.386 213.293C185.978 212.369 187.574 211.443 189.163 210.518L189.428 210.332Z" fill="#1D374F"/>
<path d="M101.176 255.32C97.7356 257.325 94.2942 259.324 90.8529 261.321C90.1956 261.705 89.3316 261.669 88.3862 261.121L98.7076 255.124C99.6543 255.672 100.518 255.703 101.176 255.32Z" fill="#1D374F"/>
<path d="M101.176 255.32C97.7356 257.325 94.2942 259.324 90.8529 261.321C90.1956 261.705 89.3316 261.669 88.3862 261.121L98.7076 255.124C99.6543 255.672 100.518 255.703 101.176 255.32Z" fill="#1D374F"/>
<path d="M88.3862 261.122L98.7076 255.124L98.8129 255.18L88.4916 261.182L88.3862 261.122Z" fill="#1D374F"/>
<path d="M88.4915 261.182L98.8128 255.181L98.9461 255.251L88.6248 261.25L88.4915 261.182Z" fill="#1D374F"/>
<path d="M88.6248 261.248L98.9461 255.25L99.0794 255.311L88.7568 261.312L88.6248 261.248Z" fill="#1D374F"/>
<path d="M88.7568 261.314L99.0795 255.313L99.2128 255.37L88.8902 261.367L88.7568 261.314Z" fill="#1D374F"/>
<path d="M88.8901 261.367L99.2128 255.37L99.3435 255.418L89.0221 261.418L88.8901 261.367Z" fill="#1D374F"/>
<path d="M89.0222 261.417L99.3436 255.417L99.4796 255.463L89.1569 261.461L89.0222 261.417Z" fill="#1D374F"/>
<path d="M89.1567 261.461L99.4794 255.463L99.614 255.5L89.2927 261.5L89.1567 261.461Z" fill="#1D374F"/>
<path d="M89.293 261.501L99.6143 255.501L99.757 255.534L89.4342 261.531L89.293 261.501Z" fill="#1D374F"/>
<path d="M89.4341 261.53L99.7568 255.533L99.9021 255.555L89.5768 261.557L89.4341 261.53Z" fill="#1D374F"/>
<path d="M89.5769 261.558L99.9022 255.556L100.057 255.572L89.7329 261.572L89.5769 261.558Z" fill="#1D374F"/>
<path d="M89.7329 261.572L100.057 255.572L100.22 255.576L89.8982 261.576L89.7329 261.572Z" fill="#1D374F"/>
<path d="M89.8982 261.576L100.22 255.576L100.398 255.569L90.0755 261.569L89.8982 261.576Z" fill="#1D374F"/>
<path d="M90.0754 261.57L100.398 255.57L100.607 255.538L90.2821 261.537L90.0754 261.57Z" fill="#1D374F"/>
<path d="M90.2822 261.535L100.608 255.536L100.865 255.467L90.5409 261.466L90.2822 261.535Z" fill="#1D374F"/>
<path d="M90.5408 261.467L100.865 255.468L101.175 255.32L90.8528 261.322L90.5408 261.467Z" fill="#1D374F"/>
<path d="M101.176 255.32C97.7356 257.325 94.2942 259.324 90.8529 261.321C90.1956 261.705 89.3316 261.669 88.3862 261.121L98.7076 255.124C99.6543 255.672 100.518 255.703 101.176 255.32Z" fill="#1D374F"/>
<path d="M41.1127 221.869C40.9887 221.8 40.87 221.718 40.7473 221.636L40.7207 221.617L40.3727 221.345L40.3673 221.342L40.358 221.334L40.0247 221.029L39.9953 221.002L39.6807 220.669L39.6687 220.65C39.5634 220.536 39.458 220.41 39.3607 220.282L39.33 220.241L39.1033 219.931L39.0193 219.813L38.8993 219.626L38.7207 219.344C38.554 219.064 38.4046 218.777 38.2646 218.479L38.2487 218.442C38.1807 218.293 38.1154 218.145 38.0567 217.994L38.038 217.955C37.9114 217.629 37.7993 217.3 37.7087 216.966L37.7007 216.937C37.658 216.778 37.618 216.619 37.5887 216.462L37.578 216.414C37.5473 216.264 37.5193 216.107 37.4953 215.954L37.49 215.902C37.4687 215.745 37.4514 215.591 37.438 215.437L37.4367 215.405C37.4247 215.238 37.418 215.077 37.418 214.915L37.6514 132.714L27.3286 138.71L27.0967 220.914L27.0993 221.126L27.11 221.354L27.1127 221.403L27.118 221.439L27.1273 221.579L27.1527 221.81L27.166 221.903L27.1727 221.954L27.186 222.043L27.2286 222.277L27.2553 222.422L27.2607 222.45L27.2767 222.517L27.33 222.757L27.3767 222.934L27.3874 222.965L27.3927 222.998L27.4646 223.234L27.5354 223.461L27.614 223.683L27.6953 223.897L27.7154 223.954L27.734 223.994L27.7767 224.105L27.866 224.306L27.9273 224.453L27.9367 224.47L27.9553 224.506L28.0607 224.724L28.1753 224.946L28.3673 225.288L28.4033 225.349L28.5714 225.617L28.6714 225.773H28.6753H28.6714L28.702 225.819L28.7727 225.921L28.902 226.101L29.01 226.246L29.0327 226.278L29.0553 226.305L29.194 226.477L29.33 226.636L29.346 226.654L29.358 226.665L29.4673 226.785L29.6033 226.93L29.674 227L29.6993 227.027L29.7487 227.073L29.8953 227.212L30.0447 227.343L30.194 227.462L30.3367 227.569L30.398 227.617L30.4247 227.634L30.4807 227.676L30.618 227.765L30.758 227.849L30.7874 227.87L88.386 261.121L98.7074 255.124L41.1127 221.869Z" fill="#1D374F"/>
<path d="M40.7476 221.636L40.7209 221.618L40.3729 221.346L40.3675 221.343L40.3582 221.335L40.0249 221.03L39.9955 221.003L39.6809 220.67L39.6689 220.651C39.5636 220.536 39.4582 220.411 39.3609 220.283L39.3302 220.242L39.1035 219.932L39.0196 219.813L38.8996 219.627L38.7209 219.344C38.5543 219.064 38.4049 218.778 38.2649 218.48L38.2489 218.443C38.1809 218.294 38.1156 218.146 38.0569 217.995L38.0382 217.956C37.9116 217.63 37.7996 217.3 37.7089 216.967L37.7009 216.937C37.6582 216.779 37.6182 216.62 37.5889 216.463L37.5782 216.415C37.5476 216.264 37.5195 216.108 37.4955 215.955L37.4903 215.903C37.4689 215.746 37.4516 215.592 37.4382 215.437L37.4369 215.406C37.4249 215.239 37.4183 215.078 37.4183 214.916L37.6516 132.715L31.5329 136.268L31.3022 218.143L31.3049 218.355L31.3156 218.58L31.3183 218.628L31.3196 218.666L31.3315 218.811L31.3596 219.039L31.3716 219.131L31.3796 219.18L31.3929 219.272L31.4329 219.508L31.4622 219.651L31.4689 219.682L31.4796 219.742L31.5369 219.983L31.5836 220.163L31.5903 220.192L31.6009 220.224L31.6689 220.461L31.7422 220.692L31.8196 220.912L31.8996 221.125L31.9222 221.182L31.9382 221.223L31.9823 221.33L32.0689 221.535L32.1382 221.682L32.1449 221.695L32.1609 221.735L32.2649 221.952L32.3809 222.172L32.5702 222.516L32.6049 222.579L32.7782 222.846L32.8743 223.004L32.9089 223.048L32.9809 223.149L33.1049 223.332L33.2183 223.475L33.2409 223.506L33.2622 223.531L33.3969 223.703L33.5342 223.864L33.5502 223.88L33.5649 223.895L33.6689 224.013L33.8089 224.159L33.8782 224.231L33.9062 224.258L33.9543 224.301L34.1049 224.44L34.2489 224.568L34.3996 224.688L34.5422 224.798L34.6022 224.843L34.6289 224.86L34.6862 224.904L34.8222 224.994L34.9622 225.078L34.9955 225.095L92.5903 258.354L98.4249 254.961L41.1129 221.87C40.9889 221.8 40.8702 221.719 40.7476 221.636Z" fill="#00091C"/>
<path d="M92.5901 176.391L92.3608 258.594C92.3514 261.43 90.5675 262.718 88.3848 261.457L30.7875 228.203C28.6048 226.944 26.8368 223.608 26.8448 220.769L27.0795 138.568L27.3287 138.711L27.0968 220.915C27.0888 223.57 28.7475 226.689 30.7875 227.87L88.3861 261.121C90.4288 262.301 92.0954 261.101 92.1034 258.449L92.3394 176.244L92.5901 176.391Z" fill="#1D374F"/>
<path d="M92.5905 176.391L92.3611 258.595C92.3611 258.779 92.3505 258.956 92.3358 259.127L92.3305 259.171C92.3171 259.332 92.2958 259.483 92.2665 259.628L92.2572 259.68C92.2305 259.825 92.1985 259.961 92.1545 260.092L92.1344 260.154L92.0171 260.466L91.9811 260.554L91.8478 260.804L91.7945 260.902L91.5905 261.182L91.5331 261.242L91.3558 261.423L91.2838 261.486L91.0225 261.67C94.4638 259.668 97.9065 257.671 101.346 255.673L101.609 255.484L101.677 255.428L101.858 255.241L101.914 255.18L102.108 254.919L102.118 254.899L102.164 254.819L102.282 254.602L102.305 254.551L102.34 254.474L102.404 254.323L102.462 254.143L102.478 254.101L102.488 254.062L102.552 253.813L102.581 253.678L102.59 253.634L102.6 253.573L102.637 253.33L102.654 253.168L102.656 253.131L102.662 253.091L102.678 252.853L102.681 252.613V252.596L102.918 170.395L92.5905 176.391Z" fill="#1D374F"/>
<path d="M101.609 255.484L101.677 255.428L101.858 255.24L101.914 255.18L102.107 254.918L102.118 254.899L102.163 254.818L102.282 254.601L102.305 254.551L102.339 254.473L102.403 254.323L102.462 254.142L102.478 254.1L102.487 254.061L102.551 253.812L102.581 253.677L102.59 253.633L102.599 253.572L102.637 253.329L102.654 253.168L102.655 253.131L102.662 253.091L102.678 252.852L102.681 252.612V252.596L102.909 172.843L96.8021 176.391L96.5674 258.449C98.1607 257.519 99.7528 256.594 101.346 255.672L101.609 255.484Z" fill="#1D374F"/>
<path d="M14.229 144.227L14.241 147.851L91.9197 192.996L91.9077 189.368L14.229 144.227Z" fill="#9CCCDE"/>
<path d="M91.9072 189.368L91.9192 192.996L200.822 130.12L200.814 126.492L91.9072 189.368Z" fill="#83A8B4"/>
<path d="M14.229 144.226L91.9077 189.367L200.814 126.491L123.136 81.3488L14.229 144.226Z" fill="#C0E3F7"/>
<path d="M109.728 102.939L109.732 104.636L110.69 107.539L110.685 105.846L109.728 102.939Z" fill="#616662"/>
<path d="M111.021 109.911L111.025 111.605C111.141 111.541 113.408 110.208 113.404 108.388L113.398 106.692C113.404 108.511 111.136 109.845 111.021 109.911Z" fill="#4F534F"/>
<path d="M98.4912 106.739L98.4952 108.437L98.4965 108.494L98.4926 106.795L98.4912 106.739Z" fill="#585C58"/>
<path d="M98.4927 106.795L98.4966 108.494C98.5006 108.627 98.5153 108.762 98.542 108.9L98.5366 107.203C98.51 107.066 98.4953 106.928 98.4927 106.795Z" fill="#5B5F5B"/>
<path d="M98.5366 107.204L98.542 108.901C98.5673 109.028 98.606 109.16 98.6553 109.293L98.65 107.597C98.6006 107.464 98.5633 107.332 98.5366 107.204Z" fill="#5E635E"/>
<path d="M98.6499 107.596L98.6552 109.292C98.7046 109.424 98.7659 109.56 98.8433 109.693L98.8392 107.999C98.7619 107.863 98.6992 107.728 98.6499 107.596Z" fill="#616661"/>
<path d="M98.8394 108L98.8434 109.695C98.9247 109.841 99.0247 109.987 99.142 110.135L99.1367 108.437C99.0194 108.289 98.922 108.143 98.8394 108Z" fill="#646964"/>
<path d="M99.1367 108.436L99.1421 110.133C99.2794 110.309 99.4434 110.487 99.6381 110.664L99.6327 108.965C99.4394 108.791 99.2741 108.613 99.1367 108.436Z" fill="#676C67"/>
<path d="M99.6326 108.967L99.6379 110.665C99.9579 110.96 100.359 111.256 100.855 111.551L100.851 109.853C100.354 109.559 99.9539 109.261 99.6326 108.967Z" fill="#6A6F6A"/>
<path d="M100.851 109.853L100.855 111.55C101.49 111.929 102.281 112.302 103.257 112.666L103.253 110.971C102.275 110.606 101.485 110.233 100.851 109.853Z" fill="#6D726D"/>
<path d="M103.253 110.971L103.257 112.665L110.016 131.916L110.012 130.221L103.253 110.971Z" fill="#626762"/>
<path d="M114.782 131.053L114.786 132.751L120.109 133.836L120.105 132.139L114.782 131.053Z" fill="#717772"/>
<path d="M110.238 133.331L110.244 135.027L114.786 132.75L114.782 131.053L110.238 133.331Z" fill="#535754"/>
<path d="M120.105 132.138L120.109 133.835L121.257 137.078L121.253 135.382L120.105 132.138Z" fill="#626762"/>
<path d="M117.002 137.706L121.253 135.382L120.105 132.138L114.782 131.053L110.238 133.332L111.333 136.621L117.002 137.706ZM109.222 130.626C109.473 130.48 109.736 130.348 110.012 130.221L103.253 110.97C95.329 108.018 99.6357 104.328 99.861 104.132L100.712 107.128L106.513 108.197L110.685 105.846L109.728 102.94C117.036 106.378 111.205 109.802 111.021 109.91L117.924 129.208C118.91 129.35 119.881 129.584 120.786 129.926C125.016 131.537 126.19 134.834 123.394 137.296C123.037 137.612 122.634 137.896 122.194 138.152C119.168 139.898 114.356 140.24 110.658 138.83C106.422 137.225 105.249 133.925 108.044 131.462C108.394 131.156 108.79 130.877 109.222 130.626Z" fill="#828983"/>
<path d="M106.526 134.402L106.53 136.095V136.178L106.528 134.48L106.526 134.402Z" fill="#585C58"/>
<path d="M106.528 134.481L106.531 136.178C106.535 136.354 106.556 136.529 106.592 136.705L106.588 135.009C106.551 134.832 106.532 134.657 106.528 134.481Z" fill="#5B5F5B"/>
<path d="M106.588 135.009L106.592 136.705C106.627 136.88 106.677 137.052 106.741 137.223L106.737 135.528C106.672 135.353 106.621 135.183 106.588 135.009Z" fill="#5E635E"/>
<path d="M106.737 135.527L106.741 137.221C106.808 137.401 106.89 137.575 106.988 137.748L106.982 136.052C106.885 135.88 106.802 135.704 106.737 135.527Z" fill="#616661"/>
<path d="M106.982 136.053L106.988 137.749C107.092 137.937 107.216 138.121 107.358 138.297L107.353 136.604C107.21 136.424 107.088 136.238 106.982 136.053Z" fill="#646964"/>
<path d="M107.353 136.604L107.358 138.297C107.525 138.513 107.717 138.719 107.933 138.92L107.929 137.223C107.712 137.023 107.52 136.816 107.353 136.604Z" fill="#676C67"/>
<path d="M107.929 137.223L107.933 138.92C108.261 139.223 108.647 139.509 109.087 139.773L109.083 138.075C108.643 137.812 108.257 137.524 107.929 137.223Z" fill="#6A6F6A"/>
<path d="M109.083 138.075L109.086 139.774C109.552 140.052 110.078 140.304 110.662 140.528C110.86 140.603 111.06 140.675 111.264 140.74L111.258 139.043C111.054 138.976 110.856 138.907 110.658 138.831C110.074 138.611 109.547 138.356 109.083 138.075Z" fill="#6D726D"/>
<path d="M111.258 139.042L111.264 140.739C111.817 140.915 112.394 141.057 112.98 141.162L112.976 139.467C112.389 139.362 111.812 139.219 111.258 139.042Z" fill="#6A6F6A"/>
<path d="M112.976 139.467L112.98 141.162C113.365 141.231 113.754 141.288 114.144 141.326L114.14 139.627C113.749 139.59 113.36 139.537 112.976 139.467Z" fill="#676C67"/>
<path d="M114.14 139.627L114.144 141.326C114.478 141.358 114.814 141.379 115.15 141.393L115.145 139.695C114.81 139.685 114.473 139.662 114.14 139.627Z" fill="#646964"/>
<path d="M115.145 139.696L115.15 141.393C115.465 141.404 115.777 141.405 116.089 141.398L116.086 139.7C115.772 139.708 115.46 139.708 115.145 139.696Z" fill="#616661"/>
<path d="M116.086 139.7L116.089 141.398C116.392 141.39 116.693 141.374 116.992 141.349L116.988 139.652C116.688 139.678 116.388 139.693 116.086 139.7Z" fill="#5E635E"/>
<path d="M116.988 139.652L116.992 141.35C117.293 141.324 117.59 141.291 117.885 141.25L117.881 139.552C117.586 139.596 117.289 139.627 116.988 139.652Z" fill="#5B5F5B"/>
<path d="M117.881 139.551L117.885 141.248C118.197 141.204 118.502 141.151 118.804 141.087L118.798 139.393C118.497 139.455 118.192 139.508 117.881 139.551Z" fill="#585C58"/>
<path d="M118.798 139.395L118.804 141.088C119.133 141.021 119.457 140.943 119.773 140.852L119.769 139.156C119.453 139.245 119.128 139.324 118.798 139.395Z" fill="#555955"/>
<path d="M119.769 139.156L119.773 140.852C120.157 140.742 120.529 140.617 120.886 140.476L120.881 138.78C120.524 138.92 120.152 139.045 119.769 139.156Z" fill="#525652"/>
<path d="M120.881 138.781L120.886 140.477C121.352 140.294 121.79 140.082 122.2 139.849C122.64 139.594 123.042 139.31 123.4 138.995C124.429 138.086 124.921 137.065 124.918 136.057L124.914 134.358C124.916 135.367 124.424 136.389 123.394 137.297C123.037 137.613 122.634 137.897 122.194 138.153C121.785 138.389 121.346 138.598 120.881 138.781Z" fill="#4F534F"/>
<path d="M138.609 102.091L138.613 103.79L139.572 106.691L139.566 104.995L138.609 102.091Z" fill="#616662"/>
<path d="M139.902 109.062L139.906 110.758C140.022 110.691 142.289 109.358 142.285 107.54L142.28 105.844C142.285 107.664 140.017 108.995 139.902 109.062Z" fill="#4F534F"/>
<path d="M127.373 105.889L127.377 107.586L127.378 107.645L127.374 105.947L127.373 105.889Z" fill="#585C58"/>
<path d="M127.375 105.947L127.378 107.645C127.382 107.775 127.397 107.91 127.424 108.049L127.42 106.351C127.392 106.217 127.377 106.081 127.375 105.947Z" fill="#5B5F5B"/>
<path d="M127.42 106.351L127.424 108.049C127.449 108.178 127.486 108.31 127.537 108.443L127.533 106.746C127.482 106.614 127.445 106.482 127.42 106.351Z" fill="#5E635E"/>
<path d="M127.533 106.746L127.537 108.443C127.588 108.575 127.648 108.71 127.725 108.846L127.72 107.147C127.644 107.012 127.583 106.879 127.533 106.746Z" fill="#616661"/>
<path d="M127.72 107.147L127.725 108.846C127.808 108.991 127.906 109.137 128.022 109.283L128.017 107.589C127.901 107.441 127.804 107.293 127.72 107.147Z" fill="#646964"/>
<path d="M128.017 107.588L128.022 109.282C128.16 109.458 128.325 109.634 128.52 109.814L128.514 108.118C128.32 107.938 128.156 107.761 128.017 107.588Z" fill="#676C67"/>
<path d="M128.514 108.12L128.52 109.816C128.84 110.111 129.241 110.407 129.737 110.701L129.733 109.005C129.236 108.711 128.834 108.413 128.514 108.12Z" fill="#6A6F6A"/>
<path d="M129.733 109.004L129.737 110.7C130.372 111.076 131.162 111.454 132.14 111.816L132.134 110.12C131.157 109.756 130.366 109.38 129.733 109.004Z" fill="#6D726D"/>
<path d="M132.134 110.12L132.14 111.816L138.897 131.068L138.893 129.371L132.134 110.12Z" fill="#626762"/>
<path d="M143.664 130.202L143.668 131.901L148.99 132.986L148.986 131.289L143.664 130.202Z" fill="#717772"/>
<path d="M139.12 132.481L139.125 134.18L143.668 131.901L143.664 130.202L139.12 132.481Z" fill="#535754"/>
<path d="M148.986 131.29L148.99 132.987L150.14 136.232L150.134 134.535L148.986 131.29Z" fill="#626762"/>
<path d="M145.882 136.858L150.134 134.534L148.986 131.289L143.664 130.202L139.12 132.481L140.214 135.774L145.882 136.858ZM138.104 129.776C138.354 129.632 138.617 129.497 138.893 129.372L132.134 110.121C124.21 107.172 128.517 103.48 128.742 103.286L129.592 106.281L135.394 107.35L139.566 104.996L138.609 102.092C145.918 105.528 140.088 108.953 139.902 109.061L146.806 128.357C147.792 128.501 148.762 128.734 149.668 129.076C153.897 130.686 155.07 133.986 152.274 136.45C151.92 136.761 151.516 137.049 151.074 137.301C148.049 139.048 143.236 139.394 139.54 137.982C135.305 136.376 134.13 133.074 136.925 130.616C137.276 130.305 137.67 130.026 138.104 129.776Z" fill="#828983"/>
<path d="M135.406 133.55L135.412 135.248V135.326L135.408 133.632L135.406 133.55Z" fill="#585C58"/>
<path d="M135.408 133.632L135.412 135.327C135.417 135.504 135.437 135.682 135.473 135.854L135.468 134.158C135.432 133.983 135.413 133.807 135.408 133.632Z" fill="#5B5F5B"/>
<path d="M135.468 134.158L135.473 135.854C135.508 136.028 135.557 136.203 135.621 136.375L135.618 134.678C135.552 134.506 135.502 134.335 135.468 134.158Z" fill="#5E635E"/>
<path d="M135.618 134.677L135.621 136.374C135.689 136.55 135.771 136.728 135.869 136.902L135.865 135.204C135.766 135.029 135.683 134.856 135.618 134.677Z" fill="#616661"/>
<path d="M135.865 135.204L135.869 136.903C135.974 137.085 136.097 137.271 136.238 137.449L136.233 135.752C136.091 135.572 135.969 135.392 135.865 135.204Z" fill="#646964"/>
<path d="M136.233 135.753L136.238 137.45C136.406 137.664 136.597 137.87 136.814 138.07L136.812 136.376C136.593 136.173 136.401 135.965 136.233 135.753Z" fill="#676C67"/>
<path d="M136.812 136.374L136.814 138.069C137.144 138.373 137.529 138.66 137.966 138.924L137.962 137.226C137.524 136.962 137.138 136.677 136.812 136.374Z" fill="#6A6F6A"/>
<path d="M137.962 137.228L137.966 138.925C138.433 139.204 138.96 139.459 139.542 139.681C139.741 139.755 139.941 139.827 140.145 139.891L140.14 138.192C139.936 138.128 139.737 138.057 139.54 137.983C138.954 137.76 138.428 137.508 137.962 137.228Z" fill="#6D726D"/>
<path d="M140.14 138.192L140.145 139.89C140.7 140.068 141.274 140.21 141.862 140.314L141.857 138.618C141.269 138.513 140.694 138.372 140.14 138.192Z" fill="#6A6F6A"/>
<path d="M141.857 138.617L141.862 140.313C142.246 140.383 142.634 140.437 143.025 140.475L143.021 138.781C142.629 138.739 142.241 138.685 141.857 138.617Z" fill="#676C67"/>
<path d="M143.021 138.782L143.025 140.476C143.36 140.51 143.696 140.532 144.033 140.545L144.028 138.849C143.69 138.836 143.354 138.814 143.021 138.782Z" fill="#646964"/>
<path d="M144.028 138.848L144.033 140.544C144.346 140.555 144.658 140.555 144.97 140.547L144.968 138.85C144.653 138.86 144.341 138.858 144.028 138.848Z" fill="#616661"/>
<path d="M144.968 138.85L144.97 140.547C145.272 140.539 145.573 140.524 145.872 140.499L145.868 138.803C145.569 138.827 145.269 138.846 144.968 138.85Z" fill="#5E635E"/>
<path d="M145.868 138.804L145.872 140.5C146.173 140.476 146.473 140.444 146.766 140.4L146.762 138.703C146.468 138.745 146.17 138.78 145.868 138.804Z" fill="#5B5F5B"/>
<path d="M146.762 138.701L146.766 140.398C147.077 140.354 147.382 140.3 147.684 140.238L147.678 138.542C147.378 138.606 147.073 138.657 146.762 138.701Z" fill="#585C58"/>
<path d="M147.678 138.542L147.684 140.238C148.014 140.17 148.338 140.09 148.654 140.001L148.65 138.306C148.334 138.397 148.009 138.473 147.678 138.542Z" fill="#555955"/>
<path d="M148.65 138.307L148.654 140.002C149.037 139.893 149.41 139.767 149.768 139.627L149.762 137.931C149.405 138.071 149.033 138.197 148.65 138.307Z" fill="#525652"/>
<path d="M149.762 137.931L149.768 139.627C150.233 139.444 150.672 139.235 151.08 138.999C151.52 138.744 151.924 138.459 152.28 138.143C153.312 137.238 153.802 136.214 153.798 135.204L153.794 133.511C153.797 134.518 153.306 135.54 152.274 136.45C151.92 136.76 151.516 137.048 151.074 137.3C150.666 137.536 150.228 137.746 149.762 137.931Z" fill="#4F534F"/>
<path d="M63.0622 135.483L63.0596 136.553L61.4756 138.105L61.4783 137.035L63.0622 135.483Z" fill="#328F94"/>
<path d="M41.3701 137.418L41.3661 138.488L39.5728 136.854L39.5754 135.784L41.3701 137.418Z" fill="#226265"/>
<path d="M67.4984 141.254L67.4957 142.322L64.5957 142.91L64.5997 141.843L67.4984 141.254Z" fill="#329196"/>
<path d="M58.6795 141.909L58.6768 142.977C58.6795 141.911 57.9541 140.873 56.6248 140.105C56.3208 139.927 55.9835 139.767 55.6182 139.623L55.6208 138.557C55.9862 138.699 56.3234 138.861 56.6288 139.037C57.9581 139.802 58.6822 140.845 58.6795 141.909Z" fill="#236468"/>
<path d="M55.6207 138.556L55.6181 139.623C55.4461 139.556 55.27 139.492 55.086 139.434L54.7673 139.336L54.7714 138.268L55.0887 138.363C55.2727 138.422 55.4501 138.487 55.6207 138.556Z" fill="#24686C"/>
<path d="M54.7714 138.268L54.7674 139.336C54.5247 139.267 54.2768 139.205 54.0261 139.155L54.0287 138.084C54.2794 138.137 54.5274 138.196 54.7714 138.268Z" fill="#266C70"/>
<path d="M54.0288 138.084L54.0262 139.154C53.7995 139.108 53.5715 139.068 53.3408 139.033L53.3448 137.965C53.5741 138 53.8034 138.038 54.0288 138.084Z" fill="#277074"/>
<path d="M53.3446 137.965L53.3406 139.033C53.118 139.004 52.8939 138.977 52.6699 138.959L52.674 137.892C52.898 137.909 53.1219 137.936 53.3446 137.965Z" fill="#287478"/>
<path d="M52.674 137.892L52.67 138.959C52.4446 138.943 52.218 138.93 51.9927 138.924L51.9953 137.856C52.2206 137.862 52.4473 137.872 52.674 137.892Z" fill="#2A787C"/>
<path d="M51.9953 137.857L51.9927 138.925C51.7553 138.92 51.5193 138.92 51.2847 138.928L51.2873 137.86C51.522 137.852 51.7579 137.849 51.9953 137.857Z" fill="#2B7C80"/>
<path d="M51.2876 137.86L51.2849 138.928C51.0249 138.939 50.7649 138.953 50.5103 138.979L50.5142 137.911C50.7676 137.887 51.0276 137.868 51.2876 137.86Z" fill="#2C7F84"/>
<path d="M50.5141 137.909L50.5101 138.977C50.2048 139.009 49.9048 139.052 49.6101 139.105L49.6141 138.036C49.9087 137.981 50.2087 137.941 50.5141 137.909Z" fill="#2E8388"/>
<path d="M49.614 138.036L49.6101 139.106C49.1621 139.184 48.7261 139.292 48.3127 139.426L48.3167 138.358C48.7287 138.226 49.1647 138.118 49.614 138.036Z" fill="#2F878C"/>
<path d="M48.3167 138.358L48.3127 139.426C47.7194 139.62 47.1687 139.858 46.686 140.15L46.6914 139.081C47.1727 138.793 47.722 138.549 48.3167 138.358Z" fill="#308B90"/>
<path d="M46.6915 139.081L46.6862 140.151C46.3635 140.347 46.0702 140.561 45.8115 140.799L45.8156 139.729C46.0729 139.493 46.3662 139.276 46.6915 139.081Z" fill="#2F878C"/>
<path d="M45.8156 139.728L45.8115 140.797L45.6182 140.987L45.3662 141.277L45.3689 140.209L45.6222 139.92L45.8156 139.728Z" fill="#2E8388"/>
<path d="M45.3687 140.211L45.366 141.279C45.258 141.416 45.1647 141.557 45.0847 141.697L45.0887 140.629C45.1674 140.487 45.2594 140.349 45.3687 140.211Z" fill="#2C7F84"/>
<path d="M45.0887 140.629L45.0848 141.697C45.0114 141.828 44.9487 141.96 44.8994 142.092L44.9021 141.024C44.9527 140.892 45.0141 140.76 45.0887 140.629Z" fill="#2B7C80"/>
<path d="M44.9022 141.023L44.8996 142.091C44.8516 142.222 44.8129 142.348 44.7876 142.48L44.7916 141.412C44.8156 141.282 44.8542 141.151 44.9022 141.023Z" fill="#2A787C"/>
<path d="M44.7915 141.413L44.7876 142.481C44.7609 142.614 44.7462 142.746 44.7422 142.877L44.7449 141.809C44.7489 141.677 44.7635 141.546 44.7915 141.413Z" fill="#287478"/>
<path d="M44.7447 141.809L44.742 142.877L44.7407 142.939L44.7434 141.871L44.7447 141.809Z" fill="#277074"/>
<path d="M38.8531 142.263L38.8505 143.334L35.6611 142.745L35.6638 141.675L38.8531 142.263Z" fill="#2B7B7F"/>
<path d="M64.5996 141.922L64.5969 142.992L64.5942 143.102L64.5982 142.032L64.5996 141.922Z" fill="#277074"/>
<path d="M64.598 142.034L64.594 143.103C64.5887 143.342 64.5594 143.582 64.5127 143.82L64.5154 142.752C64.5634 142.515 64.59 142.274 64.598 142.034Z" fill="#287478"/>
<path d="M64.5154 142.751L64.5127 143.819C64.4647 144.063 64.3954 144.302 64.3047 144.543L64.3087 143.472C64.3967 143.236 64.4687 142.992 64.5154 142.751Z" fill="#2A787C"/>
<path d="M64.3087 143.473L64.3047 144.544C64.2247 144.756 64.1287 144.966 64.0181 145.18L64.0207 144.109C64.1327 143.9 64.2287 143.686 64.3087 143.473Z" fill="#2B7C80"/>
<path d="M39.5914 144.396L39.5888 145.463C39.1581 144.783 38.9141 144.064 38.8501 143.334L38.8528 142.263C38.9168 142.994 39.1608 143.715 39.5914 144.396Z" fill="#236468"/>
<path d="M64.4971 147.313L64.4932 148.381L61.6064 147.754L61.6091 146.684L64.4971 147.313Z" fill="#2A797D"/>
<path d="M66.5038 145.214L66.5011 146.285L64.4932 148.381L64.4971 147.313L66.5038 145.214Z" fill="#318E93"/>
<path d="M39.2087 147.66L39.2048 148.73L37.0674 146.666L37.0701 145.598L39.2087 147.66Z" fill="#226165"/>
<path d="M42.2491 146.94L42.2464 148.01L39.2051 148.73L39.209 147.66L42.2491 146.94Z" fill="#339297"/>
<path d="M61.6087 146.685L61.606 147.756C61.422 147.881 61.2327 148.004 61.0354 148.125L61.0394 147.054C61.2354 146.936 61.4247 146.813 61.6087 146.685Z" fill="#2F878C"/>
<path d="M61.0393 147.054L61.0354 148.124C60.3167 148.559 59.5154 148.938 58.6514 149.258L58.6553 148.187C59.518 147.87 60.3207 147.491 61.0393 147.054Z" fill="#308B90"/>
<path d="M45.2262 148.323L45.2235 149.391C44.9688 149.305 44.7208 149.213 44.4795 149.12L44.4822 148.052C44.7235 148.145 44.9715 148.236 45.2262 148.323Z" fill="#24686C"/>
<path d="M44.4821 148.051L44.4794 149.119C43.7901 148.847 43.1581 148.544 42.5887 148.215L42.2461 148.01L42.2488 146.939L42.5928 147.147C43.1608 147.474 43.7928 147.779 44.4821 148.051Z" fill="#236468"/>
<path d="M53.93 149.242L53.9274 150.313C53.462 150.356 52.9901 150.388 52.5181 150.402L52.5207 149.336C52.9941 149.32 53.4647 149.289 53.93 149.242Z" fill="#2C7F84"/>
<path d="M52.5208 149.336L52.5182 150.403C52.0768 150.418 51.6328 150.42 51.1875 150.41L51.1902 149.344C51.6355 149.352 52.0795 149.35 52.5208 149.336Z" fill="#2B7C80"/>
<path d="M51.19 149.345L51.1874 150.41C50.8074 150.401 50.4233 150.383 50.042 150.351L50.0447 149.285C50.4273 149.313 50.81 149.334 51.19 149.345Z" fill="#2A787C"/>
<path d="M55.4757 150.832L55.4717 151.9L53.9277 150.315L53.9304 149.244L55.4757 150.832Z" fill="#226164"/>
<path d="M59.341 149.971L59.3383 151.039L55.4717 151.9L55.4757 150.832L59.341 149.971Z" fill="#329197"/>
<path d="M50.0448 149.286L50.0421 150.352L48.5581 152.01L48.5608 150.942L50.0448 149.286Z" fill="#318D92"/>
<path d="M48.3289 145.415C51.6982 146.5 55.9396 145.801 57.8049 143.852C59.3502 142.24 58.7822 140.28 56.6289 139.037C56.1822 138.78 55.6662 138.552 55.0889 138.364C51.7209 137.28 47.4782 137.977 45.6222 139.921C44.0756 141.533 44.6395 143.5 46.7955 144.744C47.2395 145.003 47.7529 145.228 48.3289 145.415ZM61.6089 146.684C60.7529 147.281 59.7542 147.783 58.6556 148.187L59.3409 149.971L55.4756 150.832L53.9302 149.244C52.6556 149.367 51.3556 149.385 50.0449 149.285L48.5609 150.941L44.6369 150.151L45.2263 148.323C44.2409 147.988 43.3623 147.591 42.5929 147.148L42.2489 146.94L39.2089 147.66L37.0702 145.599L39.5916 144.396C39.1609 143.715 38.9169 142.993 38.8529 142.263L35.6636 141.675L36.3022 139.307L39.5889 139.327C39.8276 138.963 40.1009 138.603 40.4396 138.249C40.7222 137.96 41.0369 137.679 41.3702 137.417L39.5756 135.784L42.7022 134.209L45.1862 135.441C46.2782 135.071 47.4702 134.796 48.6955 134.627L49.1263 132.736L53.2702 132.701L53.7982 134.529C55.0422 134.649 56.2862 134.877 57.4649 135.221L59.8342 133.969L63.0622 135.484L61.4782 137.036C62.3409 137.62 63.0369 138.272 63.5489 138.973L66.7009 138.897L67.4982 141.255L64.5996 141.844C64.6116 142.601 64.4169 143.367 64.0209 144.109L66.5035 145.215L64.4969 147.313L61.6089 146.684Z" fill="#3AA6AC"/>
<path d="M48.561 150.942L48.5583 152.01L44.6343 151.219L44.6369 150.151L48.561 150.942Z" fill="#2A7A7E"/>
<path d="M107.121 147.928L107.118 148.849L105.012 150.916L105.014 149.997L107.121 147.928Z" fill="#0B293E"/>
<path d="M78.2582 150.503L78.2569 151.422L75.8662 149.249L75.8689 148.327L78.2582 150.503Z" fill="#081C2A"/>
<path d="M113.024 155.607L113.021 156.526L109.154 157.312L109.157 156.394L113.024 155.607Z" fill="#0B293F"/>
<path d="M101.292 156.484L101.289 157.404C101.293 155.984 100.328 154.598 98.5556 153.572C98.1502 153.342 97.7022 153.126 97.2156 152.934L97.2169 152.015C97.7062 152.207 98.1529 152.422 98.5582 152.655C100.33 153.676 101.296 155.067 101.292 156.484Z" fill="#081D2C"/>
<path d="M97.2167 152.015L97.2154 152.934C96.9861 152.844 96.75 152.759 96.5034 152.68C96.366 152.636 96.2261 152.592 96.0874 152.555L96.0887 151.632C96.2287 151.675 96.3674 151.718 96.506 151.76C96.7527 151.84 96.9887 151.924 97.2167 152.015Z" fill="#081E2D"/>
<path d="M96.0889 151.632L96.0876 152.555C95.761 152.461 95.4329 152.38 95.0996 152.311L95.1009 151.392C95.4356 151.46 95.7649 151.54 96.0889 151.632Z" fill="#081F2F"/>
<path d="M95.1008 151.392L95.0995 152.311C94.7981 152.249 94.4928 152.196 94.1875 152.152L94.1902 151.233C94.4968 151.277 94.8008 151.328 95.1008 151.392Z" fill="#092031"/>
<path d="M94.1902 151.234L94.1875 152.152C93.8902 152.112 93.5929 152.078 93.2942 152.054L93.2969 151.134C93.5942 151.159 93.8942 151.192 94.1902 151.234Z" fill="#092132"/>
<path d="M93.2968 151.133L93.2941 152.053C92.9928 152.026 92.6915 152.011 92.3901 152.003L92.3941 151.083C92.6954 151.091 92.9954 151.107 93.2968 151.133Z" fill="#092234"/>
<path d="M92.3942 151.084L92.3902 152.004C92.0756 151.996 91.7608 151.999 91.4475 152.01L91.4515 151.09C91.7622 151.079 92.0795 151.078 92.3942 151.084Z" fill="#0A2336"/>
<path d="M91.4515 151.09L91.4474 152.01C91.1021 152.022 90.7581 152.046 90.4194 152.078L90.4221 151.159C90.7621 151.125 91.1048 151.101 91.4515 151.09Z" fill="#0A2437"/>
<path d="M90.4223 151.159L90.4196 152.077C90.0156 152.12 89.6156 152.176 89.2236 152.244L89.2263 151.325C89.617 151.253 90.0183 151.197 90.4223 151.159Z" fill="#0A2539"/>
<path d="M89.2262 151.325L89.2235 152.244C88.6262 152.352 88.0488 152.496 87.4995 152.672L87.5008 151.753C88.0515 151.576 88.6289 151.433 89.2262 151.325Z" fill="#0B273B"/>
<path d="M87.5008 151.754L87.4995 152.673C86.7048 152.926 85.9702 153.251 85.3235 153.641L85.3275 152.719C85.9715 152.333 86.7061 152.007 87.5008 151.754Z" fill="#0B283C"/>
<path d="M85.3275 152.719L85.3236 153.641C84.8929 153.899 84.5009 154.187 84.1555 154.506L84.1596 153.586C84.5036 153.269 84.8955 152.979 85.3275 152.719Z" fill="#0B273B"/>
<path d="M84.1596 153.585L84.1555 154.505L83.9049 154.753C83.7835 154.879 83.6729 155.007 83.5715 155.135L83.5755 154.213C83.6768 154.085 83.7862 153.96 83.9088 153.832L84.1596 153.585Z" fill="#0A2539"/>
<path d="M83.5754 154.213L83.5715 155.135C83.4275 155.316 83.3048 155.504 83.1968 155.689L83.1994 154.771C83.3074 154.584 83.4301 154.397 83.5754 154.213Z" fill="#0A2437"/>
<path d="M83.1995 154.771L83.1969 155.69C83.0982 155.864 83.0169 156.039 82.9502 156.215L82.9542 155.296C83.0196 155.12 83.1009 154.946 83.1995 154.771Z" fill="#0A2336"/>
<path d="M82.9542 155.296L82.9501 156.215C82.8861 156.387 82.8381 156.562 82.8035 156.732L82.8061 155.814C82.8395 155.639 82.8888 155.467 82.9542 155.296Z" fill="#092234"/>
<path d="M82.8063 155.814L82.8036 156.733C82.7689 156.909 82.749 157.084 82.7437 157.26L82.745 156.342C82.7516 156.165 82.7703 155.99 82.8063 155.814Z" fill="#092132"/>
<path d="M82.7449 156.342L82.7436 157.259L82.7422 157.342L82.7449 156.42V156.342Z" fill="#092031"/>
<path d="M74.9064 156.954L74.9038 157.871L70.6611 157.091L70.6638 156.172L74.9064 156.954Z" fill="#0A2335"/>
<path d="M109.158 156.527L109.156 157.447L109.153 157.598L109.156 156.679L109.158 156.527Z" fill="#092031"/>
<path d="M109.155 156.679L109.153 157.598C109.145 157.92 109.105 158.244 109.041 158.568L109.043 157.648C109.109 157.327 109.145 157.002 109.155 156.679Z" fill="#092132"/>
<path d="M109.043 157.647L109.041 158.567C108.978 158.887 108.885 159.207 108.766 159.523L108.77 158.606C108.889 158.286 108.979 157.967 109.043 157.647Z" fill="#092234"/>
<path d="M108.77 158.607L108.766 159.524C108.665 159.793 108.543 160.063 108.403 160.332L108.406 159.409C108.547 159.143 108.669 158.875 108.77 158.607Z" fill="#0A2336"/>
<path d="M75.89 159.793L75.8874 160.713C75.3234 159.798 74.9873 158.841 74.9033 157.87L74.906 156.953C74.99 157.922 75.326 158.877 75.89 159.793Z" fill="#081D2C"/>
<path d="M109.033 163.669L109.032 164.588L105.184 163.753L105.186 162.833L109.033 163.669Z" fill="#092234"/>
<path d="M111.703 160.881L111.701 161.803L109.031 164.588L109.033 163.669L111.703 160.881Z" fill="#0B293E"/>
<path d="M75.3852 164.135L75.3811 165.055L72.5371 162.309L72.5398 161.392L75.3852 164.135Z" fill="#081C2A"/>
<path d="M79.4288 163.171L79.4262 164.089L75.3809 165.055L75.3849 164.135L79.4288 163.171Z" fill="#0B2A40"/>
<path d="M105.186 162.833L105.184 163.753C104.926 163.933 104.658 164.108 104.381 164.273L104.385 163.355C104.66 163.188 104.928 163.015 105.186 162.833Z" fill="#0B273B"/>
<path d="M104.385 163.354L104.381 164.272C103.438 164.844 102.39 165.34 101.258 165.758L101.261 164.839C102.392 164.418 103.441 163.924 104.385 163.354Z" fill="#0B283C"/>
<path d="M83.3821 165.014L83.378 165.932C83.0447 165.82 82.7207 165.701 82.4087 165.578L82.4101 164.657C82.7247 164.781 83.0487 164.901 83.3821 165.014Z" fill="#081E2D"/>
<path d="M82.4103 164.657L82.4089 165.578C81.5062 165.223 80.6756 164.826 79.9276 164.391C79.7556 164.293 79.5889 164.191 79.4263 164.089L79.4289 163.17C79.5902 163.273 79.7595 163.374 79.9289 163.471C80.6809 163.905 81.5089 164.301 82.4103 164.657Z" fill="#081D2C"/>
<path d="M94.9662 166.236L94.9635 167.155L94.9182 167.16L94.9195 166.24L94.9662 166.236Z" fill="#0A2539"/>
<path d="M94.9195 166.241L94.9182 167.161C94.3062 167.222 93.6861 167.263 93.0635 167.283L93.0648 166.365C93.6901 166.342 94.3088 166.301 94.9195 166.241Z" fill="#0A2437"/>
<path d="M93.0648 166.365L93.0635 167.283C92.4861 167.303 91.9075 167.306 91.3262 167.291L91.3288 166.373C91.9101 166.387 92.4888 166.382 93.0648 166.365Z" fill="#0A2336"/>
<path d="M91.3288 166.372L91.3262 167.291C90.8195 167.279 90.3128 167.252 89.8062 167.214L89.8088 166.295C90.3142 166.334 90.8221 166.359 91.3288 166.372Z" fill="#092234"/>
<path d="M97.0247 168.344L97.0207 169.266L94.9634 167.156L94.966 166.238L97.0247 168.344Z" fill="#081C2A"/>
<path d="M102.173 167.206L102.17 168.124L97.021 169.266L97.025 168.344L102.173 167.206Z" fill="#0B293F"/>
<path d="M89.8089 166.295L89.8062 167.214L87.8223 169.41L87.8249 168.491L89.8089 166.295Z" fill="#0B283D"/>
<path d="M87.5249 161.146C92.0076 162.59 97.6529 161.66 100.132 159.07C102.184 156.924 101.425 154.311 98.5582 152.655C97.9622 152.311 97.2769 152.01 96.5062 151.76C92.0262 150.318 86.3929 151.246 83.9089 153.832C81.8489 155.982 82.6129 158.596 85.4823 160.252C86.0756 160.595 86.7582 160.898 87.5249 161.146ZM105.186 162.834C104.048 163.628 102.725 164.296 101.261 164.84L102.173 167.206L97.0249 168.344L94.9662 166.238C93.2782 166.406 91.5329 166.427 89.8089 166.296L87.8249 168.492L82.6129 167.448L83.3823 165.015C82.0956 164.575 80.9409 164.056 79.9289 163.472C79.7595 163.375 79.5902 163.274 79.4289 163.171L75.3849 164.135L72.5396 161.392L75.8903 159.794C75.3263 158.878 74.9902 157.923 74.9062 156.954L70.6636 156.172L71.5222 153.018L75.8969 153.046C76.2022 152.56 76.5729 152.075 77.0222 151.615C77.3942 151.227 77.8156 150.854 78.2582 150.504L75.8689 148.328L80.0315 146.238L83.3289 147.875C84.7982 147.382 86.3676 147.016 88.0049 146.794L88.5716 144.279L94.0942 144.232L94.7982 146.662C96.4489 146.82 98.0942 147.123 99.6729 147.586L102.837 145.911L107.121 147.928L105.014 149.998C106.166 150.779 107.09 151.646 107.77 152.568L111.965 152.467L113.024 155.608L109.157 156.395C109.177 157.402 108.932 158.422 108.406 159.41L111.704 160.882L109.033 163.67L105.186 162.834Z" fill="#0D2F48"/>
<path d="M87.825 168.491L87.8223 169.41L82.6104 168.366L82.613 167.447L87.825 168.491Z" fill="#092335"/>
<path d="M89.966 123.907L89.962 124.978L89.0181 125.914L89.0207 124.849L89.966 123.907Z" fill="#B3491E"/>
<path d="M76.9342 125.073L76.9315 126.143L75.8516 125.163L75.8555 124.093L76.9342 125.073Z" fill="#7A3214"/>
<path d="M92.6301 127.382L92.6274 128.453L90.8848 128.805L90.8887 127.735L92.6301 127.382Z" fill="#B54A1E"/>
<path d="M87.3352 127.778L87.3326 128.846C87.3339 128.204 86.8952 127.576 86.0952 127.114C85.9139 127.01 85.7126 126.911 85.4939 126.827L85.4966 125.756C85.7152 125.844 85.9165 125.942 86.0979 126.047C86.8992 126.508 87.3379 127.136 87.3352 127.778Z" fill="#7D3315"/>
<path d="M85.4966 125.756L85.4939 126.826L85.1766 126.711L84.9873 126.656L84.9913 125.588L85.1793 125.644L85.4966 125.756Z" fill="#823516"/>
<path d="M84.9913 125.588L84.9874 126.656C84.8407 126.615 84.6913 126.576 84.5393 126.546L84.542 125.478C84.694 125.51 84.8433 125.544 84.9913 125.588Z" fill="#873716"/>
<path d="M84.5419 125.477L84.5393 126.545C84.4033 126.516 84.2646 126.494 84.126 126.473L84.1286 125.405C84.2672 125.424 84.4059 125.45 84.5419 125.477Z" fill="#8C3917"/>
<path d="M84.1285 125.407L84.1259 126.475C83.9913 126.457 83.8552 126.441 83.7192 126.429L83.7219 125.361C83.8579 125.372 83.9925 125.387 84.1285 125.407Z" fill="#913B18"/>
<path d="M83.722 125.36L83.7194 126.428C83.5834 126.417 83.4461 126.409 83.3101 126.406L83.3127 125.337C83.4487 125.342 83.586 125.349 83.722 125.36Z" fill="#953D19"/>
<path d="M83.3126 125.338L83.31 126.407C83.1673 126.403 83.0233 126.406 82.8806 126.41L82.8833 125.341C83.026 125.335 83.1686 125.335 83.3126 125.338Z" fill="#9A3F1A"/>
<path d="M82.8833 125.339L82.8806 126.409C82.7246 126.414 82.5686 126.425 82.4153 126.439L82.4193 125.37C82.5726 125.354 82.7273 125.345 82.8833 125.339Z" fill="#9F411A"/>
<path d="M82.4193 125.372L82.4154 126.441C82.2327 126.46 82.0514 126.485 81.874 126.516L81.878 125.449C82.054 125.414 82.2353 125.392 82.4193 125.372Z" fill="#A4431B"/>
<path d="M81.878 125.448L81.874 126.514C81.6047 126.564 81.3447 126.629 81.0967 126.709L81.0993 125.638C81.3487 125.56 81.6073 125.496 81.878 125.448Z" fill="#A9451C"/>
<path d="M81.0993 125.639L81.0966 126.709C80.7433 126.821 80.414 126.967 80.126 127.139L80.1286 126.072C80.4179 125.899 80.746 125.755 81.0993 125.639Z" fill="#AE471D"/>
<path d="M80.1286 126.073L80.126 127.139C79.9287 127.258 79.7527 127.389 79.5967 127.531L79.6007 126.463C79.7553 126.321 79.9313 126.19 80.1286 126.073Z" fill="#A9451C"/>
<path d="M79.6005 126.463L79.5965 127.531L79.4752 127.651L79.3206 127.828L79.3232 126.76L79.4778 126.581L79.6005 126.463Z" fill="#A4431B"/>
<path d="M79.3233 126.76L79.3206 127.828L79.1526 128.076L79.1553 127.01L79.3233 126.76Z" fill="#9F411A"/>
<path d="M79.1553 127.01L79.1527 128.077L79.042 128.312L79.0447 127.245L79.1553 127.01Z" fill="#9A3F1A"/>
<path d="M79.0445 127.245L79.0419 128.313L78.9766 128.545L78.9779 127.478L79.0445 127.245Z" fill="#953D19"/>
<path d="M78.978 127.479L78.9767 128.545L78.9487 128.781L78.9514 127.715L78.978 127.479Z" fill="#913B18"/>
<path d="M78.9513 127.713L78.9486 128.78L78.9473 128.818L78.9513 127.748V127.713Z" fill="#8C3917"/>
<path d="M75.4091 127.989L75.4051 129.057L73.4932 128.702L73.4971 127.635L75.4091 127.989Z" fill="#993E19"/>
<path d="M90.8887 127.762L90.8848 128.83V128.904L90.8874 127.836L90.8887 127.762Z" fill="#8C3917"/>
<path d="M90.8876 127.836L90.8849 128.904C90.8796 129.06 90.8622 129.213 90.8315 129.369L90.8356 128.298C90.8662 128.145 90.8823 127.989 90.8876 127.836Z" fill="#913B18"/>
<path d="M90.8353 128.299L90.8312 129.37C90.8032 129.517 90.7606 129.659 90.7046 129.805L90.7086 128.738C90.7646 128.591 90.8059 128.446 90.8353 128.299Z" fill="#953D19"/>
<path d="M90.7087 128.737L90.7047 129.804L90.542 130.168L90.5447 129.097L90.7087 128.737Z" fill="#9A3F1A"/>
<path d="M75.8581 129.27L75.8554 130.338C75.6021 129.93 75.4501 129.495 75.4048 129.058L75.4088 127.99C75.4528 128.427 75.6061 128.862 75.8581 129.27Z" fill="#7D3315"/>
<path d="M90.8318 131.024L90.8291 132.094L89.0918 131.718L89.0945 130.648L90.8318 131.024Z" fill="#973D19"/>
<path d="M92.0344 129.764L92.0331 130.832L90.8291 132.094L90.8318 131.024L92.0344 129.764Z" fill="#B1481D"/>
<path d="M75.6289 131.236L75.625 132.303L74.3423 131.061L74.345 129.991L75.6289 131.236Z" fill="#793114"/>
<path d="M77.461 130.8L77.457 131.867L75.625 132.303L75.629 131.236L77.461 130.8Z" fill="#B64A1E"/>
<path d="M89.0942 130.649L89.0916 131.719L88.7476 131.941L88.7516 130.872L89.0942 130.649Z" fill="#A9451C"/>
<path d="M88.7514 130.871L88.7473 131.94C88.3153 132.202 87.8367 132.427 87.3193 132.619L87.322 131.552C87.8393 131.359 88.3194 131.131 88.7514 130.871Z" fill="#AE471D"/>
<path d="M79.2505 131.633L79.2465 132.699C79.0892 132.646 78.9345 132.59 78.7852 132.531L78.7878 131.463C78.9372 131.522 79.0918 131.578 79.2505 131.633Z" fill="#823516"/>
<path d="M78.7877 131.463L78.785 132.531C78.385 132.375 78.0197 132.198 77.6904 132.01L77.457 131.867L77.461 130.801L77.693 130.942C78.0224 131.13 78.3877 131.305 78.7877 131.463Z" fill="#7D3315"/>
<path d="M84.4753 132.181L84.4727 133.247L84.458 133.25L84.462 132.181H84.4753Z" fill="#A4431B"/>
<path d="M84.4622 132.181L84.4582 133.251C84.1755 133.277 83.8902 133.296 83.6035 133.307L83.6076 132.237C83.8942 132.231 84.1782 132.209 84.4622 132.181Z" fill="#9F411A"/>
<path d="M83.6074 132.238L83.6033 133.307C83.338 133.315 83.0727 133.318 82.8047 133.31L82.8074 132.242C83.0754 132.247 83.3407 132.247 83.6074 132.238Z" fill="#9A3F1A"/>
<path d="M82.8074 132.243L82.8048 133.311C82.5821 133.305 82.3594 133.295 82.1367 133.279L82.1394 132.211C82.3621 132.227 82.5848 132.239 82.8074 132.243Z" fill="#953D19"/>
<path d="M85.406 133.135L85.402 134.201L84.4727 133.249L84.4753 132.183L85.406 133.135Z" fill="#793114"/>
<path d="M87.729 132.625L87.7264 133.692L85.4023 134.201L85.4063 133.135L87.729 132.625Z" fill="#B54A1E"/>
<path d="M82.1396 132.211L82.137 133.279L81.249 134.27L81.253 133.202L82.1396 132.211Z" fill="#B0481D"/>
<path d="M81.109 129.881C83.1397 130.533 85.689 130.12 86.809 128.944C87.7437 127.976 87.393 126.793 86.0984 126.047C85.8317 125.893 85.5251 125.756 85.1798 125.644C83.1491 124.992 80.5997 125.408 79.4784 126.581C78.5437 127.552 78.8944 128.735 80.1904 129.481C80.4571 129.635 80.7624 129.771 81.109 129.881ZM89.0944 130.649C88.5811 131.008 87.9811 131.307 87.3224 131.553L87.729 132.625L85.4064 133.135L84.4757 132.183C83.7064 132.259 82.9237 132.267 82.1397 132.211L81.2531 133.201L78.8971 132.728L79.2504 131.632C78.6664 131.432 78.1451 131.201 77.6931 130.941L77.4611 130.8L75.629 131.236L74.3451 129.991L75.8584 129.269C75.6064 128.861 75.453 128.427 75.409 127.989L73.4971 127.636L73.8811 126.209L75.8584 126.223C75.9984 126.008 76.1704 125.791 76.3704 125.575C76.537 125.404 76.7277 125.235 76.9344 125.073L75.8557 124.093L77.7264 123.151L79.2238 123.891C79.8798 123.663 80.597 123.499 81.3397 123.397L81.5904 122.263L84.0757 122.241L84.3997 123.336C85.1504 123.412 85.893 123.553 86.6037 123.76L88.0264 123.003L89.9664 123.908L89.0211 124.849C89.5318 125.199 89.9584 125.591 90.2611 126.008L92.1531 125.964L92.6304 127.383L90.8891 127.736C90.8917 128.191 90.7851 128.649 90.5451 129.097L92.0344 129.765L90.8317 131.025L89.0944 130.649Z" fill="#D05422"/>
<path d="M81.253 133.202L81.2491 134.27L78.8931 133.795L78.897 132.728L81.253 133.202Z" fill="#983E19"/>
<path d="M183.487 36.8895C183.487 36.8895 158.199 47.1749 147.891 56.2429C137.583 65.3095 138.727 72.5735 140.402 83.1869C142.077 93.8029 149.91 101.731 146.921 124.532C146.921 124.532 169.866 132.078 189.498 109.515C189.498 109.515 183.042 101.936 195.047 70.2802C202.586 50.4082 197.735 34.6455 183.487 36.8895Z" fill="#44D0E9"/>
<path d="M159.49 38.3561C159.49 38.3561 162.183 45.3682 158.56 49.9735C155.216 54.2242 182.628 52.1908 180.99 44.9575C180.674 43.5535 173.674 41.6602 179.849 31.1482L159.49 38.3561Z" fill="#E8A476"/>
<path d="M159.969 45.9932C159.969 45.9932 167.192 52.3306 177.372 42.1452L176.465 38.8012L176.245 36.9226L171.037 18.8292C171.037 18.8292 167.978 31.8426 165.528 35.4732C164.474 37.0306 159.806 40.3412 159.806 40.3412C159.806 40.3412 160.863 42.9852 159.969 45.9932Z" fill="#E8A476"/>
<path d="M158.392 50.2539C158.392 50.2539 163.374 45.2366 177.584 38.3939L159.249 39.7872C159.249 39.7872 161.673 45.3232 158.392 50.2539Z" fill="#DB9669"/>
<path d="M154.106 6.6977C154.106 6.6977 149.447 12.827 149.951 16.655C150.126 17.987 150.631 21.4817 150.553 22.9017C150.478 24.319 149.649 25.035 149.577 26.2377C149.515 27.4417 151.221 39.6524 155.643 39.9044C160.066 40.1537 165.959 45.3164 179.541 33.1897C179.541 33.1897 189.87 20.8324 182.134 7.77505C182.134 7.77505 172.211 -5.5303 154.106 6.6977Z" fill="#F1B287"/>
<path d="M150.418 14.3193C150.418 14.3193 152.945 18.0473 152.945 20.6726C152.945 23.294 151.559 27.5553 152.945 28.9433C154.334 30.33 156.639 31.1526 157.757 33.7553C158.346 35.1233 159.538 37.1113 159.538 40.7126C159.538 40.7126 167.978 43.1926 169.969 38.9659L168.223 23.8206L163.374 13.5313L150.481 14.1353L150.418 14.3193Z" fill="#E8A476"/>
<path d="M185.532 16.2717C185.698 21.8743 180.386 35.5957 176.634 39.229C175.08 40.7303 170.254 42.1917 167.368 40.7063C161.841 37.8717 168.526 27.877 161.277 25.6037C158.23 24.6423 156.221 27.737 156.221 29.6077C156.221 29.6077 152.485 26.4197 154.881 22.1903C155.865 20.4703 156.661 17.0757 153.664 14.1997C152.008 12.6103 151.576 13.1037 150.541 14.0957C149.516 15.085 147.51 7.52235 153.292 4.08368C162.606 -1.44165 184.916 -4.483 185.532 16.2717Z" fill="#3F210A"/>
<path fill-rule="evenodd" clip-rule="evenodd" d="M164.609 28.8182C164.609 28.8182 180.089 34.7435 184.941 20.8328C184.941 20.8328 181.587 39.8009 172.913 40.9929C172.913 40.9929 164.099 44.1275 164.934 34.4048L164.609 28.8182Z" fill="#361D07"/>
<path fill-rule="evenodd" clip-rule="evenodd" d="M154.832 15.9468C154.832 15.9468 178.864 19.8455 184.758 10.9055C184.758 10.9055 184.666 9.64285 183.639 7.91751C183.639 7.91751 182.993 19.7148 154.832 15.9468Z" fill="#301808"/>
<path fill-rule="evenodd" clip-rule="evenodd" d="M178.751 14.2473C173.631 17.1953 158.638 17.4179 152.297 15.3086C147.126 13.5806 148.063 8.03525 151.914 5.10991C151.614 7.19525 145.699 13.4899 158.386 14.2246C158.811 14.2472 156.826 12.6446 156.186 11.7299C156.186 11.7299 162.822 15.7939 164.609 13.7459C164.982 13.3193 164.277 12.4872 163.546 11.7299C164.873 11.9152 168.733 13.8472 169.857 13.3086C171.03 12.7352 167.442 10.1699 167.442 10.1699C167.442 10.1699 174.431 13.2499 175.494 11.7299C175.785 11.3112 175.009 10.4579 174.309 10.0486C177.897 9.77125 182.529 10.7113 183.483 8.61258C183.503 8.76858 183.487 8.44992 183.483 8.61258C183.423 10.1406 181.451 12.6926 178.751 14.2473Z" fill="#301808"/>
<path d="M155.701 17.8028C155.701 17.8028 175.772 25.0428 185.514 16.9988C185.514 16.9988 186.022 15.5601 184.758 10.9054C184.758 10.9054 180 19.4227 155.037 15.9868L155.701 17.8028Z" fill="#4F2B0C"/>
<path d="M155.701 17.8034C155.701 17.8034 177.971 20.7234 185.381 14.134C185.381 14.134 185.549 16.3954 185.454 17.7367C185.194 21.358 183.665 22.6687 181.431 23.882C181.431 23.882 183.833 21.8327 182.25 19.562C182.25 19.562 181.63 23.4567 179.245 24.2967C179.245 24.2967 180.014 22.4407 179.017 21.71C179.017 21.71 177.667 24.906 175.911 25.1647C175.911 25.1647 178.199 21.5074 176.829 20.51C176.829 20.51 176.562 24.9367 172.683 25.582C172.683 25.582 174.255 23.394 172.658 22.226C172.658 22.226 171.495 25.582 169.139 25.582C169.139 25.582 170.154 22.9927 169.554 21.7967C169.554 21.7967 168.477 24.4567 166.382 24.966C166.382 24.966 167.293 22.3367 166.322 21.366C166.322 21.366 165.351 23.99 161.882 24.4674C161.882 24.4674 164.562 21.418 162.538 19.8607C161.457 19.0247 155.701 17.8034 155.701 17.8034Z" fill="#4F2B0C"/>
<path d="M181.759 5.08984C181.759 5.08984 175.599 -3.73549 158.182 1.85784C158.182 1.85784 163.865 1.7112 166.105 1.7112C168.339 1.7112 164.313 3.01252 162.229 3.49652C160.139 3.98852 168.339 3.14987 171.117 3.14987C173.895 3.14987 178.787 4.08587 175.355 4.61253C171.921 5.1352 181.179 4.50184 181.759 5.08984Z" fill="#4C260C"/>
<path d="M146.921 124.534C149.91 101.733 142.077 93.8046 140.402 83.1886C138.727 72.5753 137.583 65.3113 147.891 56.2446C148.818 55.4313 149.867 54.6019 151.007 53.7779C160.194 51.8806 168.337 60.6033 166.107 75.4499C163.317 94.0299 161.131 112.598 161.878 125.351C153.141 126.575 146.921 124.534 146.921 124.534Z" fill="#43ADD6"/>
<path d="M183.487 36.8895C183.487 36.8895 158.199 47.1749 147.891 56.2429C137.583 65.3095 138.727 72.5735 140.402 83.1869C142.077 93.8029 149.91 101.731 146.921 124.532C146.921 124.532 169.866 132.078 189.498 109.515C189.498 109.515 183.042 101.936 195.047 70.2802C202.586 50.4082 197.735 34.6455 183.487 36.8895Z" fill="#44D0E9"/>
<path d="M159.49 38.3561C159.49 38.3561 162.183 45.3682 158.56 49.9735C155.216 54.2242 182.628 52.1908 180.99 44.9575C180.674 43.5535 173.674 41.6602 179.849 31.1482L159.49 38.3561Z" fill="#E8A476"/>
<path d="M159.969 45.9932C159.969 45.9932 167.192 52.3306 177.372 42.1452L176.465 38.8012L176.245 36.9226L171.037 18.8292C171.037 18.8292 167.978 31.8426 165.528 35.4732C164.474 37.0306 159.806 40.3412 159.806 40.3412C159.806 40.3412 160.863 42.9852 159.969 45.9932Z" fill="#E8A476"/>
<path d="M158.392 50.2539C158.392 50.2539 163.374 45.2366 177.584 38.3939L159.249 39.7872C159.249 39.7872 161.673 45.3232 158.392 50.2539Z" fill="#DB9669"/>
<path d="M154.106 6.6977C154.106 6.6977 149.447 12.827 149.951 16.655C150.126 17.987 150.631 21.4817 150.553 22.9017C150.478 24.319 149.649 25.035 149.577 26.2377C149.515 27.4417 151.221 39.6524 155.643 39.9044C160.066 40.1537 165.959 45.3164 179.541 33.1897C179.541 33.1897 189.87 20.8324 182.134 7.77505C182.134 7.77505 172.211 -5.5303 154.106 6.6977Z" fill="#F1B287"/>
<path d="M150.418 14.3193C150.418 14.3193 152.945 18.0473 152.945 20.6726C152.945 23.294 151.559 27.5553 152.945 28.9433C154.334 30.33 156.639 31.1526 157.757 33.7553C158.346 35.1233 159.538 37.1113 159.538 40.7126C159.538 40.7126 167.978 43.1926 169.969 38.9659L168.223 23.8206L163.374 13.5313L150.481 14.1353L150.418 14.3193Z" fill="#E8A476"/>
<path d="M185.532 16.2717C185.698 21.8743 180.386 35.5957 176.634 39.229C175.08 40.7303 170.254 42.1917 167.368 40.7063C161.841 37.8717 168.526 27.877 161.277 25.6037C158.23 24.6423 156.221 27.737 156.221 29.6077C156.221 29.6077 152.485 26.4197 154.881 22.1903C155.865 20.4703 156.661 17.0757 153.664 14.1997C152.008 12.6103 151.576 13.1037 150.541 14.0957C149.516 15.085 147.51 7.52235 153.292 4.08368C162.606 -1.44165 184.916 -4.483 185.532 16.2717Z" fill="#3F210A"/>
<path fill-rule="evenodd" clip-rule="evenodd" d="M164.609 28.8182C164.609 28.8182 180.089 34.7435 184.941 20.8328C184.941 20.8328 181.587 39.8009 172.913 40.9929C172.913 40.9929 164.099 44.1275 164.934 34.4048L164.609 28.8182Z" fill="#361D07"/>
<path fill-rule="evenodd" clip-rule="evenodd" d="M154.832 15.9468C154.832 15.9468 178.864 19.8455 184.758 10.9055C184.758 10.9055 184.666 9.64285 183.639 7.91751C183.639 7.91751 182.993 19.7148 154.832 15.9468Z" fill="#301808"/>
<path fill-rule="evenodd" clip-rule="evenodd" d="M178.751 14.2473C173.631 17.1953 158.638 17.4179 152.297 15.3086C147.126 13.5806 148.063 8.03525 151.914 5.10991C151.614 7.19525 145.699 13.4899 158.386 14.2246C158.811 14.2472 156.826 12.6446 156.186 11.7299C156.186 11.7299 162.822 15.7939 164.609 13.7459C164.982 13.3193 164.277 12.4872 163.546 11.7299C164.873 11.9152 168.733 13.8472 169.857 13.3086C171.03 12.7352 167.442 10.1699 167.442 10.1699C167.442 10.1699 174.431 13.2499 175.494 11.7299C175.785 11.3112 175.009 10.4579 174.309 10.0486C177.897 9.77125 182.529 10.7113 183.483 8.61258C183.503 8.76858 183.487 8.44992 183.483 8.61258C183.423 10.1406 181.451 12.6926 178.751 14.2473Z" fill="#301808"/>
<path d="M155.701 17.8028C155.701 17.8028 175.772 25.0428 185.514 16.9988C185.514 16.9988 186.022 15.5601 184.758 10.9054C184.758 10.9054 180 19.4227 155.037 15.9868L155.701 17.8028Z" fill="#4F2B0C"/>
<path d="M155.701 17.8034C155.701 17.8034 177.971 20.7234 185.381 14.134C185.381 14.134 185.549 16.3954 185.454 17.7367C185.194 21.358 183.665 22.6687 181.431 23.882C181.431 23.882 183.833 21.8327 182.25 19.562C182.25 19.562 181.63 23.4567 179.245 24.2967C179.245 24.2967 180.014 22.4407 179.017 21.71C179.017 21.71 177.667 24.906 175.911 25.1647C175.911 25.1647 178.199 21.5074 176.829 20.51C176.829 20.51 176.562 24.9367 172.683 25.582C172.683 25.582 174.255 23.394 172.658 22.226C172.658 22.226 171.495 25.582 169.139 25.582C169.139 25.582 170.154 22.9927 169.554 21.7967C169.554 21.7967 168.477 24.4567 166.382 24.966C166.382 24.966 167.293 22.3367 166.322 21.366C166.322 21.366 165.351 23.99 161.882 24.4674C161.882 24.4674 164.562 21.418 162.538 19.8607C161.457 19.0247 155.701 17.8034 155.701 17.8034Z" fill="#4F2B0C"/>
<path d="M181.759 5.08984C181.759 5.08984 175.599 -3.73549 158.182 1.85784C158.182 1.85784 163.865 1.7112 166.105 1.7112C168.339 1.7112 164.313 3.01252 162.229 3.49652C160.139 3.98852 168.339 3.14987 171.117 3.14987C173.895 3.14987 178.787 4.08587 175.355 4.61253C171.921 5.1352 181.179 4.50184 181.759 5.08984Z" fill="#4C260C"/>
<path d="M146.921 124.534C149.91 101.733 142.077 93.8046 140.402 83.1886C138.727 72.5753 137.583 65.3113 147.891 56.2446C148.818 55.4313 149.867 54.6019 151.007 53.7779C160.194 51.8806 168.337 60.6033 166.107 75.4499C163.317 94.0299 161.131 112.598 161.878 125.351C153.141 126.575 146.921 124.534 146.921 124.534Z" fill="#43ADD6"/>
<path d="M183.487 36.8895C183.487 36.8895 158.199 47.1749 147.891 56.2429C137.583 65.3095 138.727 72.5735 140.402 83.1869C142.077 93.8029 149.91 101.731 146.921 124.532C146.921 124.532 169.866 132.078 189.498 109.515C189.498 109.515 183.042 101.936 195.047 70.2802C202.586 50.4082 197.735 34.6455 183.487 36.8895Z" fill="#172E3F"/>
<path d="M159.49 38.3561C159.49 38.3561 162.183 45.3682 158.56 49.9735C155.216 54.2242 182.628 52.1908 180.99 44.9575C180.674 43.5535 173.674 41.6602 179.849 31.1482L159.49 38.3561Z" fill="#E8A476"/>
<path d="M159.969 45.9932C159.969 45.9932 167.192 52.3306 177.372 42.1452L176.465 38.8012L176.245 36.9226L171.037 18.8292C171.037 18.8292 167.978 31.8426 165.528 35.4732C164.474 37.0306 159.806 40.3412 159.806 40.3412C159.806 40.3412 160.863 42.9852 159.969 45.9932Z" fill="#E8A476"/>
<path d="M158.392 50.2539C158.392 50.2539 163.374 45.2366 177.584 38.3939L159.249 39.7872C159.249 39.7872 161.673 45.3232 158.392 50.2539Z" fill="#DB9669"/>
<path d="M154.106 6.6977C154.106 6.6977 149.447 12.827 149.951 16.655C150.126 17.987 150.631 21.4817 150.553 22.9017C150.478 24.319 149.649 25.035 149.577 26.2377C149.515 27.4417 151.221 39.6524 155.643 39.9044C160.066 40.1537 165.959 45.3164 179.541 33.1897C179.541 33.1897 189.87 20.8324 182.134 7.77505C182.134 7.77505 172.211 -5.5303 154.106 6.6977Z" fill="#F1B287"/>
<path d="M150.418 14.3193C150.418 14.3193 152.945 18.0473 152.945 20.6726C152.945 23.294 151.559 27.5553 152.945 28.9433C154.334 30.33 156.639 31.1526 157.757 33.7553C158.346 35.1233 159.538 37.1113 159.538 40.7126C159.538 40.7126 167.978 43.1926 169.969 38.9659L168.223 23.8206L163.374 13.5313L150.481 14.1353L150.418 14.3193Z" fill="#E8A476"/>
<path d="M185.532 16.2717C185.698 21.8743 180.386 35.5957 176.634 39.229C175.08 40.7303 170.254 42.1917 167.368 40.7063C161.841 37.8717 168.526 27.877 161.277 25.6037C158.23 24.6423 156.221 27.737 156.221 29.6077C156.221 29.6077 152.485 26.4197 154.881 22.1903C155.865 20.4703 156.661 17.0757 153.664 14.1997C152.008 12.6103 151.576 13.1037 150.541 14.0957C149.516 15.085 147.51 7.52235 153.292 4.08368C162.606 -1.44165 184.916 -4.483 185.532 16.2717Z" fill="#3F210A"/>
<path fill-rule="evenodd" clip-rule="evenodd" d="M164.609 28.8182C164.609 28.8182 180.089 34.7435 184.941 20.8328C184.941 20.8328 181.587 39.8009 172.913 40.9929C172.913 40.9929 164.099 44.1275 164.934 34.4048L164.609 28.8182Z" fill="#361D07"/>
<path fill-rule="evenodd" clip-rule="evenodd" d="M154.832 15.9468C154.832 15.9468 178.864 19.8455 184.758 10.9055C184.758 10.9055 184.666 9.64285 183.639 7.91751C183.639 7.91751 182.993 19.7148 154.832 15.9468Z" fill="#301808"/>
<path fill-rule="evenodd" clip-rule="evenodd" d="M178.751 14.2473C173.631 17.1953 158.638 17.4179 152.297 15.3086C147.126 13.5806 148.063 8.03525 151.914 5.10991C151.614 7.19525 145.699 13.4899 158.386 14.2246C158.811 14.2472 156.826 12.6446 156.186 11.7299C156.186 11.7299 162.822 15.7939 164.609 13.7459C164.982 13.3193 164.277 12.4872 163.546 11.7299C164.873 11.9152 168.733 13.8472 169.857 13.3086C171.03 12.7352 167.442 10.1699 167.442 10.1699C167.442 10.1699 174.431 13.2499 175.494 11.7299C175.785 11.3112 175.009 10.4579 174.309 10.0486C177.897 9.77125 182.529 10.7113 183.483 8.61258C183.503 8.76858 183.487 8.44992 183.483 8.61258C183.423 10.1406 181.451 12.6926 178.751 14.2473Z" fill="#301808"/>
<path d="M155.701 17.8028C155.701 17.8028 175.772 25.0428 185.514 16.9988C185.514 16.9988 186.022 15.5601 184.758 10.9054C184.758 10.9054 180 19.4227 155.037 15.9868L155.701 17.8028Z" fill="#4F2B0C"/>
<path d="M155.701 17.8034C155.701 17.8034 177.971 20.7234 185.381 14.134C185.381 14.134 185.549 16.3954 185.454 17.7367C185.194 21.358 183.665 22.6687 181.431 23.882C181.431 23.882 183.833 21.8327 182.25 19.562C182.25 19.562 181.63 23.4567 179.245 24.2967C179.245 24.2967 180.014 22.4407 179.017 21.71C179.017 21.71 177.667 24.906 175.911 25.1647C175.911 25.1647 178.199 21.5074 176.829 20.51C176.829 20.51 176.562 24.9367 172.683 25.582C172.683 25.582 174.255 23.394 172.658 22.226C172.658 22.226 171.495 25.582 169.139 25.582C169.139 25.582 170.154 22.9927 169.554 21.7967C169.554 21.7967 168.477 24.4567 166.382 24.966C166.382 24.966 167.293 22.3367 166.322 21.366C166.322 21.366 165.351 23.99 161.882 24.4674C161.882 24.4674 164.562 21.418 162.538 19.8607C161.457 19.0247 155.701 17.8034 155.701 17.8034Z" fill="#4F2B0C"/>
<path d="M181.759 5.08984C181.759 5.08984 175.599 -3.73549 158.182 1.85784C158.182 1.85784 163.865 1.7112 166.105 1.7112C168.339 1.7112 164.313 3.01252 162.229 3.49652C160.139 3.98852 168.339 3.14987 171.117 3.14987C173.895 3.14987 178.787 4.08587 175.355 4.61253C171.921 5.1352 181.179 4.50184 181.759 5.08984Z" fill="#4C260C"/>
<path d="M146.921 124.534C149.91 101.733 142.077 93.8046 140.402 83.1886C138.727 72.5753 137.583 65.3113 147.891 56.2446C148.818 55.4313 149.867 54.6019 151.007 53.7779C160.194 51.8806 168.337 60.6033 166.107 75.4499C163.317 94.0299 161.131 112.598 161.878 125.351C153.141 126.575 146.921 124.534 146.921 124.534Z" fill="#122633"/>
<path d="M205.478 251.363C205.478 251.363 207.654 244.78 204.12 247.942C200.588 251.108 200.294 250.286 193.932 247.942C192.117 247.277 189.388 244.832 189.853 247.043C191.425 254.571 191.809 254.483 192.018 257.027C192.22 259.482 186.269 257.985 182.826 257.985C179.378 257.985 177.661 262.936 185 266.264C192.341 269.591 193.392 272.179 197.406 274.335C199.802 275.623 208.016 277.243 205.478 268.154C202.942 259.063 205.478 251.363 205.478 251.363Z" fill="#3D1F12"/>
<path d="M158.098 235.961C159.27 230.992 154.213 240.091 138.843 233.185C138.843 233.185 135.687 233.468 140.681 245.225C145.87 257.436 142.287 263.976 140.389 263.976C138.49 263.976 124.417 262.164 122.602 263.976C120.79 265.792 116.362 272.856 131.409 276.409C134.742 277.197 138.143 275.205 144.878 278.833C144.878 278.833 155.931 283.492 155.931 273.822C155.931 273.822 153.162 256.94 158.098 235.961Z" fill="#3D1F12"/>
<path d="M205.121 247.219C208.655 244.052 204.751 258.618 204.751 258.618C204.751 258.618 204.271 262.595 205.478 268.154C207.29 276.484 200.719 275.776 197.881 274.563C199.791 270.034 199.929 263.427 195.363 248.478L197.873 248.74C201.446 248.906 203.109 249.022 205.121 247.219Z" fill="#492817"/>
<path d="M197.406 274.335C193.391 272.179 192.341 269.591 184.999 266.264C179.746 263.88 179.135 260.671 180.475 259.033C180.287 261.092 182.614 261.289 184.771 263.447C187.482 266.155 189.714 266.649 196.518 270.594C200.651 272.997 203.971 272.475 205.941 271.698C205.563 276.739 199.421 275.421 197.406 274.335Z" fill="#331C11"/>
<path d="M157.928 235.392C152.992 256.368 155.932 273.823 155.932 273.823C155.932 280.706 150.33 280.324 147.104 279.534C149.02 277.637 151.058 276.717 148.352 259.032C146.582 247.444 147.174 240.67 148.185 236.8C156.544 237.153 158.785 231.764 157.928 235.392Z" fill="#492817"/>
<path d="M144.878 278.833C138.144 275.205 134.742 277.197 131.409 276.409C121.7 274.12 120.1 270.36 120.676 267.5C122.168 273.257 131.292 273.552 134.774 273.552C138.789 273.552 141.492 273.552 146.61 276.594C149.806 278.499 153.425 277.243 155.69 276.03C154.082 282.708 144.878 278.833 144.878 278.833Z" fill="#331C11"/>
<path d="M155.422 54.6914C149.154 52.4554 143.978 58.3194 138.536 75.2554L132.649 95.2034C132.649 95.2034 120.329 90.3687 111.936 87.134C111.936 87.134 111.072 93.8714 107.468 95.5367C104.829 96.7554 136.124 117.634 143.018 107.955C149.91 98.278 171.137 60.294 155.422 54.6914Z" fill="#F1B287"/>
<path d="M108.394 97.2601C110.161 96.4588 112.047 95.7881 112.561 96.2975C113.585 97.3268 132.481 106.277 137.279 106.789C142.074 107.3 147.633 91.1468 147.633 91.1468L152.873 90.9148C149.266 98.2561 145.333 104.703 143.018 107.956C137.165 116.176 113.725 102.365 108.394 97.2601Z" fill="#E8A476"/>
<path d="M161.57 59.1835C161.57 59.1835 166.38 71.9462 151.941 94.2648C151.941 94.2648 136.64 97.2062 133.461 85.7528C133.461 85.7528 138.441 58.2995 152.777 53.6568C152.777 53.6568 158.521 52.6368 161.57 59.1835Z" fill="#172E3F"/>
<path d="M133.461 85.7529C133.461 85.7529 137.696 62.4796 149.562 55.1703C146.086 61.3769 136.597 80.0556 140.321 93.3223C137.314 92.1236 134.605 89.8703 133.461 85.7529Z" fill="#122633"/>
<path d="M117.281 87.0724C117.602 90.2831 113.53 100.438 108.905 98.9498C106.341 98.1231 102.268 92.9164 98.8238 93.3844C95.3824 93.8471 82.6464 93.3978 83.8024 81.6751C83.9278 80.3591 86.1331 77.4924 88.3371 78.9231C90.5411 80.3564 95.7451 83.5871 96.4504 80.0191C96.6931 78.8018 96.5384 79.4258 93.8664 75.7658C93.5571 75.3391 93.2651 73.8604 95.4771 74.4031C97.6944 74.9458 100.904 78.3138 104.252 80.9231C107.094 83.1364 117.057 84.8644 117.281 87.0724Z" fill="#97959D"/>
<path d="M108.905 98.9482C106.341 98.1215 102.268 92.9149 98.8238 93.3829C95.3824 93.8455 82.6464 93.3962 83.8024 81.6735C83.8251 81.3895 83.9544 81.0282 84.1584 80.6602C88.1291 91.5749 96.9251 89.8082 103.976 90.1722C109.538 90.4589 113.184 93.6589 114.668 95.2509C113.134 97.7722 111.077 99.6469 108.905 98.9482Z" fill="#828084"/>
<path d="M178.768 39.2327C178.768 39.2327 193.638 39.7074 168.453 123.582L175.664 121.346C175.664 121.346 196.586 40.682 185.46 38.3274C185.46 38.3274 182.158 36.526 178.768 39.2327Z" fill="#F7AD0C"/>
<path d="M149.162 54.9897C149.162 54.9897 179.213 60.295 183.877 116.152L187.998 112.435C187.998 112.435 178.693 53.047 154.594 51.3604C154.594 51.3604 150.159 52.951 149.162 54.9897Z" fill="#F7AD0C"/>
<path d="M189.498 109.516C189.498 109.516 202.056 125.632 196.654 148.127C196.17 150.152 199.421 170.566 199.421 187.998C199.421 187.998 212.566 232.628 205.477 260.671C205.477 260.671 197.416 262.071 190.856 254.987C190.856 254.987 182.318 218.184 182.318 194.111C182.318 194.111 164.065 151.612 164.065 124.986L189.498 109.516Z" fill="#F7AD0C"/>
<path d="M190.856 254.987C190.856 254.987 182.318 218.184 182.318 194.111C182.318 194.111 164.065 151.612 164.065 124.986L172.664 119.758L179.065 129.168C179.065 129.168 182.673 170.416 188.21 185.183C193.749 199.949 187.842 227.267 193.749 246.092C193.957 246.755 196.702 258.736 196.845 259.307C192.904 257.672 192.074 256.306 190.856 254.987Z" fill="#EDA006"/>
<path d="M146.921 124.533C146.921 124.533 137.603 144.167 137.603 177.967C137.603 177.967 135.327 212.331 137.603 235.369C137.603 235.369 142.715 250.669 144.465 260.112C144.465 260.112 143.378 266.909 153.354 263.512C153.354 263.512 165.082 231.594 154.929 204.025C154.929 204.025 170.307 183.698 170.307 159.527C170.307 159.527 186.549 137.011 175.291 117.629C175.291 117.629 172.589 129.011 146.921 124.533Z" fill="#EDA006"/>
<path d="M146.921 124.533C146.921 124.533 137.603 144.166 137.603 177.966C137.603 177.966 135.327 212.33 137.603 235.369C137.603 235.369 138.534 253.153 140.285 262.594C140.285 262.594 146.455 269.593 156.429 266.194C156.429 266.194 165.082 231.594 154.929 204.025C154.929 204.025 170.307 183.698 170.307 159.526C170.307 159.526 186.549 137.01 175.291 117.629C175.291 117.629 172.589 129.01 146.921 124.533Z" fill="#F7AD0C"/>
<path d="M137.603 177.967C137.603 144.167 146.921 124.533 146.921 124.533C151.959 125.409 156.109 125.677 159.533 125.54L160.11 125.744C160.11 125.744 152.771 135.532 147.786 167.923C142.803 200.32 140.59 190.905 142.803 217.208C145.018 243.512 145.451 266.029 145.451 266.029L140.285 262.594C138.113 254.352 137.603 235.369 137.603 235.369C135.327 212.331 137.603 177.967 137.603 177.967Z" fill="#EDA006"/>
<path d="M196.654 148.127C196.17 150.152 199.421 170.565 199.421 187.998C199.421 187.998 213.093 232.467 205.477 260.671C202.663 262.537 199.841 241.393 199.841 239.357C199.841 232.991 197.901 207.793 194.265 193.401C190.629 179 191.757 162.389 191.757 147.713C191.757 133.037 184.771 116.712 184.771 116.712V112.391L189.498 109.516C189.498 109.516 202.055 125.632 196.654 148.127Z" fill="#F4B80F"/>
<path d="M175.291 119.844C186.549 139.224 170.307 159.527 170.307 159.527C170.307 183.699 154.929 204.025 154.929 204.025C164.065 225.885 158.657 254.363 156.429 266.195C152.411 267.106 150.283 248.286 151.941 240.597C156.094 221.349 150.557 206.411 150.557 198.937C150.557 191.46 153.05 174.846 160.297 156.851C167.539 138.855 168.842 124.534 168.842 124.534L169.911 123.204C174.521 120.864 175.291 119.844 175.291 119.844Z" fill="#F4B80F"/>
<path d="M189.498 108.676C189.498 108.676 168.7 130.753 147.169 122.438C147.169 122.438 146.142 126.344 145.932 126.89C145.721 127.432 169.278 136.813 191.757 113.053L189.498 108.676Z" fill="#F7AD0C"/>
</svg>
